<?xml version="1.0" encoding="UTF-8"?>
<svg xmlns="http://www.w3.org/2000/svg" xmlns:xlink="http://www.w3.org/1999/xlink" version="1.2" >
<font id="ITC Charter Black Italic">
<font-face  font-family="ITC Charter" units-per-em="1000" ascent="736.328" descent="-218.018" font-style="italic" font-weight="900" font-stretch="normal" slope="-11" cap-height="750" x-height="500" underline-position="-49" underline-thickness="120" />
<missing-glyph  horiz-adv-x="319" d="" />
<glyph glyph-name="NULL" d="" />
<glyph glyph-name="CR" unicode="&#xd;" horiz-adv-x="250" d="" />
<glyph glyph-name="space" unicode="&#x20;" horiz-adv-x="319" d="" />
<glyph glyph-name="exclam" unicode="&#x21;" horiz-adv-x="343" d="M298 557 C306 578 310 597 310 611 C310 660 280 686 220 686 C144 686 111 643 111 553 L111 224 L168 224 L298 557 Z M122 184 C70 184 27 142 27 88 C27 35 71 -6 122 -6 C174 -6 217 36 217 88 C217 141 175 184 122 184 L122 184 Z " />
<glyph glyph-name="quotedbl" unicode="&#x22;" horiz-adv-x="350" d="M101 413 L143 639 C144 645 145 652 145 658 C145 693 123 715 90 715 C57 715 36 693 36 657 C36 651 37 645 38 639 L80 413 L101 413 Z M270 413 L312 639 C313 645 313 652 313 658 C313 693 292 715 259 715 C226 715 205 693 205 657 C205 651 206 645 207 639 L248 413 L270 413 Z " />
<glyph glyph-name="numbersign" unicode="&#x23;" horiz-adv-x="769" d="M353 710 L277 486 L100 486 L100 410 L250 410 L211 287 L50 287 L50 211 L185 211 L110 -7 L189 -23 L270 211 L384 211 L312 -7 L393 -23 L470 211 L655 211 L655 287 L496 287 L538 410 L697 410 L697 486 L563 486 L636 692 L556 709 L481 486 L360 486 L433 692 L353 710 Z M294 287 L334 410 L453 410 L411 287 L294 287 Z " />
<glyph glyph-name="dollar" unicode="&#x24;" horiz-adv-x="639" d="M381 746 L366 671 C204 663 105 568 105 456 C105 366 161 310 278 274 L237 67 C204 72 174 79 150 89 L150 215 L65 215 L29 36 C101 16 166 4 223 1 L200 -107 L265 -107 L285 1 C452 8 559 113 559 229 C559 316 500 371 376 410 L414 604 C438 601 460 597 479 591 L474 462 L559 462 L595 638 C538 657 483 668 429 670 L444 746 L381 746 Z M317 424 C273 441 252 467 252 505 C252 561 291 601 353 604 L317 424 Z M339 260 C386 241 411 210 411 170 C411 116 365 70 299 67 L339 260 Z " />
<glyph glyph-name="percent" unicode="&#x25;" horiz-adv-x="981" d="M811 671 L719 671 L173 0 L265 0 L811 671 Z M225 318 C196 318 182 343 182 393 C182 536 232 630 280 630 C310 630 325 604 325 553 C325 413 275 318 225 318 L225 318 Z M219 264 C353 264 451 373 451 527 C451 623 392 683 293 683 C160 683 62 573 62 418 C62 322 121 264 219 264 L219 264 Z M694 -12 C827 -12 925 99 925 252 C925 348 867 407 768 407 C635 407 537 298 537 143 C537 47 595 -12 694 -12 L694 -12 Z M700 42 C671 42 657 67 657 117 C657 259 706 354 755 354 C785 354 800 328 800 276 C800 217 787 154 768 107 C750 63 728 42 700 42 L700 42 Z " />
<glyph glyph-name="ampersand" unicode="&#x26;" horiz-adv-x="787" d="M351 401 C306 448 282 488 282 531 C282 581 318 620 363 620 C405 620 432 588 432 536 C432 482 404 436 351 401 L351 401 Z M383 364 C511 381 582 447 582 535 C582 626 509 685 383 685 C224 685 121 593 121 494 C121 442 146 392 195 350 C81 322 20 254 20 164 C20 63 101 -15 217 -15 C289 -15 363 15 440 74 C485 10 535 -11 616 -11 C642 -11 684 -6 743 2 L743 58 C737 58 731 57 726 57 C657 57 615 92 560 167 C624 236 666 287 687 321 L759 333 L759 387 L539 387 L539 333 L586 328 L593 311 C572 273 547 240 517 212 L383 364 Z M237 311 L403 119 C371 99 340 88 311 88 C240 88 185 142 185 212 C185 255 202 287 237 311 L237 311 Z " />
<glyph glyph-name="quotesingle" unicode="&#x27;" horiz-adv-x="181" d="M101 413 L143 639 C144 645 145 652 145 658 C145 693 124 715 91 715 C58 715 36 692 36 657 C36 651 37 645 38 639 L80 413 L101 413 Z " />
<glyph glyph-name="parenleft" unicode="&#x28;" horiz-adv-x="440" d="M477 718 C383 718 303 688 240 631 C183 579 139 512 110 431 C72 327 55 229 55 147 C55 -40 143 -142 299 -142 L310 -142 L322 -82 C244 -80 203 -17 203 102 C203 176 217 278 251 403 C270 473 295 530 328 576 C364 627 413 655 466 658 L477 718 Z " />
<glyph glyph-name="parenright" unicode="&#x29;" horiz-adv-x="440" d="M-60 -142 C34 -142 114 -112 177 -55 C234 -3 278 64 307 145 C345 249 362 347 362 429 C362 615 274 718 118 718 L107 718 L95 658 C173 656 214 593 214 474 C214 400 199 298 165 173 C146 103 121 46 88 0 C52 -51 4 -79 -49 -82 L-60 -142 Z " />
<glyph glyph-name="asterisk" unicode="&#x2a;" horiz-adv-x="500" d="M316 718 L250 657 L274 532 L294 532 L362 657 L316 718 Z M487 572 L419 606 L300 524 L303 506 L434 500 L487 572 Z M368 339 L391 420 L293 494 L277 483 L290 355 L368 339 Z M131 339 L214 355 L272 483 L260 494 L136 421 L131 339 Z M94 572 L122 501 L255 506 L265 523 L175 606 L94 572 Z " />
<glyph glyph-name="plus" unicode="&#x2b;" horiz-adv-x="833" d="M458 596 L375 596 L375 339 L124 339 L124 258 L375 258 L375 0 L458 0 L458 258 L709 258 L709 339 L458 339 L458 596 Z " />
<glyph glyph-name="comma" unicode="&#x2c;" horiz-adv-x="322" d="M-50 -123 L-60 -182 C90 -164 192 -48 192 68 C192 119 160 152 106 152 C50 152 10 110 10 52 C10 34 14 20 25 7 L85 7 C75 -64 27 -111 -50 -123 L-50 -123 Z " />
<glyph glyph-name="hyphen" unicode="&#x2d;" horiz-adv-x="333" d="M-3 176 L280 176 L303 306 L20 306 L-3 176 Z " />
<glyph glyph-name="period" unicode="&#x2e;" horiz-adv-x="322" d="M115 184 C63 184 20 142 20 88 C20 35 64 -6 115 -6 C167 -6 210 36 210 88 C210 141 168 184 115 184 L115 184 Z " />
<glyph glyph-name="slash" unicode="&#x2f;" horiz-adv-x="481" d="M441 671 L-134 -93 L-27 -93 L547 671 L441 671 Z " />
<glyph glyph-name="zero" unicode="0" horiz-adv-x="639" d="M261 -14 C352 -14 428 20 489 88 C562 169 606 291 606 431 C606 588 516 684 382 684 C291 684 211 648 150 578 C80 499 34 375 34 255 C34 83 119 -14 261 -14 L261 -14 Z M371 614 C416 614 441 575 441 499 C441 435 428 332 394 212 C364 108 328 56 272 56 C228 56 201 93 201 158 C201 283 227 416 268 518 C294 583 327 614 371 614 L371 614 Z " />
<glyph glyph-name="one" unicode="1" horiz-adv-x="639" d="M80 0 L488 0 L488 60 L382 65 L371 83 L487 678 L391 678 L145 604 L145 547 L302 563 L208 83 L192 67 L80 60 L80 0 Z " />
<glyph glyph-name="two" unicode="2" horiz-adv-x="639" d="M237 444 L269 609 C275 609 282 610 287 610 C364 610 402 574 402 504 C402 374 269 253 15 88 L15 0 L527 0 L569 218 L481 218 L447 124 L175 124 C446 250 581 375 581 508 C581 615 500 685 362 685 C269 685 188 656 133 607 C97 575 78 537 78 506 C78 459 109 430 163 430 C183 430 208 435 237 444 L237 444 Z " />
<glyph glyph-name="three" unicode="3" horiz-adv-x="639" d="M251 474 L278 615 L288 615 C367 615 411 579 411 516 C411 434 348 382 234 382 C224 382 214 382 203 383 L185 295 C210 300 233 303 254 303 C336 303 378 269 378 204 C378 119 316 58 233 58 C219 58 201 61 179 66 L171 195 C154 206 134 211 110 211 C53 211 15 172 15 121 C15 48 99 -14 229 -14 C428 -14 559 89 559 216 C559 300 497 349 373 357 C515 379 591 448 591 535 C591 623 513 683 374 683 C209 683 103 605 103 527 C103 483 131 456 182 456 C205 456 227 462 251 474 L251 474 Z " />
<glyph glyph-name="four" unicode="4" horiz-adv-x="639" d="M426 676 L16 258 L-4 164 L311 164 L274 -28 L428 -28 L466 164 L582 164 L600 258 L484 258 L566 676 L426 676 Z M385 522 L330 258 L130 258 L385 522 Z " />
<glyph glyph-name="five" unicode="5" horiz-adv-x="639" d="M169 671 L101 322 C156 330 200 334 233 334 C334 334 389 291 389 213 C389 128 322 58 235 58 C224 58 207 60 185 64 L182 195 C161 208 139 213 114 213 C63 213 23 175 23 124 C23 49 102 -13 233 -13 C323 -13 401 13 453 52 C526 108 563 173 563 249 C563 358 484 433 359 433 C317 433 268 425 210 409 L241 545 L581 545 L607 671 L169 671 Z " />
<glyph glyph-name="six" unicode="6" horiz-adv-x="639" d="M550 721 C442 712 345 682 262 631 C118 542 31 387 31 227 C31 82 127 -13 273 -13 C351 -13 427 14 484 60 C550 113 586 188 586 267 C586 386 511 463 396 463 C343 463 291 450 239 422 C284 538 380 613 521 642 L569 634 L550 721 Z M225 361 C251 367 276 371 300 371 C374 371 414 324 414 237 C414 134 355 60 292 60 C235 60 203 111 203 208 C203 258 210 309 225 361 L225 361 Z " />
<glyph glyph-name="seven" unicode="7" horiz-adv-x="639" d="M142 671 L94 423 L180 423 L215 532 L495 532 L106 -30 L243 -30 L243 0 L640 589 L652 671 L142 671 Z " />
<glyph glyph-name="eight" unicode="8" horiz-adv-x="639" d="M450 364 C554 400 605 455 605 534 C605 625 527 688 397 688 C212 688 103 595 103 472 C103 410 134 362 198 326 C90 303 29 239 29 158 C29 54 123 -18 277 -18 C462 -18 580 81 580 202 C580 274 538 324 450 364 L450 364 Z M397 390 C311 436 267 462 267 519 C267 578 305 616 365 616 C420 616 456 578 456 514 C456 466 436 423 397 390 L397 390 Z M247 299 C359 246 414 215 414 155 C414 96 370 55 306 55 C234 55 187 101 187 175 C187 227 209 270 247 299 L247 299 Z " />
<glyph glyph-name="nine" unicode="9" horiz-adv-x="639" d="M102 -60 C240 -28 354 28 442 105 C552 201 616 339 616 453 C616 596 523 685 369 685 C290 685 219 662 166 622 C91 566 51 490 51 407 C51 302 131 219 242 219 C287 219 340 233 401 261 C355 152 264 71 136 26 L79 29 L102 -60 Z M420 323 C391 315 366 310 345 310 C270 310 226 356 226 438 C226 542 286 612 352 612 C409 612 444 562 444 472 C444 424 436 374 420 323 L420 323 Z " />
<glyph glyph-name="colon" unicode="&#x3a;" horiz-adv-x="387" d="M149 184 C97 184 55 142 55 88 C55 35 98 -6 149 -6 C201 -6 245 36 245 88 C245 141 202 184 149 184 L149 184 Z M204 496 C152 496 109 454 109 400 C109 347 153 306 204 306 C256 306 300 348 300 400 C300 453 257 496 204 496 L204 496 Z " />
<glyph glyph-name="semicolon" unicode="&#x3b;" horiz-adv-x="387" d="M-7 -123 L-18 -182 C132 -164 234 -48 234 68 C234 119 202 152 148 152 C92 152 52 110 52 52 C52 34 57 20 68 7 L128 7 C118 -64 70 -111 -7 -123 L-7 -123 Z M204 496 C152 496 109 454 109 400 C109 347 153 306 204 306 C256 306 300 348 300 400 C300 453 257 496 204 496 L204 496 Z " />
<glyph glyph-name="less" unicode="&#x3c;" horiz-adv-x="833" d="M704 593 L129 355 L129 241 L704 4 L704 128 L287 298 L704 469 L704 593 Z " />
<glyph glyph-name="equal" unicode="&#x3d;" horiz-adv-x="833" d="M709 440 L124 440 L124 358 L709 358 L709 440 Z M709 238 L124 238 L124 157 L709 157 L709 238 Z " />
<glyph glyph-name="greater" unicode="&#x3e;" horiz-adv-x="833" d="M129 593 L129 469 L546 298 L129 128 L129 4 L704 241 L704 355 L129 593 Z " />
<glyph glyph-name="question" unicode="&#x3f;" horiz-adv-x="519" d="M158 184 C106 184 63 142 63 88 C63 35 107 -6 158 -6 C210 -6 253 36 253 88 C253 141 211 184 158 184 L158 184 Z M225 279 C417 324 516 413 516 533 C516 628 438 685 295 685 C150 685 58 613 58 538 C58 503 85 485 136 485 C144 485 153 485 162 486 L234 613 C307 612 344 582 344 525 C344 442 281 376 159 339 L135 215 L212 215 L225 279 Z " />
<glyph glyph-name="at" unicode="&#x40;" horiz-adv-x="942" d="M537 434 L569 384 L537 195 C509 156 481 136 453 136 C411 136 387 171 387 237 C387 353 448 436 519 436 C525 436 531 435 537 434 L537 434 Z M710 488 L628 488 L609 465 C575 483 544 492 512 492 C441 492 368 454 319 388 C282 339 263 280 263 217 C263 118 315 57 391 57 C437 57 484 81 533 129 C537 78 564 53 619 53 C685 53 766 99 816 176 C852 232 871 300 871 374 C871 563 737 693 533 693 C412 693 302 652 221 578 C125 490 76 378 76 246 C76 128 114 31 188 -40 C265 -114 365 -153 477 -153 C571 -153 675 -124 781 -65 L761 -20 C677 -68 590 -92 504 -92 C296 -92 158 47 158 259 C158 373 198 467 278 542 C344 604 431 637 527 637 C705 637 815 530 815 368 C815 299 792 228 752 175 C727 141 695 124 670 124 C652 124 638 138 638 156 C638 173 642 193 648 219 L684 387 C692 424 698 457 710 488 L710 488 Z " />
<glyph glyph-name="A" unicode="A" horiz-adv-x="687" d="M347 678 L-2 67 L-61 59 L-61 0 L177 0 L177 59 L117 64 L106 79 L186 224 L403 224 L427 82 L412 66 L347 59 L347 0 L664 0 L664 59 L595 69 L489 678 L347 678 Z M352 528 L391 291 L224 291 L352 528 Z " />
<glyph glyph-name="B" unicode="B" horiz-adv-x="694" d="M85 671 L85 615 L152 611 L163 595 L62 81 L49 65 L-19 59 L-19 0 L341 0 C521 0 623 89 623 218 C623 305 567 357 464 360 C583 393 641 458 641 538 C641 631 575 671 439 671 L85 671 Z M288 381 L332 607 C342 608 351 608 359 608 C429 608 462 582 462 523 C462 427 412 380 312 380 C305 380 296 380 288 381 L288 381 Z M229 69 L276 314 C291 315 304 316 317 316 C402 316 441 285 441 211 C441 115 386 66 278 66 C263 66 246 67 229 69 L229 69 Z " />
<glyph glyph-name="C" unicode="C" horiz-adv-x="671" d="M677 651 C601 673 531 685 468 685 C348 685 242 644 160 567 C78 490 33 389 33 283 C33 102 154 -15 357 -15 C414 -15 484 -3 567 22 L605 211 L513 211 L463 79 L442 60 C432 59 422 59 412 59 C289 59 222 135 222 274 C222 479 334 610 494 610 C508 610 522 609 537 607 L550 588 L552 468 L641 468 L677 651 Z " />
<glyph glyph-name="D" unicode="D" horiz-adv-x="762" d="M83 671 L83 614 L150 608 L160 593 L61 80 L48 65 L-23 60 L-23 0 L275 0 C412 0 510 25 590 100 C677 181 726 294 726 410 C726 584 620 671 407 671 L83 671 Z M332 606 C342 607 352 607 361 607 C477 607 538 544 538 420 C538 282 483 163 409 108 C370 79 321 66 259 66 C249 66 238 66 227 67 L332 606 Z " />
<glyph glyph-name="E" unicode="E" horiz-adv-x="639" d="M84 671 L84 612 L150 606 L160 589 L60 81 L48 65 L-21 58 L-21 0 L539 0 L577 196 L490 196 L447 81 L434 69 L226 69 L274 312 L372 312 L386 298 L386 221 L452 221 L499 467 L430 467 L402 393 L387 379 L287 379 L330 604 L501 604 L514 589 L517 504 L596 504 L629 671 L84 671 Z " />
<glyph glyph-name="F" unicode="F" horiz-adv-x="590" d="M83 671 L83 613 L152 609 L162 597 L61 80 L49 66 L-21 60 L-21 0 L306 0 L306 60 L238 65 L229 80 L271 298 L375 298 L391 287 L391 204 L458 204 L507 455 L437 455 L407 378 L387 367 L284 367 L330 604 L491 604 L503 592 L507 492 L586 492 L622 671 L83 671 Z " />
<glyph glyph-name="G" unicode="G" horiz-adv-x="750" d="M703 649 C631 674 559 686 487 686 C370 686 270 654 193 595 C93 518 38 403 38 269 C38 98 155 -12 350 -12 C429 -12 512 4 596 36 L640 260 L655 273 L720 279 L720 339 L389 339 L389 279 L464 273 L475 258 L437 58 C295 60 223 137 223 286 C223 481 342 614 524 614 C537 614 550 613 563 612 L578 595 L578 468 L669 468 L703 649 Z " />
<glyph glyph-name="H" unicode="H" horiz-adv-x="812" d="M87 671 L87 614 L149 609 L159 593 L60 82 L42 65 L-23 59 L-23 0 L305 0 L305 59 L238 63 L228 83 L273 315 L523 315 L478 83 L461 66 L397 59 L397 0 L721 0 L721 59 L653 66 L645 82 L745 596 L756 608 L825 614 L825 671 L502 671 L502 614 L562 609 L577 592 L537 389 L287 389 L328 597 L337 609 L406 614 L406 671 L87 671 Z " />
<glyph glyph-name="I" unicode="I" horiz-adv-x="407" d="M88 671 L88 614 L156 611 L167 595 L68 80 L53 64 L-19 59 L-19 0 L315 0 L315 59 L246 62 L234 76 L334 597 L351 610 L421 614 L421 671 L88 671 Z " />
<glyph glyph-name="J" unicode="J" horiz-adv-x="521" d="M211 671 L211 612 L283 610 L292 595 L239 288 C213 140 197 62 95 48 L81 60 L78 204 L-13 204 L-51 15 C8 -6 64 -15 112 -15 C280 -15 376 82 408 280 L457 588 L471 607 L542 612 L542 671 L211 671 Z " />
<glyph glyph-name="K" unicode="K" horiz-adv-x="708" d="M83 671 L83 614 L147 611 L158 596 L58 79 L44 64 L-23 59 L-23 0 L301 0 L301 59 L239 61 L229 80 L268 287 L329 287 L400 136 C448 35 481 -9 575 -9 C609 -9 660 -5 728 2 L728 57 C721 57 715 56 709 56 C635 56 615 85 581 151 L460 386 L676 603 L758 614 L758 671 L489 671 L489 614 L549 607 L554 592 L315 346 L279 346 L328 596 L339 609 L407 614 L407 671 L83 671 Z " />
<glyph glyph-name="L" unicode="L" horiz-adv-x="583" d="M83 671 L83 613 L147 610 L158 597 L58 77 L41 65 L-23 58 L-23 0 L502 0 L544 213 L447 213 L407 81 L387 69 L225 69 L326 596 L345 609 L407 613 L407 671 L83 671 Z " />
<glyph glyph-name="M" unicode="M" horiz-adv-x="986" d="M90 671 L90 613 L161 608 L168 590 L60 85 L45 68 L-23 59 L-23 0 L223 0 L223 59 L160 65 L150 78 L259 597 L347 0 L447 0 L754 603 L663 80 L647 66 L582 59 L582 0 L896 0 L896 59 L833 64 L822 79 L912 592 L927 606 L995 613 L995 671 L692 671 L692 649 L470 218 L409 639 L409 671 L90 671 Z " />
<glyph glyph-name="N" unicode="N" horiz-adv-x="771" d="M83 671 L83 615 L148 611 L162 596 L60 82 L47 66 L-23 59 L-23 0 L230 0 L230 59 L160 66 L152 86 L239 531 L450 0 L598 0 L713 598 L731 610 L798 615 L798 671 L542 671 L542 615 L612 609 L624 595 L542 182 L360 648 L360 671 L83 671 Z " />
<glyph glyph-name="O" unicode="O" horiz-adv-x="780" d="M438 686 C326 686 227 645 152 568 C79 494 36 386 36 279 C36 96 149 -15 325 -15 C438 -15 533 21 607 91 C693 172 738 279 738 403 C738 577 624 686 438 686 L438 686 Z M553 415 C553 320 529 228 491 159 C456 95 403 60 351 60 C274 60 221 129 221 250 C221 359 249 456 293 523 C332 582 376 611 425 611 C505 611 553 543 553 415 L553 415 Z " />
<glyph glyph-name="P" unicode="P" horiz-adv-x="644" d="M85 671 L85 616 L149 611 L160 591 L60 78 L44 65 L-21 59 L-21 0 L310 0 L310 59 L240 63 L228 81 L259 246 C286 243 311 242 333 242 C531 242 646 351 646 495 C646 619 566 671 401 671 L85 671 Z M328 603 C335 603 341 604 347 604 C423 604 462 569 462 500 C462 381 402 310 299 310 C290 310 281 311 272 312 L328 603 Z " />
<glyph glyph-name="Q" unicode="Q" horiz-adv-x="780" d="M553 419 C553 320 526 222 489 158 C451 93 406 60 352 60 C269 60 220 130 220 257 C220 377 259 488 314 552 C347 591 382 610 424 610 C507 610 553 544 553 419 L553 419 Z M506 35 C655 109 737 239 737 395 C737 578 622 686 448 686 C347 686 258 657 189 602 C93 525 36 405 36 278 C36 101 148 -10 336 -12 L364 -54 C416 -130 460 -169 539 -169 C583 -169 649 -153 738 -119 L738 -60 C693 -71 661 -77 641 -77 C577 -77 546 -45 506 35 L506 35 Z " />
<glyph glyph-name="R" unicode="R" horiz-adv-x="715" d="M88 671 L88 614 L151 608 L162 592 L61 78 L44 65 L-19 59 L-19 0 L308 0 L308 59 L237 65 L230 78 L272 293 C315 293 344 282 362 258 C388 224 389 175 401 115 C418 25 466 -10 566 -10 C598 -10 642 -7 697 1 L697 56 C625 56 600 68 584 123 C568 177 558 226 532 267 C508 304 472 326 422 335 C570 349 654 424 654 524 C654 627 580 671 427 671 L88 671 Z M332 605 L341 605 C428 605 469 577 469 513 C469 422 409 358 311 358 C302 358 294 358 285 359 L332 605 Z " />
<glyph glyph-name="S" unicode="S" horiz-adv-x="593" d="M566 647 C496 673 432 687 372 687 C201 687 83 584 83 464 C83 394 124 334 204 295 C301 247 358 233 358 167 C358 105 299 58 201 58 C190 58 173 59 150 61 L135 81 L135 213 L45 213 L5 27 C81 -1 150 -15 213 -15 C402 -15 529 94 529 221 C529 252 518 284 497 311 C466 350 426 365 386 385 C300 427 251 449 251 508 C251 570 303 614 390 614 C402 614 414 614 427 612 L441 596 L445 470 L531 470 L566 647 Z " />
<glyph glyph-name="T" unicode="T" horiz-adv-x="627" d="M81 671 L41 468 L127 468 L168 591 L188 603 L280 603 L182 82 L168 65 L91 60 L91 0 L434 0 L434 60 L361 67 L350 79 L451 603 L544 603 L562 591 L562 468 L642 468 L681 671 L81 671 Z " />
<glyph glyph-name="U" unicode="U" horiz-adv-x="766" d="M81 671 L81 615 L140 609 L156 597 L91 268 C84 234 77 201 77 169 C77 59 168 -15 320 -15 C424 -15 506 12 562 65 C616 116 633 180 649 262 L714 592 L729 607 L795 615 L795 671 L546 671 L546 615 L615 606 L624 588 L554 249 C542 189 531 146 494 119 C462 95 423 82 384 82 C302 82 251 125 251 193 C251 218 256 242 261 267 L325 601 L339 611 L403 615 L403 671 L81 671 Z " />
<glyph glyph-name="V" unicode="V" horiz-adv-x="669" d="M24 671 L24 614 L94 605 L201 0 L334 0 L669 605 L735 614 L735 671 L492 671 L492 614 L554 611 L562 599 L336 183 L269 592 L282 609 L351 614 L351 671 L24 671 Z " />
<glyph glyph-name="W" unicode="W" horiz-adv-x="981" d="M42 671 L42 613 L107 604 L156 0 L285 0 L514 479 L569 0 L697 0 L962 604 L1032 613 L1032 671 L794 671 L794 613 L854 609 L862 596 L696 209 L649 671 L515 671 L303 220 L273 588 L290 609 L356 613 L356 671 L42 671 Z " />
<glyph glyph-name="X" unicode="X" horiz-adv-x="671" d="M51 671 L51 615 L123 606 L254 325 L12 68 L-51 58 L-51 0 L208 0 L208 58 L144 62 L134 76 L292 248 L371 79 L362 62 L296 58 L296 0 L625 0 L625 58 L555 64 L417 360 L656 608 L717 615 L717 671 L467 671 L467 615 L524 611 L531 596 L379 433 L307 593 L312 608 L373 615 L373 671 L51 671 Z " />
<glyph glyph-name="Y" unicode="Y" horiz-adv-x="634" d="M23 671 L23 613 L95 605 L216 251 L184 85 L169 66 L95 59 L95 0 L433 0 L433 59 L360 67 L350 79 L387 271 L638 602 L704 613 L704 671 L451 671 L451 613 L518 605 L526 587 L355 355 L271 592 L280 607 L340 613 L340 671 L23 671 Z " />
<glyph glyph-name="Z" unicode="Z" horiz-adv-x="611" d="M112 671 L72 470 L165 470 L201 593 L218 602 L406 602 L-12 59 L-12 0 L514 0 L556 211 L460 211 L422 84 L404 69 L195 69 L615 615 L612 671 L112 671 Z " />
<glyph glyph-name="bracketleft" unicode="&#x5b;" horiz-adv-x="495" d="M56 -132 L368 -132 L380 -64 L223 -64 L347 640 L504 640 L516 708 L205 708 L56 -132 Z " />
<glyph glyph-name="backslash" unicode="&#x5c;" horiz-adv-x="481" d="M417 -93 L520 -93 L111 671 L8 671 L417 -93 Z " />
<glyph glyph-name="bracketright" unicode="&#x5d;" horiz-adv-x="495" d="M418 708 L106 708 L94 640 L251 640 L127 -64 L-30 -64 L-42 -132 L269 -132 L418 708 Z " />
<glyph glyph-name="asciicircum" unicode="&#x5e;" horiz-adv-x="1000" d="M436 714 L201 438 L260 438 L499 608 L738 438 L797 438 L563 714 L436 714 Z " />
<glyph glyph-name="underscore" unicode="&#x5f;" horiz-adv-x="500" d="M0 -119 L0 -236 L500 -236 L500 -119 L0 -119 Z " />
<glyph glyph-name="grave" unicode="&#x60;" horiz-adv-x="500" d="M147 748 L271 558 L357 558 L296 748 L147 748 Z " />
<glyph glyph-name="a" unicode="a" horiz-adv-x="650" d="M468 478 C419 494 374 507 325 507 C249 507 180 481 132 438 C56 370 19 287 19 185 C19 64 79 -8 175 -8 C234 -8 295 18 359 69 C360 18 391 -8 451 -8 C507 -8 569 5 638 32 L640 84 C611 73 587 67 568 67 C538 67 520 88 520 127 C520 141 523 159 527 181 L593 507 L525 507 L468 478 Z M366 448 L409 387 L363 123 C323 104 294 93 272 93 C222 93 195 129 195 198 C195 347 267 449 353 449 C357 449 362 449 366 448 L366 448 Z " />
<glyph glyph-name="b" unicode="b" horiz-adv-x="627" d="M252 736 L49 688 L49 647 L137 635 L54 160 L30 34 C87 5 155 -10 235 -10 C340 -10 419 16 479 74 C547 139 585 231 585 321 C585 433 522 505 433 505 C383 505 325 482 256 437 L312 736 L252 736 Z M231 46 L201 92 L251 391 C281 405 305 412 326 412 C383 412 413 373 413 297 C413 208 377 123 329 78 C304 55 280 44 253 44 C246 44 239 45 231 46 L231 46 Z " />
<glyph glyph-name="c" unicode="c" horiz-adv-x="497" d="M454 153 C390 112 339 89 293 89 C229 89 190 136 190 219 C190 318 229 405 287 447 L360 318 C432 324 472 361 472 414 C472 473 425 506 335 506 C267 506 201 484 141 442 C64 388 19 299 19 199 C19 69 95 -11 211 -11 C290 -11 370 21 454 82 L454 153 Z " />
<glyph glyph-name="d" unicode="d" horiz-adv-x="660" d="M567 736 L361 687 L361 647 L449 634 L423 490 C384 501 349 506 318 506 C242 506 170 477 119 425 C59 364 22 273 22 184 C22 68 90 -8 180 -8 C236 -8 290 21 356 71 C361 19 394 -8 454 -8 C498 -8 560 6 637 38 L637 87 C606 77 583 72 569 72 C535 72 519 89 519 124 C519 133 521 149 525 171 L625 736 L567 736 Z M368 453 L407 391 L363 123 C326 103 297 93 274 93 C224 93 195 128 195 192 C195 287 228 373 278 425 C297 444 322 454 351 454 C357 454 362 454 368 453 L368 453 Z " />
<glyph glyph-name="e" unicode="e" horiz-adv-x="523" d="M178 227 L191 227 C386 227 489 291 489 390 C489 460 437 506 346 506 C262 506 185 479 129 432 C54 369 16 288 16 198 C16 70 96 -13 216 -13 C289 -13 369 18 461 79 L461 156 C399 110 341 87 293 87 C218 87 178 133 178 220 L178 227 Z M185 279 C206 388 254 446 307 446 C338 446 356 428 356 398 C356 345 292 289 185 279 L185 279 Z " />
<glyph glyph-name="f" unicode="f" horiz-adv-x="373" d="M431 575 C486 591 514 620 514 657 C514 702 467 737 390 737 C260 737 150 644 122 490 L38 452 L38 397 L108 406 L60 81 C47 -8 37 -83 10 -142 L-106 -56 C-150 -71 -172 -100 -172 -136 C-172 -184 -136 -220 -79 -220 C-16 -220 44 -188 101 -126 C175 -46 213 47 231 169 L265 406 L414 406 L414 480 L275 480 C288 549 310 617 340 685 L431 575 Z " />
<glyph glyph-name="g" unicode="g" horiz-adv-x="574" d="M457 469 C404 492 350 502 295 502 C137 502 39 420 39 312 C39 233 89 181 182 167 C155 139 140 108 135 69 C23 25 -32 -21 -32 -86 C-32 -166 49 -218 199 -218 C377 -218 497 -140 497 -49 C497 6 457 33 390 65 L237 136 L250 162 C406 171 496 250 496 359 C496 373 495 389 491 407 L597 407 L597 469 L457 469 Z M343 392 C343 295 298 221 250 221 C223 221 204 244 204 283 C204 375 250 451 295 451 C326 451 343 430 343 392 L343 392 Z M147 24 L266 -28 C312 -48 334 -66 334 -92 C334 -129 292 -161 231 -161 C159 -161 104 -110 104 -57 C104 -29 118 -3 147 24 L147 24 Z " />
<glyph glyph-name="h" unicode="h" horiz-adv-x="664" d="M269 736 L62 691 L63 652 L150 641 L18 0 L185 0 L248 345 C297 378 333 397 360 397 C388 397 408 377 408 343 C408 330 405 308 398 276 L367 128 C363 107 359 88 359 72 C359 21 393 -8 452 -8 C494 -8 557 5 640 32 L640 80 C612 71 590 66 575 66 C540 66 524 84 524 122 C524 136 527 163 536 201 L563 320 C570 352 574 378 574 395 C574 459 527 505 461 505 C410 505 343 470 256 401 L328 736 L269 736 Z " />
<glyph glyph-name="i" unicode="i" horiz-adv-x="361" d="M248 746 C189 746 145 704 145 649 C145 606 177 575 230 575 C289 575 332 616 332 671 C332 719 303 746 248 746 L248 746 Z M228 505 L27 463 L27 417 L113 406 L62 165 C53 122 49 93 49 79 C49 21 81 -7 148 -7 C200 -7 264 10 344 37 L344 86 C308 77 282 72 265 72 C237 72 221 89 221 117 C221 138 224 167 231 202 L291 505 L228 505 Z " />
<glyph glyph-name="j" unicode="j" horiz-adv-x="338" d="M248 746 C189 746 145 704 145 649 C145 606 177 575 230 575 C289 575 332 616 332 671 C332 719 303 746 248 746 L248 746 Z M236 505 L21 463 L21 420 L116 405 L60 56 C46 -33 32 -95 12 -130 L-126 -63 C-156 -75 -175 -105 -175 -142 C-175 -190 -144 -215 -87 -215 C-63 -215 -39 -210 -16 -199 C47 -170 94 -136 119 -111 C163 -67 193 -19 210 38 C227 93 233 141 240 184 L292 505 L236 505 Z " />
<glyph glyph-name="k" unicode="k" horiz-adv-x="627" d="M265 736 L54 687 L57 648 L144 638 L20 0 L180 0 L219 202 L259 252 L304 129 C339 36 359 -9 445 -9 C484 -9 541 1 616 20 L616 66 C591 61 574 58 566 58 C512 58 490 93 456 171 L382 343 L442 389 L480 312 C552 329 591 369 591 424 C591 469 554 509 513 509 C454 509 372 424 232 275 L323 736 L265 736 Z " />
<glyph glyph-name="l" unicode="l" horiz-adv-x="352" d="M262 736 L53 689 L53 648 L142 637 L51 178 C40 124 38 89 38 78 C38 24 76 -11 137 -11 C182 -11 245 7 331 36 L331 84 C297 74 271 69 252 69 C224 69 208 85 208 117 C208 136 213 166 221 205 L322 736 L262 736 Z " />
<glyph glyph-name="m" unicode="m" horiz-adv-x="988" d="M230 505 L32 456 L32 410 L114 402 L38 0 L200 0 L260 355 C302 383 337 398 365 398 C399 398 418 379 418 347 C418 340 415 326 412 308 L353 0 L517 0 L576 353 C619 383 658 398 682 398 C719 398 736 379 736 343 C736 335 734 320 729 298 L689 131 C685 112 682 94 682 76 C682 24 717 -10 773 -10 C820 -10 886 6 969 36 L969 85 C939 76 916 71 901 71 C864 71 852 85 852 120 C852 141 857 176 867 224 L893 344 C897 364 900 380 900 391 C900 459 857 505 789 505 C728 505 657 470 580 403 C576 471 538 505 468 505 C412 505 339 471 262 401 L285 505 L230 505 Z " />
<glyph glyph-name="n" unicode="n" horiz-adv-x="669" d="M230 505 L21 451 L21 410 L107 403 L27 0 L199 0 L257 346 C305 378 339 397 366 397 C394 397 414 377 414 343 C414 330 412 308 405 276 L374 128 C370 107 366 88 366 72 C366 21 399 -8 458 -8 C500 -8 563 5 646 32 L646 80 C618 71 596 66 581 66 C546 66 530 84 530 122 C530 136 533 163 542 201 L570 320 C577 352 580 378 580 395 C580 459 534 505 468 505 C417 505 348 470 260 400 L284 505 L230 505 Z " />
<glyph glyph-name="o" unicode="o" horiz-adv-x="620" d="M330 503 C250 503 172 475 119 429 C52 371 18 295 18 211 C18 70 106 -13 254 -13 C444 -13 573 116 573 289 C573 423 485 503 330 503 L330 503 Z M320 439 C374 439 398 396 398 305 C398 151 341 50 272 50 C215 50 193 95 193 189 C193 342 251 439 320 439 L320 439 Z " />
<glyph glyph-name="p" unicode="p" horiz-adv-x="637" d="M206 74 L260 374 C295 397 325 409 351 409 C398 409 424 374 424 310 C424 164 350 64 258 64 C241 64 224 67 206 74 L206 74 Z M196 12 C228 4 255 -1 279 -1 C461 -1 594 135 594 323 C594 435 535 505 443 505 C386 505 329 479 268 427 L284 505 L222 505 L23 460 L23 416 L104 406 L11 -132 L2 -148 L-65 -168 L-65 -218 L263 -218 L263 -168 L169 -150 L196 12 Z " />
<glyph glyph-name="q" unicode="q" horiz-adv-x="637" d="M463 483 C408 498 361 508 318 508 C237 508 170 479 115 421 C56 358 23 276 23 190 C23 68 84 -6 180 -6 C232 -6 286 19 351 65 L311 -142 L298 -157 L234 -170 L234 -218 L559 -218 L559 -170 L472 -157 L591 508 L530 508 L463 483 Z M369 452 L410 388 L361 114 C324 100 295 92 273 92 C217 92 191 125 191 197 C191 275 217 352 255 401 C283 437 314 453 353 453 C358 453 363 453 369 452 L369 452 Z " />
<glyph glyph-name="r" unicode="r" horiz-adv-x="519" d="M394 304 C477 306 526 351 526 421 C526 476 493 507 442 507 C381 507 326 461 251 368 L277 507 L229 507 L25 456 L25 412 L113 405 L33 0 L197 0 L235 229 C249 314 290 369 364 402 L394 304 Z " />
<glyph glyph-name="s" unicode="s" horiz-adv-x="488" d="M348 331 C417 333 448 366 448 410 C448 469 391 505 284 505 C141 505 46 431 46 335 C46 266 91 233 181 193 C235 169 270 157 270 114 C270 76 237 45 190 45 C168 45 147 49 127 59 L147 151 C120 167 95 174 75 174 C24 174 -6 146 -6 102 C-6 37 68 -13 188 -13 C327 -13 428 70 428 164 C428 224 387 260 300 303 C238 334 198 346 198 389 C198 423 225 448 268 448 C276 448 285 447 294 445 L348 331 Z " />
<glyph glyph-name="t" unicode="t" horiz-adv-x="414" d="M225 623 L141 504 L37 450 L37 407 L109 407 L61 150 C57 127 54 107 54 90 C54 27 94 -9 166 -9 C206 -9 273 6 366 33 L366 90 C324 77 293 70 274 70 C240 70 221 88 221 119 C221 136 223 158 228 185 L270 407 L419 407 L419 481 L283 481 L310 623 L225 623 Z " />
<glyph glyph-name="u" unicode="u" horiz-adv-x="669" d="M223 505 L27 452 L27 414 L108 406 L65 147 C61 124 59 108 59 99 C59 32 101 -12 164 -12 C215 -12 281 21 372 79 C375 18 403 -12 458 -12 C499 -12 565 4 654 36 L654 80 C626 70 605 65 591 65 C556 65 538 83 538 118 C538 135 543 162 550 199 L603 505 L553 505 L437 478 L378 134 C331 113 298 101 274 101 C237 101 221 117 221 155 C221 164 223 178 227 198 L286 505 L223 505 Z " />
<glyph glyph-name="v" unicode="v" horiz-adv-x="551" d="M234 0 C442 208 535 366 535 433 C535 478 505 506 457 506 C430 506 402 497 372 476 L400 300 C360 239 315 179 264 119 L238 415 C231 448 230 478 216 506 L170 506 L-7 462 L-7 423 L82 412 L118 44 L109 0 L234 0 Z " />
<glyph glyph-name="w" unicode="w" horiz-adv-x="856" d="M173 507 L-8 465 L-8 422 L91 407 L107 45 L97 0 L224 0 L411 344 L434 0 L552 0 C728 211 831 339 831 427 C831 476 799 507 746 507 C720 507 695 496 672 476 L700 292 L571 113 L552 493 L401 481 L401 452 L255 176 L244 420 C243 447 238 475 231 507 L173 507 Z " />
<glyph glyph-name="x" unicode="x" horiz-adv-x="565" d="M469 321 C530 339 563 380 563 431 C563 475 535 505 492 505 C430 505 377 450 313 342 C296 400 276 455 251 505 L201 505 L23 451 L23 406 L126 403 C146 352 168 292 193 220 C165 178 131 141 91 109 L48 172 C-11 150 -41 116 -41 70 C-41 25 -10 -8 33 -8 C95 -8 143 52 217 163 C247 38 275 -8 358 -8 C395 -8 453 1 535 19 L535 68 C516 65 500 64 485 64 C431 64 403 85 385 141 L337 289 C362 328 393 361 432 388 L469 321 Z " />
<glyph glyph-name="y" unicode="y" horiz-adv-x="535" d="M151 505 L-16 466 L-16 422 L78 411 L149 32 L226 32 C176 -58 135 -107 93 -115 L16 -47 C-28 -60 -53 -94 -53 -137 C-53 -184 -19 -220 35 -220 C110 -220 190 -155 270 -25 C355 113 402 275 493 409 L564 444 L564 478 L480 505 L438 505 C370 352 319 228 281 137 L242 410 C237 448 228 479 208 505 L151 505 Z " />
<glyph glyph-name="z" unicode="z" horiz-adv-x="509" d="M419 514 L390 450 C310 465 255 510 198 510 C153 510 109 488 73 447 C35 403 16 356 16 318 C16 275 38 248 69 248 C98 248 123 266 145 302 L78 372 C96 382 113 387 129 387 C157 387 182 369 217 339 L297 355 L-28 35 L58 -16 L82 41 C151 41 213 -4 282 -4 C329 -4 372 12 401 38 C446 78 473 138 473 183 C473 232 443 264 403 264 C374 264 351 247 334 213 L409 128 C389 120 371 115 356 115 C314 115 279 133 256 166 L174 142 L506 454 L419 514 Z " />
<glyph glyph-name="braceleft" unicode="&#x7b;" horiz-adv-x="500" d="M500 641 L513 707 C500 707 487 708 475 708 C301 708 227 665 200 522 L187 457 C169 362 135 327 43 327 L28 327 L15 259 L30 259 C99 259 130 238 130 184 C130 169 127 151 123 129 L109 53 C104 28 101 7 101 -9 C101 -104 168 -133 319 -133 L350 -133 L362 -67 C289 -67 256 -46 256 4 C256 18 258 34 262 54 L275 118 C278 135 280 152 280 167 C280 240 234 283 143 293 C257 306 323 364 343 469 L352 511 C370 603 397 637 500 641 L500 641 Z " />
<glyph glyph-name="bar" unicode="&#x7c;" horiz-adv-x="500" d="M192 764 L192 -236 L309 -236 L309 764 L192 764 Z " />
<glyph glyph-name="braceright" unicode="&#x7d;" horiz-adv-x="500" d="M125 707 L112 641 C184 639 218 617 218 568 C218 553 214 534 210 511 L202 469 C199 452 197 435 197 420 C197 347 244 303 334 293 C221 281 154 224 134 118 L121 54 C104 -34 73 -66 -25 -67 L-38 -133 C-25 -133 -13 -134 -1 -134 C174 -134 247 -90 275 53 L290 129 C308 223 341 259 434 259 L449 259 L462 327 L447 327 C378 327 347 348 347 402 C347 418 350 436 354 457 L366 522 C371 547 374 568 374 584 C374 679 307 707 157 707 L125 707 Z " />
<glyph glyph-name="asciitilde" unicode="&#x7e;" horiz-adv-x="833" d="M747 400 C681 352 624 326 566 326 C514 326 468 346 420 362 C377 376 332 390 276 390 C220 390 158 366 87 320 L87 196 C157 246 215 273 274 273 C342 273 407 248 479 223 C504 214 533 209 563 209 C623 209 683 232 747 276 L747 400 Z " />
<glyph glyph-name="exclamdown" unicode="&#xa1;" horiz-adv-x="343" d="M3 -60 C-5 -81 -9 -99 -9 -113 C-9 -162 21 -188 81 -188 C157 -188 190 -145 190 -55 L190 274 L133 274 L3 -60 Z M179 313 C231 313 274 355 274 409 C274 462 230 503 179 503 C127 503 84 461 84 409 C84 356 126 313 179 313 L179 313 Z " />
<glyph glyph-name="cent" unicode="&#xa2;" horiz-adv-x="639" d="M413 618 L393 519 C182 513 52 395 52 229 C52 101 138 17 291 1 L270 -109 L332 -109 L354 0 C411 5 464 14 514 28 L546 183 L471 183 L434 78 C411 69 388 64 366 62 L444 458 C463 455 481 449 498 441 L500 334 L569 334 L601 481 C562 500 514 511 455 518 L474 618 L413 618 Z M304 64 C244 77 215 125 215 206 C215 348 284 445 380 456 L304 64 Z " />
<glyph glyph-name="sterling" unicode="&#xa3;" horiz-adv-x="639" d="M-1 0 L528 0 L552 125 L308 125 C265 125 219 122 171 116 L166 125 C251 164 294 213 302 294 L479 294 L495 366 L310 366 C313 533 353 618 430 618 C434 618 437 617 441 617 L477 471 C495 465 510 462 526 462 C573 462 608 498 608 551 C608 624 539 680 423 680 C255 680 152 568 144 366 L85 366 L69 294 L141 294 C134 167 106 107 19 94 L-1 0 Z " />
<glyph glyph-name="currency" unicode="&#xa4;" horiz-adv-x="606" d="M87 705 L30 648 L128 548 C105 515 93 476 93 432 C93 388 105 350 128 316 L30 217 L87 159 L186 258 C222 233 259 222 304 222 C349 222 387 233 422 258 L520 159 L578 217 L480 316 C503 351 514 390 514 432 C514 475 503 513 480 548 L578 648 L520 705 L422 607 C388 631 348 643 303 643 C256 643 218 629 186 607 L87 705 Z M304 559 C374 559 430 501 430 432 C430 362 374 306 304 306 C233 306 177 362 177 432 C177 501 234 559 304 559 L304 559 Z " />
<glyph glyph-name="yen" unicode="&#xa5;" horiz-adv-x="671" d="M715 671 L485 671 L485 616 L537 604 L541 586 L377 360 L289 595 L301 609 L364 616 L364 671 L45 671 L45 616 L106 603 L170 434 L45 434 L45 376 L196 376 L228 289 L18 289 L18 231 L238 231 L211 78 L189 63 L116 58 L116 0 L458 0 L458 58 L391 63 L375 78 L402 231 L616 231 L616 289 L411 289 L477 376 L648 376 L648 434 L523 434 L651 604 L715 616 L715 671 Z " />
<glyph glyph-name="brokenbar" unicode="&#xa6;" horiz-adv-x="500" d="M192 699 L192 329 L309 329 L309 699 L192 699 Z M192 199 L192 -171 L309 -171 L309 199 L192 199 Z " />
<glyph glyph-name="section" unicode="&#xa7;" horiz-adv-x="500" d="M-25 -109 C29 -132 86 -143 149 -143 C303 -143 394 -63 394 34 C394 77 368 107 316 144 C412 181 468 258 468 330 C468 393 432 434 355 476 C283 516 236 529 236 578 C236 621 279 661 340 661 C368 661 395 652 422 635 L417 551 L478 551 L503 695 C444 712 390 721 339 721 C184 721 91 646 91 552 C91 507 114 474 165 443 C68 405 17 339 17 260 C17 221 29 189 54 164 C92 126 137 109 176 88 C225 61 252 42 252 4 C252 -40 208 -82 145 -82 C113 -82 85 -72 63 -58 L67 35 L0 35 L-25 -109 Z M222 406 C311 362 356 324 356 282 C356 244 325 210 262 181 C171 227 125 261 125 311 C125 350 159 386 222 406 L222 406 Z " />
<glyph glyph-name="dieresis" unicode="&#xa8;" horiz-adv-x="500" d="M188 729 C146 729 112 693 112 648 C112 604 145 568 188 568 C229 568 264 604 264 648 C264 693 229 729 188 729 L188 729 Z M416 729 C374 729 339 693 339 648 C339 604 373 568 416 568 C457 568 492 604 492 648 C492 693 457 729 416 729 L416 729 Z " />
<glyph glyph-name="copyright" unicode="&#xa9;" horiz-adv-x="900" d="M452 733 C348 733 246 690 173 616 C99 541 58 444 58 340 C58 234 99 137 174 62 C248 -12 347 -54 446 -54 C554 -54 650 -15 724 58 C802 134 845 236 845 336 C845 442 803 544 732 616 C658 690 555 733 452 733 L452 733 Z M453 685 C541 685 629 648 693 584 C756 521 793 432 793 340 C793 250 757 164 692 97 C628 31 544 -4 452 -4 C360 -4 278 31 211 97 C145 162 111 246 111 340 C111 432 146 516 211 583 C275 648 362 685 453 685 L453 685 Z M616 128 L616 254 L554 254 L537 167 L526 157 C513 155 501 154 491 154 C404 154 343 222 343 340 C343 452 403 522 488 522 C501 522 513 520 525 518 L537 507 L553 424 L616 424 L616 547 C572 565 522 574 466 574 C314 574 211 471 211 339 C211 204 314 103 461 103 C514 103 566 111 616 128 L616 128 Z " />
<glyph glyph-name="ordfeminine" unicode="&#xaa;" horiz-adv-x="488" d="M394 668 C359 679 326 689 289 689 C154 689 55 592 55 459 C55 376 103 321 177 321 C222 321 268 338 313 372 C314 339 339 321 385 321 C428 321 477 330 531 350 L531 394 C508 385 489 381 471 381 C454 381 441 394 441 419 C441 429 443 442 446 456 L493 689 L436 689 L394 668 Z M315 640 L346 600 L314 418 C286 405 266 399 254 399 C215 399 197 423 197 474 C197 572 246 641 305 641 C309 641 312 640 315 640 L315 640 Z " />
<glyph glyph-name="guillemotleft" unicode="&#xab;" horiz-adv-x="458" d="M237 438 L23 285 L7 195 L167 43 L185 144 L99 240 L219 337 L237 438 Z M442 438 L228 285 L212 195 L372 43 L390 144 L304 240 L424 337 L442 438 Z " />
<glyph glyph-name="logicalnot" unicode="&#xac;" horiz-adv-x="833" d="M124 423 L124 312 L597 312 L597 178 L709 178 L709 423 L124 423 Z " />
<glyph glyph-name="registered" unicode="&#xae;" horiz-adv-x="900" d="M453 685 C541 685 629 648 693 584 C756 521 793 432 793 340 C793 250 757 164 692 97 C628 31 544 -4 452 -4 C360 -4 278 31 211 97 C145 162 111 246 111 340 C111 432 146 516 211 583 C275 648 362 685 453 685 L453 685 Z M452 733 C348 733 246 690 173 616 C99 541 58 444 58 340 C58 234 99 137 174 62 C248 -12 347 -54 446 -54 C554 -54 650 -15 724 58 C802 134 845 236 845 336 C845 442 803 544 732 616 C658 690 555 733 452 733 L452 733 Z M244 558 L244 521 L284 518 L296 508 L296 173 L284 162 L244 158 L244 120 L462 120 L462 158 L419 161 L409 173 L409 311 L415 311 C470 311 485 283 502 223 C524 146 545 116 636 116 C654 116 677 117 708 120 L708 159 L703 159 C661 159 646 171 632 207 C605 275 592 324 514 338 C595 349 636 388 636 450 C636 520 584 558 482 558 L244 558 Z M409 514 L438 514 C487 514 517 484 517 437 C517 382 485 354 425 354 C420 354 414 355 409 355 L409 514 Z " />
<glyph glyph-name="macron" unicode="&#xaf;" horiz-adv-x="500" d="M137 683 L121 600 L482 600 L498 683 L137 683 Z " />
<glyph glyph-name="degree" unicode="&#xb0;" horiz-adv-x="329" d="M165 713 C85 713 21 649 21 568 C21 488 84 424 164 424 C245 424 309 490 309 568 C309 648 245 713 165 713 L165 713 Z M255 569 C255 519 216 478 165 478 C115 478 74 519 74 569 C74 619 115 659 165 659 C215 659 255 619 255 569 L255 569 Z " />
<glyph glyph-name="plusminus" unicode="&#xb1;" horiz-adv-x="833" d="M458 589 L375 589 L375 426 L124 426 L124 345 L375 345 L375 182 L458 182 L458 345 L709 345 L709 426 L458 426 L458 589 Z M709 89 L124 89 L124 7 L709 7 L709 89 Z " />
<glyph glyph-name="twosuperior" unicode="&#xb2;" horiz-adv-x="403" d="M149 524 L169 623 C173 623 178 624 181 624 C229 624 253 602 253 560 C253 482 169 410 9 311 L9 258 L332 258 L358 389 L303 389 L282 332 L110 332 C281 408 366 483 366 563 C366 627 315 669 228 669 C169 669 118 652 84 622 C61 603 49 580 49 562 C49 533 69 516 103 516 C115 516 131 519 149 524 L149 524 Z " />
<glyph glyph-name="threesuperior" unicode="&#xb3;" horiz-adv-x="403" d="M158 542 L175 627 L181 627 C231 627 259 605 259 568 C259 518 219 487 147 487 C141 487 135 487 128 488 L117 435 C132 438 147 440 160 440 C212 440 238 419 238 380 C238 329 199 293 147 293 C138 293 127 295 113 298 L108 375 C97 382 84 385 69 385 C33 385 9 361 9 331 C9 287 62 250 144 250 C270 250 352 311 352 388 C352 438 313 467 235 472 C324 485 372 527 372 579 C372 632 323 668 236 668 C132 668 65 621 65 574 C65 548 83 532 115 532 C129 532 143 535 158 542 L158 542 Z " />
<glyph glyph-name="acute" unicode="&#xb4;" horiz-adv-x="500" d="M377 748 L242 558 L328 558 L526 748 L377 748 Z " />
<glyph glyph-name="mu" unicode="&#xb5;" horiz-adv-x="602" d="M107 93 C114 26 155 -10 220 -10 C277 -10 318 21 342 85 C347 20 377 -10 435 -10 C481 -10 516 9 543 50 C568 87 579 129 579 143 C579 154 571 162 565 162 C545 162 538 136 521 111 C510 95 494 86 477 86 C455 86 441 102 441 131 C441 144 443 159 447 176 L501 432 L359 432 L305 180 C289 107 263 70 221 70 C191 70 171 92 171 128 C171 139 174 159 181 189 L233 432 L90 432 L37 183 C1 12 -48 -93 -48 -148 C-48 -183 -23 -208 14 -208 C91 -208 80 -110 107 93 L107 93 Z " />
<glyph glyph-name="paragraph" unicode="&#xb6;" horiz-adv-x="500" d="M278 243 L278 616 L347 616 L347 -79 L412 -79 L412 611 L475 621 L475 671 L272 671 C95 671 12 609 12 455 C12 312 95 243 264 243 L278 243 Z " />
<glyph glyph-name="periodcentered" unicode="&#xb7;" horiz-adv-x="322" d="M160 431 C108 431 66 389 66 335 C66 282 109 241 160 241 C212 241 256 283 256 335 C256 388 213 431 160 431 L160 431 Z " />
<glyph glyph-name="cedilla" unicode="&#xb8;" horiz-adv-x="500" d="M156 4 L134 -112 C141 -111 148 -110 154 -110 C179 -110 192 -119 192 -133 C192 -156 172 -171 136 -171 C119 -171 97 -167 68 -162 L56 -220 C85 -227 112 -232 139 -232 C233 -232 292 -176 292 -110 C292 -68 267 -48 218 -48 L207 -48 L217 4 L156 4 Z " />
<glyph glyph-name="onesuperior" unicode="&#xb9;" horiz-adv-x="403" d="M51 258 L308 258 L308 294 L241 297 L234 308 L307 665 L247 665 L92 620 L92 586 L191 596 L131 308 L121 298 L51 294 L51 258 Z " />
<glyph glyph-name="ordmasculine" unicode="&#xba;" horiz-adv-x="465" d="M291 686 C155 686 54 595 54 477 C54 379 123 317 238 317 C382 317 479 409 479 530 C479 627 412 686 291 686 L291 686 Z M283 634 C321 634 339 603 339 540 C339 436 300 369 252 369 C213 369 195 399 195 463 C195 569 235 634 283 634 L283 634 Z " />
<glyph glyph-name="guillemotright" unicode="&#xbb;" horiz-adv-x="458" d="M50 438 L32 337 L118 240 L-2 144 L-20 43 L194 195 L210 285 L50 438 Z M255 438 L237 337 L323 240 L203 144 L185 43 L399 195 L415 285 L255 438 Z " />
<glyph glyph-name="onequarter" unicode="&#xbc;" horiz-adv-x="990" d="M51 258 L308 258 L308 294 L241 297 L234 308 L307 665 L247 665 L92 620 L92 586 L191 596 L131 308 L121 298 L51 294 L51 258 Z M688 671 L269 0 L349 0 L769 671 L688 671 Z M856 406 L598 155 L585 98 L784 98 L761 -17 L858 -17 L882 98 L955 98 L966 155 L893 155 L945 406 L856 406 Z M831 313 L796 155 L670 155 L831 313 Z " />
<glyph glyph-name="onehalf" unicode="&#xbd;" horiz-adv-x="990" d="M51 258 L308 258 L308 294 L241 297 L234 308 L307 665 L247 665 L92 620 L92 586 L191 596 L131 308 L121 298 L51 294 L51 258 Z M688 671 L269 0 L349 0 L769 671 L688 671 Z M737 266 L757 365 C761 365 766 366 769 366 C817 366 841 344 841 302 C841 224 757 152 597 53 L597 0 L920 0 L946 131 L891 131 L870 74 L698 74 C869 150 954 225 954 305 C954 369 903 411 816 411 C757 411 706 394 672 364 C649 345 637 322 637 304 C637 275 657 258 691 258 C703 258 719 261 737 266 L737 266 Z " />
<glyph glyph-name="threequarters" unicode="&#xbe;" horiz-adv-x="990" d="M158 542 L175 627 L181 627 C231 627 259 605 259 568 C259 518 219 487 147 487 C141 487 135 487 128 488 L117 435 C132 438 147 440 160 440 C212 440 238 419 238 380 C238 329 199 293 147 293 C138 293 127 295 113 298 L108 375 C97 382 84 385 69 385 C33 385 9 361 9 331 C9 287 62 250 144 250 C270 250 352 311 352 388 C352 438 313 467 235 472 C324 485 372 527 372 579 C372 632 323 668 236 668 C132 668 65 621 65 574 C65 548 83 532 115 532 C129 532 143 535 158 542 L158 542 Z M688 671 L269 0 L349 0 L769 671 L688 671 Z M856 406 L598 155 L585 98 L784 98 L761 -17 L858 -17 L882 98 L955 98 L966 155 L893 155 L945 406 L856 406 Z M831 313 L796 155 L670 155 L831 313 Z " />
<glyph glyph-name="questiondown" unicode="&#xbf;" horiz-adv-x="519" d="M240 218 C48 173 -51 84 -51 -36 C-51 -131 27 -187 170 -187 C315 -187 407 -116 407 -41 C407 -6 379 12 328 12 C320 12 311 12 302 11 L231 -116 C158 -115 121 -85 121 -28 C121 55 184 122 306 159 L330 282 L252 282 L240 218 Z M307 313 C359 313 401 355 401 409 C401 462 358 503 307 503 C255 503 211 461 211 409 C211 356 254 313 307 313 L307 313 Z " />
<glyph glyph-name="Agrave" unicode="&#xc0;" horiz-adv-x="687" d="M347 678 L-2 67 L-61 59 L-61 0 L177 0 L177 59 L117 64 L106 79 L186 224 L403 224 L427 82 L412 66 L347 59 L347 0 L664 0 L664 59 L595 69 L489 678 L347 678 Z M352 528 L391 291 L224 291 L352 528 Z M252 890 L385 734 L477 734 L408 890 L252 890 Z " />
<glyph glyph-name="Aacute" unicode="&#xc1;" horiz-adv-x="687" d="M347 678 L-2 67 L-61 59 L-61 0 L177 0 L177 59 L117 64 L106 79 L186 224 L403 224 L427 82 L412 66 L347 59 L347 0 L664 0 L664 59 L595 69 L489 678 L347 678 Z M352 528 L391 291 L224 291 L352 528 Z M486 890 L355 734 L452 734 L647 890 L486 890 Z " />
<glyph glyph-name="Acircumflex" unicode="&#xc2;" horiz-adv-x="687" d="M347 678 L-2 67 L-61 59 L-61 0 L177 0 L177 59 L117 64 L106 79 L186 224 L403 224 L427 82 L412 66 L347 59 L347 0 L664 0 L664 59 L595 69 L489 678 L347 678 Z M352 528 L391 291 L224 291 L352 528 Z M387 890 L244 734 L348 734 L425 815 L472 734 L577 734 L495 890 L387 890 Z " />
<glyph glyph-name="Atilde" unicode="&#xc3;" horiz-adv-x="687" d="M347 678 L-2 67 L-61 59 L-61 0 L177 0 L177 59 L117 64 L106 79 L186 224 L403 224 L427 82 L412 66 L347 59 L347 0 L664 0 L664 59 L595 69 L489 678 L347 678 Z M352 528 L391 291 L224 291 L352 528 Z M535 895 C528 861 515 846 493 846 C461 846 420 884 363 884 C297 884 258 838 247 744 L315 744 C322 777 338 794 358 794 C385 794 426 754 488 754 C552 754 590 801 602 895 L535 895 Z " />
<glyph glyph-name="Adieresis" unicode="&#xc4;" horiz-adv-x="687" d="M347 678 L-2 67 L-61 59 L-61 0 L177 0 L177 59 L117 64 L106 79 L186 224 L403 224 L427 82 L412 66 L347 59 L347 0 L664 0 L664 59 L595 69 L489 678 L347 678 Z M352 528 L391 291 L224 291 L352 528 Z M535 900 C493 900 458 864 458 819 C458 775 492 739 535 739 C576 739 611 775 611 819 C611 864 576 900 535 900 L535 900 Z M307 900 C265 900 231 864 231 819 C231 775 264 739 307 739 C348 739 383 775 383 819 C383 864 348 900 307 900 L307 900 Z " />
<glyph glyph-name="Aring" unicode="&#xc5;" horiz-adv-x="687" d="M347 678 L-2 67 L-61 59 L-61 0 L177 0 L177 59 L117 64 L106 79 L186 224 L403 224 L427 82 L412 66 L347 59 L347 0 L664 0 L664 59 L595 69 L489 678 L347 678 Z M352 528 L391 291 L224 291 L352 528 Z M426 963 C359 963 307 910 307 843 C307 777 359 724 426 724 C493 724 546 777 546 843 C546 910 493 963 426 963 L426 963 Z M426 903 C460 903 487 877 487 844 C487 811 459 783 426 783 C394 783 367 811 367 844 C367 877 394 903 426 903 L426 903 Z " />
<glyph glyph-name="AE" unicode="&#xc6;" horiz-adv-x="951" d="M302 671 L302 614 L369 607 L379 593 L-20 71 L-95 56 L-95 0 L159 0 L159 56 L99 64 L91 80 L215 248 L422 248 L390 83 L372 65 L309 56 L309 0 L848 0 L890 194 L802 194 L762 82 L746 69 L550 69 L597 310 L684 310 L697 296 L700 222 L765 222 L812 466 L742 466 L717 395 L702 378 L608 378 L653 604 L816 604 L829 587 L832 502 L910 502 L948 671 L302 671 Z M497 626 L437 316 L267 316 L497 626 Z " />
<glyph glyph-name="Ccedilla" unicode="&#xc7;" horiz-adv-x="671" d="M677 651 C601 673 531 685 468 685 C348 685 242 644 160 567 C78 490 33 389 33 283 C33 102 154 -15 357 -15 C414 -15 484 -3 567 22 L605 211 L513 211 L463 79 L442 60 C432 59 422 59 412 59 C289 59 222 135 222 274 C222 479 334 610 494 610 C508 610 522 609 537 607 L550 588 L552 468 L641 468 L677 651 Z M305 0 L282 -116 C289 -115 296 -114 302 -114 C327 -114 341 -123 341 -137 C341 -160 320 -175 284 -175 C267 -175 245 -171 216 -166 L205 -224 C234 -231 261 -236 288 -236 C382 -236 440 -180 440 -114 C440 -72 416 -52 367 -52 L356 -52 L366 0 L305 0 Z " />
<glyph glyph-name="Egrave" unicode="&#xc8;" horiz-adv-x="639" d="M84 671 L84 612 L150 606 L160 589 L60 81 L48 65 L-21 58 L-21 0 L539 0 L577 196 L490 196 L447 81 L434 69 L226 69 L274 312 L372 312 L386 298 L386 221 L452 221 L499 467 L430 467 L402 393 L387 379 L287 379 L330 604 L501 604 L514 589 L517 504 L596 504 L629 671 L84 671 Z M228 890 L361 734 L453 734 L384 890 L228 890 Z " />
<glyph glyph-name="Eacute" unicode="&#xc9;" horiz-adv-x="639" d="M84 671 L84 612 L150 606 L160 589 L60 81 L48 65 L-21 58 L-21 0 L539 0 L577 196 L490 196 L447 81 L434 69 L226 69 L274 312 L372 312 L386 298 L386 221 L452 221 L499 467 L430 467 L402 393 L387 379 L287 379 L330 604 L501 604 L514 589 L517 504 L596 504 L629 671 L84 671 Z M462 890 L331 734 L428 734 L623 890 L462 890 Z " />
<glyph glyph-name="Ecircumflex" unicode="&#xca;" horiz-adv-x="639" d="M84 671 L84 612 L150 606 L160 589 L60 81 L48 65 L-21 58 L-21 0 L539 0 L577 196 L490 196 L447 81 L434 69 L226 69 L274 312 L372 312 L386 298 L386 221 L452 221 L499 467 L430 467 L402 393 L387 379 L287 379 L330 604 L501 604 L514 589 L517 504 L596 504 L629 671 L84 671 Z M363 890 L220 734 L324 734 L401 815 L448 734 L553 734 L471 890 L363 890 Z " />
<glyph glyph-name="Edieresis" unicode="&#xcb;" horiz-adv-x="639" d="M84 671 L84 612 L150 606 L160 589 L60 81 L48 65 L-21 58 L-21 0 L539 0 L577 196 L490 196 L447 81 L434 69 L226 69 L274 312 L372 312 L386 298 L386 221 L452 221 L499 467 L430 467 L402 393 L387 379 L287 379 L330 604 L501 604 L514 589 L517 504 L596 504 L629 671 L84 671 Z M511 900 C469 900 434 864 434 819 C434 775 468 739 511 739 C552 739 587 775 587 819 C587 864 552 900 511 900 L511 900 Z M283 900 C241 900 207 864 207 819 C207 775 240 739 283 739 C324 739 359 775 359 819 C359 864 324 900 283 900 L283 900 Z " />
<glyph glyph-name="Igrave" unicode="&#xcc;" horiz-adv-x="407" d="M88 671 L88 614 L156 611 L167 595 L68 80 L53 64 L-19 59 L-19 0 L315 0 L315 59 L246 62 L234 76 L334 597 L351 610 L421 614 L421 671 L88 671 Z M112 890 L245 734 L337 734 L268 890 L112 890 Z " />
<glyph glyph-name="Iacute" unicode="&#xcd;" horiz-adv-x="407" d="M88 671 L88 614 L156 611 L167 595 L68 80 L53 64 L-19 59 L-19 0 L315 0 L315 59 L246 62 L234 76 L334 597 L351 610 L421 614 L421 671 L88 671 Z M346 890 L215 734 L312 734 L507 890 L346 890 Z " />
<glyph glyph-name="Icircumflex" unicode="&#xce;" horiz-adv-x="407" d="M88 671 L88 614 L156 611 L167 595 L68 80 L53 64 L-19 59 L-19 0 L315 0 L315 59 L246 62 L234 76 L334 597 L351 610 L421 614 L421 671 L88 671 Z M247 890 L104 734 L208 734 L285 815 L332 734 L437 734 L355 890 L247 890 Z " />
<glyph glyph-name="Idieresis" unicode="&#xcf;" horiz-adv-x="407" d="M88 671 L88 614 L156 611 L167 595 L68 80 L53 64 L-19 59 L-19 0 L315 0 L315 59 L246 62 L234 76 L334 597 L351 610 L421 614 L421 671 L88 671 Z M395 900 C353 900 318 864 318 819 C318 775 352 739 395 739 C436 739 471 775 471 819 C471 864 436 900 395 900 L395 900 Z M167 900 C125 900 91 864 91 819 C91 775 124 739 167 739 C208 739 243 775 243 819 C243 864 208 900 167 900 L167 900 Z " />
<glyph glyph-name="Eth" unicode="&#xd0;" horiz-adv-x="762" d="M83 671 L83 614 L150 608 L160 593 L121 391 L44 391 L27 316 L106 316 L61 80 L48 65 L-23 60 L-23 0 L275 0 C412 0 510 25 590 100 C677 181 726 294 726 410 C726 584 620 671 407 671 L83 671 Z M275 316 L388 316 L404 391 L290 391 L332 606 C342 607 352 607 361 607 C477 607 538 544 538 420 C538 282 483 163 409 108 C370 79 321 66 259 66 C249 66 238 66 227 67 L275 316 Z " />
<glyph glyph-name="Ntilde" unicode="&#xd1;" horiz-adv-x="771" d="M83 671 L83 615 L148 611 L162 596 L60 82 L47 66 L-23 59 L-23 0 L230 0 L230 59 L160 66 L152 86 L239 531 L450 0 L598 0 L713 598 L731 610 L798 615 L798 671 L542 671 L542 615 L612 609 L624 595 L542 182 L360 648 L360 671 L83 671 Z M577 895 C570 861 557 846 535 846 C503 846 462 884 405 884 C339 884 300 838 289 744 L357 744 C364 777 380 794 400 794 C427 794 468 754 530 754 C594 754 632 801 644 895 L577 895 Z " />
<glyph glyph-name="Ograve" unicode="&#xd2;" horiz-adv-x="780" d="M438 686 C326 686 227 645 152 568 C79 494 36 386 36 279 C36 96 149 -15 325 -15 C438 -15 533 21 607 91 C693 172 738 279 738 403 C738 577 624 686 438 686 L438 686 Z M553 415 C553 320 529 228 491 159 C456 95 403 60 351 60 C274 60 221 129 221 250 C221 359 249 456 293 523 C332 582 376 611 425 611 C505 611 553 543 553 415 L553 415 Z M298 890 L431 734 L523 734 L454 890 L298 890 Z " />
<glyph glyph-name="Oacute" unicode="&#xd3;" horiz-adv-x="780" d="M438 686 C326 686 227 645 152 568 C79 494 36 386 36 279 C36 96 149 -15 325 -15 C438 -15 533 21 607 91 C693 172 738 279 738 403 C738 577 624 686 438 686 L438 686 Z M553 415 C553 320 529 228 491 159 C456 95 403 60 351 60 C274 60 221 129 221 250 C221 359 249 456 293 523 C332 582 376 611 425 611 C505 611 553 543 553 415 L553 415 Z M532 890 L401 734 L498 734 L693 890 L532 890 Z " />
<glyph glyph-name="Ocircumflex" unicode="&#xd4;" horiz-adv-x="780" d="M438 686 C326 686 227 645 152 568 C79 494 36 386 36 279 C36 96 149 -15 325 -15 C438 -15 533 21 607 91 C693 172 738 279 738 403 C738 577 624 686 438 686 L438 686 Z M553 415 C553 320 529 228 491 159 C456 95 403 60 351 60 C274 60 221 129 221 250 C221 359 249 456 293 523 C332 582 376 611 425 611 C505 611 553 543 553 415 L553 415 Z M433 890 L290 734 L394 734 L471 815 L518 734 L623 734 L541 890 L433 890 Z " />
<glyph glyph-name="Otilde" unicode="&#xd5;" horiz-adv-x="780" d="M438 686 C326 686 227 645 152 568 C79 494 36 386 36 279 C36 96 149 -15 325 -15 C438 -15 533 21 607 91 C693 172 738 279 738 403 C738 577 624 686 438 686 L438 686 Z M553 415 C553 320 529 228 491 159 C456 95 403 60 351 60 C274 60 221 129 221 250 C221 359 249 456 293 523 C332 582 376 611 425 611 C505 611 553 543 553 415 L553 415 Z M581 895 C574 861 561 846 539 846 C507 846 466 884 409 884 C343 884 304 838 293 744 L361 744 C368 777 384 794 404 794 C431 794 472 754 534 754 C598 754 636 801 648 895 L581 895 Z " />
<glyph glyph-name="Odieresis" unicode="&#xd6;" horiz-adv-x="780" d="M438 686 C326 686 227 645 152 568 C79 494 36 386 36 279 C36 96 149 -15 325 -15 C438 -15 533 21 607 91 C693 172 738 279 738 403 C738 577 624 686 438 686 L438 686 Z M553 415 C553 320 529 228 491 159 C456 95 403 60 351 60 C274 60 221 129 221 250 C221 359 249 456 293 523 C332 582 376 611 425 611 C505 611 553 543 553 415 L553 415 Z M581 900 C539 900 504 864 504 819 C504 775 538 739 581 739 C622 739 657 775 657 819 C657 864 622 900 581 900 L581 900 Z M353 900 C311 900 277 864 277 819 C277 775 310 739 353 739 C394 739 429 775 429 819 C429 864 394 900 353 900 L353 900 Z " />
<glyph glyph-name="multiply" unicode="&#xd7;" horiz-adv-x="833" d="M421 356 L197 580 L140 523 L364 298 L140 74 L197 16 L421 241 L646 16 L703 74 L479 298 L703 523 L646 580 L421 356 Z " />
<glyph glyph-name="Oslash" unicode="&#xd8;" horiz-adv-x="780" d="M223 161 C216 195 212 228 212 259 C212 362 242 461 288 527 C329 587 376 617 429 617 C466 617 495 603 520 576 L223 161 Z M251 103 L550 520 C559 491 563 460 563 425 C563 201 461 55 349 55 C311 55 279 71 251 103 L251 103 Z M651 757 L580 660 C538 678 491 686 438 686 C327 686 227 645 152 568 C79 494 36 386 36 279 C36 176 68 99 136 44 L67 -51 L111 -88 L184 16 C225 -4 272 -15 325 -15 C438 -15 533 21 607 91 C693 172 738 279 738 403 C738 504 703 579 631 631 L698 725 L651 757 Z " />
<glyph glyph-name="Ugrave" unicode="&#xd9;" horiz-adv-x="766" d="M81 671 L81 615 L140 609 L156 597 L91 268 C84 234 77 201 77 169 C77 59 168 -15 320 -15 C424 -15 506 12 562 65 C616 116 633 180 649 262 L714 592 L729 607 L795 615 L795 671 L546 671 L546 615 L615 606 L624 588 L554 249 C542 189 531 146 494 119 C462 95 423 82 384 82 C302 82 251 125 251 193 C251 218 256 242 261 267 L325 601 L339 611 L403 615 L403 671 L81 671 Z M291 890 L424 734 L516 734 L447 890 L291 890 Z " />
<glyph glyph-name="Uacute" unicode="&#xda;" horiz-adv-x="766" d="M81 671 L81 615 L140 609 L156 597 L91 268 C84 234 77 201 77 169 C77 59 168 -15 320 -15 C424 -15 506 12 562 65 C616 116 633 180 649 262 L714 592 L729 607 L795 615 L795 671 L546 671 L546 615 L615 606 L624 588 L554 249 C542 189 531 146 494 119 C462 95 423 82 384 82 C302 82 251 125 251 193 C251 218 256 242 261 267 L325 601 L339 611 L403 615 L403 671 L81 671 Z M525 890 L394 734 L491 734 L686 890 L525 890 Z " />
<glyph glyph-name="Ucircumflex" unicode="&#xdb;" horiz-adv-x="766" d="M81 671 L81 615 L140 609 L156 597 L91 268 C84 234 77 201 77 169 C77 59 168 -15 320 -15 C424 -15 506 12 562 65 C616 116 633 180 649 262 L714 592 L729 607 L795 615 L795 671 L546 671 L546 615 L615 606 L624 588 L554 249 C542 189 531 146 494 119 C462 95 423 82 384 82 C302 82 251 125 251 193 C251 218 256 242 261 267 L325 601 L339 611 L403 615 L403 671 L81 671 Z M426 890 L283 734 L387 734 L464 815 L511 734 L616 734 L534 890 L426 890 Z " />
<glyph glyph-name="Udieresis" unicode="&#xdc;" horiz-adv-x="766" d="M81 671 L81 615 L140 609 L156 597 L91 268 C84 234 77 201 77 169 C77 59 168 -15 320 -15 C424 -15 506 12 562 65 C616 116 633 180 649 262 L714 592 L729 607 L795 615 L795 671 L546 671 L546 615 L615 606 L624 588 L554 249 C542 189 531 146 494 119 C462 95 423 82 384 82 C302 82 251 125 251 193 C251 218 256 242 261 267 L325 601 L339 611 L403 615 L403 671 L81 671 Z M574 900 C532 900 497 864 497 819 C497 775 531 739 574 739 C615 739 650 775 650 819 C650 864 615 900 574 900 L574 900 Z M346 900 C304 900 270 864 270 819 C270 775 303 739 346 739 C387 739 422 775 422 819 C422 864 387 900 346 900 L346 900 Z " />
<glyph glyph-name="Yacute" unicode="&#xdd;" horiz-adv-x="634" d="M23 671 L23 613 L95 605 L216 251 L184 85 L169 66 L95 59 L95 0 L433 0 L433 59 L360 67 L350 79 L387 271 L638 602 L704 613 L704 671 L451 671 L451 613 L518 605 L526 587 L355 355 L271 592 L280 607 L340 613 L340 671 L23 671 Z M459 890 L328 734 L425 734 L620 890 L459 890 Z " />
<glyph glyph-name="Thorn" unicode="&#xde;" horiz-adv-x="644" d="M85 671 L85 616 L149 611 L160 591 L60 78 L44 65 L-21 59 L-21 0 L310 0 L310 59 L240 63 L228 81 L235 125 C262 122 286 121 308 121 C506 121 622 229 622 373 C622 497 542 550 377 550 L318 550 L327 596 L340 609 L407 616 L407 671 L85 671 Z M304 481 C311 481 317 482 323 482 C399 482 438 447 438 378 C438 259 378 189 275 189 C266 189 257 190 248 191 L304 481 Z " />
<glyph glyph-name="germandbls" unicode="&#xdf;" horiz-adv-x="697" d="M610 471 C627 520 636 558 636 587 C636 678 566 736 443 736 C246 736 129 625 97 404 L56 125 C40 15 28 -73 -6 -138 L-121 -53 C-158 -61 -183 -92 -183 -130 C-183 -179 -144 -218 -88 -218 C-34 -218 39 -179 111 -100 C180 -25 207 70 226 193 L258 406 C285 582 327 669 410 669 C454 669 478 644 478 597 C478 574 468 538 452 487 C377 471 337 427 337 362 C337 297 378 264 430 219 C472 183 500 157 500 118 C500 78 470 51 420 51 C409 51 397 52 384 55 L402 154 C380 166 360 172 339 172 C291 172 261 144 261 100 C261 41 330 -11 425 -11 C559 -11 649 67 649 159 C649 207 625 242 584 283 C539 328 501 353 501 399 C501 440 539 471 601 471 L610 471 Z " />
<glyph glyph-name="agrave" unicode="&#xe0;" horiz-adv-x="650" d="M468 478 C419 494 374 507 325 507 C249 507 180 481 132 438 C56 370 19 287 19 185 C19 64 79 -8 175 -8 C234 -8 295 18 359 69 C360 18 391 -8 451 -8 C507 -8 569 5 638 32 L640 84 C611 73 587 67 568 67 C538 67 520 88 520 127 C520 141 523 159 527 181 L593 507 L525 507 L468 478 Z M366 448 L409 387 L363 123 C323 104 294 93 272 93 C222 93 195 129 195 198 C195 347 267 449 353 449 C357 449 362 449 366 448 L366 448 Z M222 748 L346 558 L432 558 L371 748 L222 748 Z " />
<glyph glyph-name="aacute" unicode="&#xe1;" horiz-adv-x="650" d="M468 478 C419 494 374 507 325 507 C249 507 180 481 132 438 C56 370 19 287 19 185 C19 64 79 -8 175 -8 C234 -8 295 18 359 69 C360 18 391 -8 451 -8 C507 -8 569 5 638 32 L640 84 C611 73 587 67 568 67 C538 67 520 88 520 127 C520 141 523 159 527 181 L593 507 L525 507 L468 478 Z M366 448 L409 387 L363 123 C323 104 294 93 272 93 C222 93 195 129 195 198 C195 347 267 449 353 449 C357 449 362 449 366 448 L366 448 Z M452 748 L317 558 L403 558 L601 748 L452 748 Z " />
<glyph glyph-name="acircumflex" unicode="&#xe2;" horiz-adv-x="650" d="M468 478 C419 494 374 507 325 507 C249 507 180 481 132 438 C56 370 19 287 19 185 C19 64 79 -8 175 -8 C234 -8 295 18 359 69 C360 18 391 -8 451 -8 C507 -8 569 5 638 32 L640 84 C611 73 587 67 568 67 C538 67 520 88 520 127 C520 141 523 159 527 181 L593 507 L525 507 L468 478 Z M366 448 L409 387 L363 123 C323 104 294 93 272 93 C222 93 195 129 195 198 C195 347 267 449 353 449 C357 449 362 449 366 448 L366 448 Z M350 748 L203 558 L303 558 L389 667 L433 558 L534 558 L461 748 L350 748 Z " />
<glyph glyph-name="atilde" unicode="&#xe3;" horiz-adv-x="650" d="M468 478 C419 494 374 507 325 507 C249 507 180 481 132 438 C56 370 19 287 19 185 C19 64 79 -8 175 -8 C234 -8 295 18 359 69 C360 18 391 -8 451 -8 C507 -8 569 5 638 32 L640 84 C611 73 587 67 568 67 C538 67 520 88 520 127 C520 141 523 159 527 181 L593 507 L525 507 L468 478 Z M366 448 L409 387 L363 123 C323 104 294 93 272 93 C222 93 195 129 195 198 C195 347 267 449 353 449 C357 449 362 449 366 448 L366 448 Z M506 737 C500 695 485 677 458 677 C424 677 379 720 319 720 C251 720 211 669 196 568 L263 568 C269 608 286 629 312 629 C343 629 387 584 450 584 C517 584 555 635 572 737 L506 737 Z " />
<glyph glyph-name="adieresis" unicode="&#xe4;" horiz-adv-x="650" d="M468 478 C419 494 374 507 325 507 C249 507 180 481 132 438 C56 370 19 287 19 185 C19 64 79 -8 175 -8 C234 -8 295 18 359 69 C360 18 391 -8 451 -8 C507 -8 569 5 638 32 L640 84 C611 73 587 67 568 67 C538 67 520 88 520 127 C520 141 523 159 527 181 L593 507 L525 507 L468 478 Z M366 448 L409 387 L363 123 C323 104 294 93 272 93 C222 93 195 129 195 198 C195 347 267 449 353 449 C357 449 362 449 366 448 L366 448 Z M263 729 C221 729 187 693 187 648 C187 604 220 568 263 568 C304 568 339 604 339 648 C339 693 304 729 263 729 L263 729 Z M491 729 C449 729 414 693 414 648 C414 604 448 568 491 568 C532 568 567 604 567 648 C567 693 532 729 491 729 L491 729 Z " />
<glyph glyph-name="aring" unicode="&#xe5;" horiz-adv-x="650" d="M468 478 C419 494 374 507 325 507 C249 507 180 481 132 438 C56 370 19 287 19 185 C19 64 79 -7 175 -7 C234 -7 295 18 359 69 C360 18 391 -7 451 -7 C507 -7 569 5 638 32 L640 84 C611 73 587 67 568 67 C538 67 520 88 520 127 C520 141 523 159 527 181 L593 505 L525 505 L468 478 Z M366 448 L409 387 L363 123 C323 104 294 93 272 93 C222 93 195 129 195 198 C195 347 267 449 353 449 C357 449 362 449 366 448 L366 448 Z M354 785 C287 785 235 733 235 666 C235 600 287 546 354 546 C421 546 474 600 474 666 C474 733 421 785 354 785 L354 785 Z M354 726 C388 726 415 699 415 666 C415 633 387 606 354 606 C322 606 295 633 295 666 C295 699 322 726 354 726 L354 726 Z " />
<glyph glyph-name="ae" unicode="&#xe6;" horiz-adv-x="796" d="M446 452 C404 489 358 505 300 505 C209 505 140 482 94 435 C68 409 55 384 55 367 C55 345 70 334 97 334 L212 334 L234 445 L241 445 C305 445 336 419 336 365 C336 349 333 329 328 304 C113 276 7 219 7 111 C7 38 59 -9 137 -9 C208 -9 271 17 337 70 C373 15 425 -9 500 -9 C566 -9 645 17 730 72 L730 149 C670 110 620 88 574 88 C503 88 460 133 460 207 C460 215 460 223 461 231 C661 237 760 284 760 382 C760 454 705 505 623 505 C564 505 510 485 446 452 L446 452 Z M313 246 C308 224 305 203 305 182 C305 162 309 139 317 112 C281 95 253 88 230 88 C192 88 169 107 169 142 C169 199 217 234 313 246 L313 246 Z M463 280 C486 389 537 445 589 445 C613 445 629 430 629 403 C629 343 571 295 463 280 L463 280 Z " />
<glyph glyph-name="ccedilla" unicode="&#xe7;" horiz-adv-x="497" d="M454 153 C390 112 339 89 293 89 C229 89 190 136 190 219 C190 318 229 405 287 447 L360 318 C432 324 472 361 472 414 C472 473 425 506 335 506 C267 506 201 484 141 442 C64 388 19 299 19 199 C19 69 95 -11 211 -11 C290 -11 370 21 454 82 L454 153 Z M192 4 L170 -112 C177 -111 184 -110 190 -110 C215 -110 228 -119 228 -133 C228 -156 208 -171 172 -171 C155 -171 133 -167 104 -162 L92 -220 C121 -227 148 -232 175 -232 C269 -232 328 -176 328 -110 C328 -68 303 -48 254 -48 L243 -48 L253 4 L192 4 Z " />
<glyph glyph-name="egrave" unicode="&#xe8;" horiz-adv-x="523" d="M178 227 L191 227 C386 227 489 291 489 390 C489 460 437 506 346 506 C262 506 185 479 129 432 C54 369 16 288 16 198 C16 70 96 -13 216 -13 C289 -13 369 18 461 79 L461 156 C399 110 341 87 293 87 C218 87 178 133 178 220 L178 227 Z M185 279 C206 388 254 446 307 446 C338 446 356 428 356 398 C356 345 292 289 185 279 L185 279 Z M159 748 L283 558 L369 558 L308 748 L159 748 Z " />
<glyph glyph-name="eacute" unicode="&#xe9;" horiz-adv-x="523" d="M178 227 L191 227 C386 227 489 291 489 390 C489 460 437 506 346 506 C262 506 185 479 129 432 C54 369 16 288 16 198 C16 70 96 -13 216 -13 C289 -13 369 18 461 79 L461 156 C399 110 341 87 293 87 C218 87 178 133 178 220 L178 227 Z M185 279 C206 388 254 446 307 446 C338 446 356 428 356 398 C356 345 292 289 185 279 L185 279 Z M389 748 L254 558 L340 558 L538 748 L389 748 Z " />
<glyph glyph-name="ecircumflex" unicode="&#xea;" horiz-adv-x="523" d="M178 227 L191 227 C386 227 489 291 489 390 C489 460 437 506 346 506 C262 506 185 479 129 432 C54 369 16 288 16 198 C16 70 96 -13 216 -13 C289 -13 369 18 461 79 L461 156 C399 110 341 87 293 87 C218 87 178 133 178 220 L178 227 Z M185 279 C206 388 254 446 307 446 C338 446 356 428 356 398 C356 345 292 289 185 279 L185 279 Z M287 748 L140 558 L240 558 L326 667 L370 558 L471 558 L398 748 L287 748 Z " />
<glyph glyph-name="edieresis" unicode="&#xeb;" horiz-adv-x="523" d="M178 227 L191 227 C386 227 489 291 489 390 C489 460 437 506 346 506 C262 506 185 479 129 432 C54 369 16 288 16 198 C16 70 96 -13 216 -13 C289 -13 369 18 461 79 L461 156 C399 110 341 87 293 87 C218 87 178 133 178 220 L178 227 Z M185 279 C206 388 254 446 307 446 C338 446 356 428 356 398 C356 345 292 289 185 279 L185 279 Z M200 729 C158 729 124 693 124 648 C124 604 157 568 200 568 C241 568 276 604 276 648 C276 693 241 729 200 729 L200 729 Z M428 729 C386 729 351 693 351 648 C351 604 385 568 428 568 C469 568 504 604 504 648 C504 693 469 729 428 729 L428 729 Z " />
<glyph glyph-name="igrave" unicode="&#xec;" horiz-adv-x="361" d="M113 406 L62 165 C53 122 49 93 49 79 C49 21 81 -7 148 -7 C200 -7 264 10 344 37 L344 86 C308 77 282 72 265 72 C237 72 221 89 221 117 C221 138 224 167 231 202 L291 505 L228 505 L27 463 L27 417 L113 406 Z M48 748 L172 558 L258 558 L197 748 L48 748 Z " />
<glyph glyph-name="iacute" unicode="&#xed;" horiz-adv-x="361" d="M113 406 L62 165 C53 122 49 93 49 79 C49 21 81 -7 148 -7 C200 -7 264 10 344 37 L344 86 C308 77 282 72 265 72 C237 72 221 89 221 117 C221 138 224 167 231 202 L291 505 L228 505 L27 463 L27 417 L113 406 Z M278 748 L143 558 L229 558 L427 748 L278 748 Z " />
<glyph glyph-name="icircumflex" unicode="&#xee;" horiz-adv-x="361" d="M113 406 L62 165 C53 122 49 93 49 79 C49 21 81 -7 148 -7 C200 -7 264 10 344 37 L344 86 C308 77 282 72 265 72 C237 72 221 89 221 117 C221 138 224 167 231 202 L291 505 L228 505 L27 463 L27 417 L113 406 Z M176 748 L29 558 L129 558 L215 667 L259 558 L360 558 L287 748 L176 748 Z " />
<glyph glyph-name="idieresis" unicode="&#xef;" horiz-adv-x="361" d="M113 406 L62 165 C53 122 49 93 49 79 C49 21 81 -7 148 -7 C200 -7 264 10 344 37 L344 86 C308 77 282 72 265 72 C237 72 221 89 221 117 C221 138 224 167 231 202 L291 505 L228 505 L27 463 L27 417 L113 406 Z M89 729 C47 729 13 693 13 648 C13 604 46 568 89 568 C130 568 165 604 165 648 C165 693 130 729 89 729 L89 729 Z M317 729 C275 729 240 693 240 648 C240 604 274 568 317 568 C358 568 393 604 393 648 C393 693 358 729 317 729 L317 729 Z " />
<glyph glyph-name="eth" unicode="&#xf0;" horiz-adv-x="645" d="M396 482 C382 483 369 484 356 484 C156 484 30 364 30 205 C30 72 119 -14 265 -14 C455 -14 592 122 592 323 C592 420 559 519 495 625 L605 666 L587 714 L464 671 L414 743 L367 743 L212 709 L212 669 L300 657 L326 615 L205 572 L222 524 L354 571 C368 548 382 519 396 482 L396 482 Z M409 419 C417 388 421 356 421 320 C421 144 373 52 287 52 C233 52 207 91 207 173 C207 333 271 426 359 426 C376 426 393 424 409 419 L409 419 Z " />
<glyph glyph-name="ntilde" unicode="&#xf1;" horiz-adv-x="669" d="M230 505 L21 451 L21 410 L107 403 L27 0 L199 0 L257 346 C305 378 339 397 366 397 C394 397 414 377 414 343 C414 330 412 308 405 276 L374 128 C370 107 366 88 366 72 C366 21 399 -8 458 -8 C500 -8 563 5 646 32 L646 80 C618 71 596 66 581 66 C546 66 530 84 530 122 C530 136 533 163 542 201 L570 320 C577 352 580 378 580 395 C580 459 534 505 468 505 C417 505 348 470 260 400 L284 505 L230 505 Z M516 737 C510 695 495 677 468 677 C434 677 389 720 329 720 C261 720 221 669 206 568 L273 568 C279 608 296 629 322 629 C353 629 397 584 460 584 C527 584 565 635 582 737 L516 737 Z " />
<glyph glyph-name="ograve" unicode="&#xf2;" horiz-adv-x="620" d="M330 503 C250 503 172 475 119 429 C52 371 18 295 18 211 C18 70 106 -13 254 -13 C444 -13 573 116 573 289 C573 423 485 503 330 503 L330 503 Z M320 439 C374 439 398 396 398 305 C398 151 341 50 272 50 C215 50 193 95 193 189 C193 342 251 439 320 439 L320 439 Z M207 748 L331 558 L417 558 L356 748 L207 748 Z " />
<glyph glyph-name="oacute" unicode="&#xf3;" horiz-adv-x="620" d="M330 503 C250 503 172 475 119 429 C52 371 18 295 18 211 C18 70 106 -13 254 -13 C444 -13 573 116 573 289 C573 423 485 503 330 503 L330 503 Z M320 439 C374 439 398 396 398 305 C398 151 341 50 272 50 C215 50 193 95 193 189 C193 342 251 439 320 439 L320 439 Z M437 748 L302 558 L388 558 L586 748 L437 748 Z " />
<glyph glyph-name="ocircumflex" unicode="&#xf4;" horiz-adv-x="620" d="M330 503 C250 503 172 475 119 429 C52 371 18 295 18 211 C18 70 106 -13 254 -13 C444 -13 573 116 573 289 C573 423 485 503 330 503 L330 503 Z M320 439 C374 439 398 396 398 305 C398 151 341 50 272 50 C215 50 193 95 193 189 C193 342 251 439 320 439 L320 439 Z M335 748 L188 558 L288 558 L374 667 L418 558 L519 558 L446 748 L335 748 Z " />
<glyph glyph-name="otilde" unicode="&#xf5;" horiz-adv-x="620" d="M330 503 C250 503 172 475 119 429 C52 371 18 295 18 211 C18 70 106 -13 254 -13 C444 -13 573 116 573 289 C573 423 485 503 330 503 L330 503 Z M320 439 C374 439 398 396 398 305 C398 151 341 50 272 50 C215 50 193 95 193 189 C193 342 251 439 320 439 L320 439 Z M491 737 C485 695 470 677 443 677 C409 677 364 720 304 720 C236 720 196 669 181 568 L248 568 C254 608 271 629 297 629 C328 629 372 584 435 584 C502 584 540 635 557 737 L491 737 Z " />
<glyph glyph-name="odieresis" unicode="&#xf6;" horiz-adv-x="620" d="M330 503 C250 503 172 475 119 429 C52 371 18 295 18 211 C18 70 106 -13 254 -13 C444 -13 573 116 573 289 C573 423 485 503 330 503 L330 503 Z M320 439 C374 439 398 396 398 305 C398 151 341 50 272 50 C215 50 193 95 193 189 C193 342 251 439 320 439 L320 439 Z M248 729 C206 729 172 693 172 648 C172 604 205 568 248 568 C289 568 324 604 324 648 C324 693 289 729 248 729 L248 729 Z M476 729 C434 729 399 693 399 648 C399 604 433 568 476 568 C517 568 552 604 552 648 C552 693 517 729 476 729 L476 729 Z " />
<glyph glyph-name="divide" unicode="&#xf7;" horiz-adv-x="833" d="M417 551 C381 551 350 520 350 483 C350 446 379 417 417 417 C455 417 484 447 484 483 C484 520 454 551 417 551 L417 551 Z M709 339 L124 339 L124 258 L709 258 L709 339 Z M417 179 C381 179 350 149 350 112 C350 75 379 46 417 46 C455 46 484 76 484 112 C484 149 454 179 417 179 L417 179 Z " />
<glyph glyph-name="oslash" unicode="&#xf8;" horiz-adv-x="620" d="M476 586 L418 494 C395 501 372 504 345 504 C150 504 18 377 18 211 C18 122 48 62 118 18 L69 -60 L116 -92 L173 -3 C196 -10 221 -13 249 -13 C445 -13 573 114 573 288 C573 372 539 434 472 473 L522 555 L476 586 Z M191 123 C187 147 185 170 185 194 C185 349 243 443 322 443 C344 443 362 436 377 421 L191 123 Z M216 70 L399 365 C404 344 407 322 407 299 C407 143 350 46 272 46 C248 46 230 53 216 70 L216 70 Z " />
<glyph glyph-name="ugrave" unicode="&#xf9;" horiz-adv-x="669" d="M223 505 L27 452 L27 414 L108 406 L65 147 C61 124 59 108 59 99 C59 32 101 -12 164 -12 C215 -12 281 21 372 79 C375 18 403 -12 458 -12 C499 -12 565 4 654 36 L654 80 C626 70 605 65 591 65 C556 65 538 83 538 118 C538 135 543 162 550 199 L603 505 L553 505 L437 478 L378 134 C331 113 298 101 274 101 C237 101 221 117 221 155 C221 164 223 178 227 198 L286 505 L223 505 Z M232 748 L356 558 L442 558 L381 748 L232 748 Z " />
<glyph glyph-name="uacute" unicode="&#xfa;" horiz-adv-x="669" d="M223 505 L27 452 L27 414 L108 406 L65 147 C61 124 59 108 59 99 C59 32 101 -12 164 -12 C215 -12 281 21 372 79 C375 18 403 -12 458 -12 C499 -12 565 4 654 36 L654 80 C626 70 605 65 591 65 C556 65 538 83 538 118 C538 135 543 162 550 199 L603 505 L553 505 L437 478 L378 134 C331 113 298 101 274 101 C237 101 221 117 221 155 C221 164 223 178 227 198 L286 505 L223 505 Z M462 748 L327 558 L413 558 L611 748 L462 748 Z " />
<glyph glyph-name="ucircumflex" unicode="&#xfb;" horiz-adv-x="669" d="M223 505 L27 452 L27 414 L108 406 L65 147 C61 124 59 108 59 99 C59 32 101 -12 164 -12 C215 -12 281 21 372 79 C375 18 403 -12 458 -12 C499 -12 565 4 654 36 L654 80 C626 70 605 65 591 65 C556 65 538 83 538 118 C538 135 543 162 550 199 L603 505 L553 505 L437 478 L378 134 C331 113 298 101 274 101 C237 101 221 117 221 155 C221 164 223 178 227 198 L286 505 L223 505 Z M360 748 L213 558 L313 558 L399 667 L443 558 L544 558 L471 748 L360 748 Z " />
<glyph glyph-name="udieresis" unicode="&#xfc;" horiz-adv-x="669" d="M223 505 L27 452 L27 414 L108 406 L65 147 C61 124 59 108 59 99 C59 32 101 -12 164 -12 C215 -12 281 21 372 79 C375 18 403 -12 458 -12 C499 -12 565 4 654 36 L654 80 C626 70 605 65 591 65 C556 65 538 83 538 118 C538 135 543 162 550 199 L603 505 L553 505 L437 478 L378 134 C331 113 298 101 274 101 C237 101 221 117 221 155 C221 164 223 178 227 198 L286 505 L223 505 Z M273 729 C231 729 197 693 197 648 C197 604 230 568 273 568 C314 568 349 604 349 648 C349 693 314 729 273 729 L273 729 Z M501 729 C459 729 424 693 424 648 C424 604 458 568 501 568 C542 568 577 604 577 648 C577 693 542 729 501 729 L501 729 Z " />
<glyph glyph-name="yacute" unicode="&#xfd;" horiz-adv-x="535" d="M151 505 L-16 466 L-16 422 L78 411 L149 32 L226 32 C176 -58 135 -107 93 -115 L16 -47 C-28 -60 -53 -94 -53 -137 C-53 -184 -19 -220 35 -220 C110 -220 190 -155 270 -25 C355 113 402 275 493 409 L564 444 L564 478 L480 505 L438 505 C370 352 319 228 281 137 L242 410 C237 448 228 479 208 505 L151 505 Z M395 748 L260 558 L346 558 L544 748 L395 748 Z " />
<glyph glyph-name="thorn" unicode="&#xfe;" horiz-adv-x="637" d="M196 12 C228 2 255 -1 279 -1 C461 -1 594 135 594 323 C594 435 535 505 443 505 C386 505 329 479 268 427 L326 736 L268 736 L60 689 L60 648 L149 637 L11 -132 L2 -148 L-65 -170 L-65 -218 L263 -218 L263 -170 L169 -150 L196 12 Z M206 74 L260 374 C295 397 325 409 351 409 C398 409 424 374 424 310 C424 164 350 64 258 64 C241 64 224 67 206 74 L206 74 Z " />
<glyph glyph-name="ydieresis" unicode="&#xff;" horiz-adv-x="535" d="M151 505 L-16 466 L-16 422 L78 411 L149 32 L226 32 C176 -58 135 -107 93 -115 L16 -47 C-28 -60 -53 -94 -53 -137 C-53 -184 -19 -220 35 -220 C110 -220 190 -155 270 -25 C355 113 402 275 493 409 L564 444 L564 478 L480 505 L438 505 C370 352 319 228 281 137 L242 410 C237 448 228 479 208 505 L151 505 Z M206 729 C164 729 130 693 130 648 C130 604 163 568 206 568 C247 568 282 604 282 648 C282 693 247 729 206 729 L206 729 Z M434 729 C392 729 357 693 357 648 C357 604 391 568 434 568 C475 568 510 604 510 648 C510 693 475 729 434 729 L434 729 Z " />
<glyph glyph-name="dotlessi" unicode="&#x131;" horiz-adv-x="361" d="M113 406 L62 165 C53 122 49 93 49 79 C49 21 81 -7 148 -7 C200 -7 264 10 344 37 L344 86 C308 77 282 72 265 72 C237 72 221 89 221 117 C221 138 224 167 231 202 L291 505 L228 505 L27 463 L27 417 L113 406 Z " />
<glyph glyph-name="Lslash" unicode="&#x141;" horiz-adv-x="583" d="M83 671 L83 615 L147 610 L158 597 L111 356 L9 300 L32 245 L97 281 L58 77 L41 65 L-23 58 L-23 0 L502 0 L544 213 L447 213 L407 81 L387 69 L225 69 L283 372 L428 451 L399 505 L298 450 L326 596 L345 609 L407 615 L407 671 L83 671 Z " />
<glyph glyph-name="lslash" unicode="&#x142;" horiz-adv-x="352" d="M262 736 L53 689 L53 648 L142 637 L88 366 L-20 311 L4 257 L74 294 L51 178 C40 124 38 89 38 78 C38 24 76 -11 137 -11 C182 -11 245 7 331 36 L331 84 C297 74 271 69 252 69 C224 69 208 85 208 117 C208 135 213 165 221 205 L255 384 L384 449 L358 502 L268 456 L322 736 L262 736 Z " />
<glyph glyph-name="OE" unicode="&#x152;" horiz-adv-x="1039" d="M573 594 C530 656 474 684 396 684 C306 684 226 650 163 586 C84 506 38 391 38 270 C38 96 138 -12 283 -12 C354 -12 417 12 472 62 L460 0 L939 0 L979 197 L892 197 L847 81 L834 69 L638 69 L684 310 L769 310 L784 298 L785 222 L853 222 L900 465 L829 465 L804 393 L784 377 L698 377 L741 602 L901 602 L916 590 L919 505 L999 505 L1034 671 L589 671 L573 594 Z M222 262 C222 366 257 472 307 539 C339 582 379 604 421 604 C495 604 541 543 541 433 C541 217 446 75 345 75 C263 75 222 137 222 262 L222 262 Z " />
<glyph glyph-name="oe" unicode="&#x153;" horiz-adv-x="873" d="M498 434 C458 482 404 505 333 505 C152 505 20 376 20 204 C20 71 105 -11 242 -11 C312 -11 373 11 431 58 C461 12 512 -11 580 -11 C641 -11 718 17 809 74 L809 150 C746 108 693 88 650 88 C579 88 537 134 537 216 L537 230 C740 233 837 280 837 387 C837 458 782 505 691 505 C627 505 563 481 498 434 L498 434 Z M318 443 C365 441 390 399 390 316 C390 258 378 195 357 141 C335 83 309 54 269 54 C220 54 194 98 194 185 C194 340 252 443 318 443 L318 443 Z M541 281 C561 386 617 443 663 443 C690 443 706 430 706 402 C706 343 645 290 541 281 L541 281 Z " />
<glyph glyph-name="Scaron" unicode="&#x160;" horiz-adv-x="593" d="M566 647 C496 673 432 687 372 687 C201 687 83 584 83 464 C83 394 124 334 204 295 C301 247 358 233 358 167 C358 105 299 58 201 58 C190 58 173 59 150 61 L135 81 L135 213 L45 213 L5 27 C81 -1 150 -15 213 -15 C402 -15 529 94 529 221 C529 252 518 284 497 311 C466 350 426 365 386 385 C300 427 251 449 251 508 C251 570 303 614 390 614 C402 614 414 614 427 612 L441 596 L445 470 L531 470 L566 647 Z M422 733 L565 890 L460 890 L384 808 L336 890 L231 890 L314 733 L422 733 Z " />
<glyph glyph-name="scaron" unicode="&#x161;" horiz-adv-x="488" d="M348 331 C417 333 448 366 448 410 C448 469 391 505 284 505 C141 505 46 431 46 335 C46 266 91 233 181 193 C235 169 270 157 270 114 C270 76 237 45 190 45 C168 45 147 49 127 59 L147 151 C120 167 95 174 75 174 C24 174 -6 146 -6 102 C-6 37 68 -13 188 -13 C327 -13 428 70 428 164 C428 224 387 260 300 303 C238 334 198 346 198 389 C198 423 225 448 268 448 C276 448 285 447 294 445 L348 331 Z M159 747 L231 557 L343 557 L490 747 L389 747 L303 638 L259 747 L159 747 Z " />
<glyph glyph-name="Ydieresis" unicode="&#x178;" horiz-adv-x="634" d="M23 671 L23 613 L95 605 L216 251 L184 85 L169 66 L95 59 L95 0 L433 0 L433 59 L360 67 L350 79 L387 271 L638 602 L704 613 L704 671 L451 671 L451 613 L518 605 L526 587 L355 355 L271 592 L280 607 L340 613 L340 671 L23 671 Z M508 900 C466 900 431 864 431 819 C431 775 465 739 508 739 C549 739 584 775 584 819 C584 864 549 900 508 900 L508 900 Z M280 900 C238 900 204 864 204 819 C204 775 237 739 280 739 C321 739 356 775 356 819 C356 864 321 900 280 900 L280 900 Z " />
<glyph glyph-name="Zcaron" unicode="&#x17d;" horiz-adv-x="611" d="M112 671 L72 470 L165 470 L201 593 L218 602 L406 602 L-12 59 L-12 0 L514 0 L556 211 L460 211 L422 84 L404 69 L195 69 L615 615 L612 671 L112 671 Z M425 733 L568 890 L463 890 L387 808 L339 890 L234 890 L317 733 L425 733 Z " />
<glyph glyph-name="zcaron" unicode="&#x17e;" horiz-adv-x="509" d="M419 514 L390 450 C310 465 255 510 198 510 C153 510 109 488 73 447 C35 403 16 356 16 318 C16 275 38 248 69 248 C98 248 123 266 145 302 L78 372 C96 382 113 387 129 387 C157 387 182 369 217 339 L297 355 L-28 35 L58 -16 L82 41 C151 41 213 -4 282 -4 C329 -4 372 12 401 38 C446 78 473 138 473 183 C473 232 443 264 403 264 C374 264 351 247 334 213 L409 128 C389 120 371 115 356 115 C314 115 279 133 256 166 L174 142 L506 454 L419 514 Z M170 747 L242 557 L354 557 L501 747 L400 747 L314 638 L270 747 L170 747 Z " />
<glyph glyph-name="florin" unicode="&#x192;" horiz-adv-x="639" d="M37 37 C-26 17 -62 -25 -62 -67 C-62 -108 -20 -142 46 -142 C112 -142 189 -109 252 -49 C312 8 340 74 356 165 L380 299 L535 299 L548 370 L391 370 C410 502 427 587 450 625 L534 506 C601 530 634 564 634 611 C634 656 601 684 542 684 C375 684 251 571 224 370 L115 370 L102 299 L216 299 L183 109 C168 25 153 -37 122 -76 L37 37 Z " />
<glyph glyph-name="circumflex" unicode="&#x2c6;" horiz-adv-x="500" d="M275 748 L128 558 L228 558 L314 667 L358 558 L459 558 L386 748 L275 748 Z " />
<glyph glyph-name="caron" unicode="&#x2c7;" horiz-adv-x="500" d="M165 747 L237 557 L349 557 L496 747 L395 747 L309 638 L265 747 L165 747 Z " />
<glyph glyph-name="breve" unicode="&#x2d8;" horiz-adv-x="500" d="M165 730 C160 703 156 681 156 665 C156 594 201 567 297 567 C417 567 471 611 490 730 L428 728 C418 666 385 646 311 646 C250 646 223 659 223 694 C223 701 224 712 226 728 L165 730 Z " />
<glyph glyph-name="dotaccent" unicode="&#x2d9;" horiz-adv-x="500" d="M302 729 C260 729 226 693 226 648 C226 604 259 568 302 568 C343 568 378 604 378 648 C378 693 343 729 302 729 L302 729 Z " />
<glyph glyph-name="ring" unicode="&#x2da;" horiz-adv-x="500" d="M308 785 C241 785 189 733 189 666 C189 600 241 546 308 546 C375 546 428 600 428 666 C428 733 375 785 308 785 L308 785 Z M308 726 C342 726 369 699 369 666 C369 633 341 606 308 606 C276 606 248 633 248 666 C248 699 276 726 308 726 L308 726 Z " />
<glyph glyph-name="ogonek" unicode="&#x2db;" horiz-adv-x="500" d="M172 0 C107 -57 74 -113 74 -161 C74 -207 106 -232 170 -232 C189 -232 209 -229 231 -224 L247 -139 C234 -141 224 -142 217 -142 C188 -142 171 -128 171 -105 C171 -74 193 -37 237 0 L172 0 Z " />
<glyph glyph-name="tilde" unicode="&#x2dc;" horiz-adv-x="500" d="M431 737 C425 695 410 677 383 677 C349 677 304 720 244 720 C176 720 136 669 121 568 L188 568 C194 608 211 629 237 629 C268 629 312 584 375 584 C442 584 480 635 497 737 L431 737 Z " />
<glyph glyph-name="hungarumlaut" unicode="&#x2dd;" horiz-adv-x="500" d="M257 748 L125 558 L200 558 L388 748 L257 748 Z M437 748 L284 558 L369 558 L586 748 L437 748 Z " />
<glyph glyph-name="endash" unicode="&#x2013;" horiz-adv-x="500" d="M-27 181 L473 181 L494 301 L-6 301 L-27 181 Z " />
<glyph glyph-name="emdash" unicode="&#x2014;" horiz-adv-x="1000" d="M-25 181 L975 181 L997 301 L-3 301 L-25 181 Z " />
<glyph glyph-name="quoteleft" unicode="&#x2018;" horiz-adv-x="331" d="M328 624 L338 683 C188 665 86 549 86 433 C86 382 118 349 172 349 C228 349 268 391 268 449 C268 467 264 481 253 494 L193 494 C203 565 251 612 328 624 L328 624 Z " />
<glyph glyph-name="quoteright" unicode="&#x2019;" horiz-adv-x="331" d="M80 408 L69 349 C219 367 321 483 321 599 C321 650 290 683 235 683 C180 683 139 640 139 583 C139 565 144 551 155 538 L214 538 C205 468 158 420 80 408 L80 408 Z " />
<glyph glyph-name="quotesinglbase" unicode="&#x201a;" horiz-adv-x="331" d="M-45 -123 L-55 -182 C95 -164 197 -48 197 68 C197 119 164 152 110 152 C54 152 15 110 15 52 C15 34 19 20 30 7 L90 7 C80 -64 32 -111 -45 -123 L-45 -123 Z " />
<glyph glyph-name="quotedblleft" unicode="&#x201c;" horiz-adv-x="579" d="M328 624 L338 683 C188 665 86 549 86 433 C86 382 119 349 173 349 C229 349 268 391 268 449 C268 467 264 481 253 494 L193 494 C203 565 251 612 328 624 L328 624 Z M578 624 L589 683 C439 666 337 549 337 433 C337 383 370 349 421 349 C480 349 519 391 519 449 C519 467 514 482 503 494 L444 494 C454 565 501 612 578 624 L578 624 Z " />
<glyph glyph-name="quotedblright" unicode="&#x201d;" horiz-adv-x="579" d="M79 408 L69 349 C219 367 321 483 321 599 C321 650 290 683 235 683 C180 683 139 640 139 583 C139 565 143 551 154 538 L214 538 C205 468 157 420 79 408 L79 408 Z M330 408 L319 349 C469 366 572 483 572 599 C572 650 539 683 485 683 C430 683 389 640 389 583 C389 565 394 551 405 538 L465 538 C456 468 408 420 330 408 L330 408 Z " />
<glyph glyph-name="quotedblbase" unicode="&#x201e;" horiz-adv-x="579" d="M-39 -123 L-50 -182 C100 -164 203 -48 203 68 C203 119 170 152 116 152 C60 152 20 110 20 52 C20 34 25 20 36 7 L96 7 C86 -64 38 -111 -39 -123 L-39 -123 Z M211 -123 L201 -182 C351 -164 453 -48 453 68 C453 119 421 152 367 152 C311 152 271 110 271 52 C271 34 275 20 286 7 L346 7 C336 -64 288 -111 211 -123 L211 -123 Z " />
<glyph glyph-name="dagger" unicode="&#x2020;" horiz-adv-x="500" d="M321 718 L239 642 L270 502 L291 502 L374 642 L321 718 Z M283 458 L262 458 L169 294 L150 -129 L171 -129 L314 294 L283 458 Z M44 484 L104 419 L256 470 L259 492 L124 547 L44 484 Z M509 484 L446 547 L296 492 L292 470 L425 419 L509 484 Z " />
<glyph glyph-name="daggerdbl" unicode="&#x2021;" horiz-adv-x="500" d="M323 718 L248 642 L275 502 L294 502 L372 642 L323 718 Z M283 460 L266 460 L172 294 L204 127 L221 127 L312 294 L283 460 Z M165 -132 L241 -56 L216 84 L197 84 L117 -56 L165 -132 Z M443 105 L379 168 L229 113 L225 91 L359 44 L443 105 Z M-23 105 L37 44 L189 91 L193 113 L58 168 L-23 105 Z M509 484 L446 546 L296 492 L292 470 L425 422 L509 484 Z M44 484 L104 422 L256 470 L259 492 L124 546 L44 484 Z " />
<glyph glyph-name="bullet" unicode="&#x2022;" horiz-adv-x="590" d="M150 372 C150 292 214 227 294 227 C374 227 439 293 439 372 C439 452 374 516 295 516 C215 516 150 452 150 372 L150 372 Z " />
<glyph glyph-name="ellipsis" unicode="&#x2026;" horiz-adv-x="1000" d="M446 184 C394 184 352 142 352 88 C352 35 395 -6 446 -6 C498 -6 542 36 542 88 C542 141 499 184 446 184 L446 184 Z M778 184 C726 184 684 142 684 88 C684 35 727 -6 778 -6 C830 -6 874 36 874 88 C874 141 831 184 778 184 L778 184 Z M109 184 C57 184 15 142 15 88 C15 35 58 -6 109 -6 C161 -6 205 36 205 88 C205 141 162 184 109 184 L109 184 Z " />
<glyph glyph-name="perthousand" unicode="&#x2030;" horiz-adv-x="1410" d="M811 671 L719 671 L173 0 L265 0 L811 671 Z M225 318 C196 318 182 343 182 393 C182 536 232 630 280 630 C310 630 325 604 325 553 C325 413 275 318 225 318 L225 318 Z M219 264 C353 264 451 373 451 527 C451 623 392 683 293 683 C160 683 62 573 62 418 C62 322 121 264 219 264 L219 264 Z M694 -12 C827 -12 925 99 925 252 C925 348 867 407 768 407 C635 407 537 298 537 143 C537 47 595 -12 694 -12 L694 -12 Z M700 42 C671 42 657 67 657 117 C657 259 706 354 755 354 C785 354 800 328 800 276 C800 217 787 154 768 107 C750 63 728 42 700 42 L700 42 Z M1132 -12 C1265 -12 1363 99 1363 252 C1363 348 1305 407 1206 407 C1073 407 975 298 975 143 C975 47 1033 -12 1132 -12 L1132 -12 Z M1138 42 C1109 42 1094 67 1094 117 C1094 259 1144 354 1193 354 C1223 354 1238 328 1238 276 C1238 217 1225 154 1206 107 C1188 63 1166 42 1138 42 L1138 42 Z " />
<glyph glyph-name="guilsinglleft" unicode="&#x2039;" horiz-adv-x="287" d="M237 438 L23 285 L7 195 L167 43 L185 144 L99 240 L219 337 L237 438 Z " />
<glyph glyph-name="guilsinglright" unicode="&#x203a;" horiz-adv-x="287" d="M50 438 L32 337 L118 240 L-2 144 L-20 43 L194 195 L210 285 L50 438 Z " />
<glyph glyph-name="fraction" unicode="&#x2044;" horiz-adv-x="185" d="M285 671 L-134 0 L-54 0 L366 671 L285 671 Z " />
<glyph glyph-name="trademark" unicode="&#x2122;" horiz-adv-x="824" d="M109 662 L109 583 L142 583 L149 630 L156 634 L194 634 L194 434 L186 428 L161 425 L161 399 L297 399 L297 425 L271 428 L263 434 L263 634 L300 634 L308 630 L316 583 L348 583 L348 662 L109 662 Z M372 399 L470 399 L470 425 L444 427 L440 434 L440 627 L517 399 L556 399 L633 627 L633 434 L629 427 L605 425 L605 399 L732 399 L732 425 L703 427 L698 434 L698 626 L703 632 L732 634 L732 662 L605 662 L605 648 L552 487 L498 648 L498 662 L372 662 L372 634 L400 632 L404 627 L404 434 L400 427 L372 425 L372 399 Z " />
<glyph glyph-name="minus" unicode="&#x2212;" horiz-adv-x="833" d="M709 340 L124 340 L124 257 L709 257 L709 340 Z " />
<glyph glyph-name="fi" unicode="&#xfb01;" horiz-adv-x="694" d="M505 686 C490 718 449 737 389 737 C260 737 150 644 122 490 L38 452 L38 397 L108 406 L60 81 C47 -8 37 -83 10 -142 L-106 -56 C-150 -71 -172 -100 -172 -136 C-172 -184 -136 -220 -79 -220 C-16 -220 44 -188 101 -126 C174 -47 214 47 231 169 L265 410 L445 410 L394 165 C385 123 381 94 381 79 C381 21 413 -7 480 -7 C532 -7 596 10 676 37 L676 86 C640 77 614 72 597 72 C569 72 553 89 553 117 C553 138 556 167 563 202 L622 505 L560 505 L491 480 L273 480 C286 549 307 617 337 685 L439 582 L492 629 C506 594 530 582 569 582 C623 582 663 616 663 667 C663 710 636 737 592 737 C554 737 525 720 505 686 L505 686 Z " />
<glyph glyph-name="fl" unicode="&#xfb02;" horiz-adv-x="706" d="M499 697 C480 722 442 737 388 737 C261 737 150 644 122 490 L38 452 L38 397 L108 406 L60 81 C47 -8 37 -83 10 -142 L-106 -56 C-150 -71 -172 -100 -172 -136 C-172 -184 -136 -220 -79 -220 C-16 -220 44 -188 101 -126 C174 -47 214 47 231 169 L265 410 L394 410 L394 480 L273 480 C286 549 307 617 337 685 L424 591 L496 631 L406 178 C396 125 392 91 392 79 C392 24 430 -11 491 -11 C536 -11 599 7 685 36 L685 84 C651 74 625 69 606 69 C578 69 562 85 562 117 C562 131 566 161 574 205 L674 737 L616 737 L499 697 Z " />
</font>
</svg>
