<?xml version="1.0" encoding="UTF-8"?>
<svg xmlns="http://www.w3.org/2000/svg" xmlns:xlink="http://www.w3.org/1999/xlink" version="1.2" >
<font id="ITC Charter Bold Italic">
<font-face  font-family="ITC Charter" units-per-em="1000" ascent="735.84" descent="-217.773" font-style="italic" font-weight="700" font-stretch="normal" slope="-11" cap-height="750" x-height="500" underline-position="-64" underline-thickness="90" />
<missing-glyph  horiz-adv-x="293" d="" />
<glyph glyph-name="NULL" d="" />
<glyph glyph-name="CR" unicode="&#xd;" horiz-adv-x="250" d="" />
<glyph glyph-name="space" unicode="&#x20;" horiz-adv-x="293" d="" />
<glyph glyph-name="exclam" unicode="&#x21;" horiz-adv-x="340" d="M279 555 C288 584 294 607 294 625 C294 662 271 684 231 684 C165 684 140 641 135 553 L114 198 L166 198 L279 555 Z M127 145 C83 145 43 106 43 60 C43 22 73 -7 109 -7 C154 -7 194 32 194 78 C194 116 165 145 127 145 L127 145 Z " />
<glyph glyph-name="quotedbl" unicode="&#x22;" horiz-adv-x="339" d="M78 418 L97 418 L133 642 C134 648 134 655 134 661 C134 696 117 714 87 714 C58 714 41 695 41 661 C41 655 41 649 42 642 L78 418 Z M242 418 L261 418 L297 642 C298 649 299 655 299 662 C299 695 281 714 252 714 C223 714 205 695 205 661 C205 655 205 649 206 642 L242 418 Z " />
<glyph glyph-name="numbersign" unicode="&#x23;" horiz-adv-x="751" d="M362 710 L282 478 L107 478 L107 417 L261 417 L217 282 L57 282 L57 221 L197 221 L118 -7 L181 -23 L263 221 L397 221 L321 -7 L384 -23 L465 221 L647 221 L647 282 L486 282 L532 417 L689 417 L689 478 L552 478 L628 692 L564 709 L487 478 L349 478 L425 692 L362 710 Z M329 417 L464 417 L417 282 L284 282 L329 417 Z " />
<glyph glyph-name="dollar" unicode="&#x24;" horiz-adv-x="586" d="M352 744 L337 670 C196 662 104 570 104 465 C104 384 154 330 260 290 L216 57 C191 59 163 66 134 78 L122 87 L126 206 L58 206 L25 40 C73 19 131 5 204 1 L184 -104 L237 -104 L256 1 C410 14 503 103 503 223 C503 297 447 355 336 392 L378 615 C398 613 418 609 438 602 L450 592 L446 479 L510 479 L543 640 C493 658 442 668 390 671 L404 744 L352 744 Z M327 615 L287 410 C240 429 218 458 218 501 C218 560 260 608 327 615 L327 615 Z M311 273 C360 256 387 219 387 175 C387 116 342 66 269 57 L311 273 Z " />
<glyph glyph-name="percent" unicode="&#x25;" horiz-adv-x="898" d="M265 683 C146 683 55 571 55 403 C55 319 108 263 190 263 C309 263 400 376 400 536 C400 627 349 683 265 683 L265 683 Z M681 671 L142 0 L218 0 L756 671 L681 671 Z M255 638 C287 638 303 611 303 556 C303 493 289 427 268 378 C248 332 224 309 195 309 C163 309 148 336 148 391 C148 452 161 516 183 569 C202 615 226 638 255 638 L255 638 Z M711 407 C592 407 500 296 500 129 C500 44 552 -12 635 -12 C754 -12 846 99 846 267 C846 350 794 407 711 407 L711 407 Z M700 363 C732 363 749 335 749 280 C749 218 735 152 714 102 C694 56 671 33 641 33 C609 33 594 60 594 114 C594 177 607 242 629 294 C648 340 671 363 700 363 L700 363 Z " />
<glyph glyph-name="ampersand" unicode="&#x26;" horiz-adv-x="730" d="M697 373 L493 373 L493 325 L540 318 L549 301 C522 249 495 212 471 189 L338 362 C461 391 528 461 528 542 C528 624 463 684 354 684 C223 684 127 598 127 495 C127 449 148 405 190 358 C78 315 20 245 20 158 C20 62 95 -13 201 -13 C272 -13 347 16 417 74 C458 19 502 -7 564 -7 C578 -7 595 -6 614 -4 L673 2 L673 50 C668 50 663 49 658 49 C594 49 551 80 504 148 C552 200 593 256 627 315 L697 325 L697 373 Z M387 112 C353 85 313 69 271 69 C199 69 146 122 146 195 C146 248 171 289 222 322 L387 112 Z M305 394 C265 443 244 485 244 520 C244 586 286 629 340 629 C385 629 414 596 414 542 C414 480 377 429 305 394 L305 394 Z " />
<glyph glyph-name="quotesingle" unicode="&#x27;" horiz-adv-x="175" d="M78 418 L97 418 L133 642 C134 648 134 655 134 661 C134 696 117 714 87 714 C58 714 41 695 41 661 C41 655 41 649 42 642 L78 418 Z " />
<glyph glyph-name="parenleft" unicode="&#x28;" horiz-adv-x="420" d="M458 718 C378 716 306 686 247 630 C189 576 147 511 120 433 C83 328 66 230 66 147 C66 -34 152 -140 296 -142 L306 -91 C225 -84 179 -14 179 113 C179 185 193 288 229 414 C248 482 276 540 313 587 C350 634 398 662 449 667 L458 718 Z " />
<glyph glyph-name="parenright" unicode="&#x29;" horiz-adv-x="420" d="M101 718 L91 667 C171 660 218 590 218 466 C218 398 205 297 171 171 C152 99 123 39 84 -11 C47 -59 -2 -87 -52 -91 L-61 -142 C19 -140 90 -110 150 -54 C210 2 253 71 280 153 C315 257 331 353 331 433 C331 611 244 716 101 718 L101 718 Z " />
<glyph glyph-name="asterisk" unicode="&#x2a;" horiz-adv-x="500" d="M320 718 L262 657 L278 532 L294 532 L357 657 L320 718 Z M423 598 L303 522 L304 506 L435 508 L490 572 L423 598 Z M295 493 L280 484 L299 360 L369 338 L386 415 L295 493 Z M262 493 L143 415 L131 338 L209 359 L273 484 L262 493 Z M174 598 L97 571 L128 508 L258 507 L266 522 L174 598 Z " />
<glyph glyph-name="plus" unicode="&#x2b;" horiz-adv-x="833" d="M458 596 L375 596 L375 339 L124 339 L124 258 L375 258 L375 0 L458 0 L458 258 L709 258 L709 339 L458 339 L458 596 Z " />
<glyph glyph-name="comma" unicode="&#x2c;" horiz-adv-x="292" d="M-57 -175 C76 -159 168 -53 168 52 C168 99 141 129 94 129 C47 129 12 93 12 44 C12 30 15 18 23 7 L84 7 C74 -68 28 -115 -49 -129 L-57 -175 Z " />
<glyph glyph-name="hyphen" unicode="&#x2d;" horiz-adv-x="320" d="M28 290 L10 192 L264 192 L281 290 L28 290 Z " />
<glyph glyph-name="period" unicode="&#x2e;" horiz-adv-x="294" d="M98 149 C56 149 22 114 22 71 C22 28 57 -6 98 -6 C140 -6 174 27 174 71 C174 115 141 149 98 149 L98 149 Z " />
<glyph glyph-name="slash" unicode="&#x2f;" horiz-adv-x="481" d="M443 671 L-119 -93 L-36 -93 L525 671 L443 671 Z " />
<glyph glyph-name="zero" unicode="0" horiz-adv-x="586" d="M352 683 C262 683 175 633 117 541 C61 453 29 339 29 215 C29 80 111 -12 228 -12 C329 -12 411 36 471 131 C525 217 555 328 555 451 C555 594 478 683 352 683 L352 683 Z M428 498 C428 380 404 260 367 168 C334 87 295 47 244 47 C188 47 157 91 157 177 C157 288 182 409 219 501 C253 584 294 625 343 625 C400 625 428 583 428 498 L428 498 Z " />
<glyph glyph-name="one" unicode="1" horiz-adv-x="586" d="M377 681 L142 610 L142 561 L284 579 L295 574 L201 75 L185 58 L79 51 L79 0 L425 0 L425 51 L332 56 L322 72 L437 681 L377 681 Z " />
<glyph glyph-name="two" unicode="2" horiz-adv-x="586" d="M132 101 C397 254 531 381 531 513 C531 613 455 682 335 682 C257 682 185 653 135 603 C108 576 94 546 94 519 C94 482 116 458 155 458 C174 458 194 463 213 473 L238 609 C259 615 279 618 296 618 C361 618 401 578 401 513 C401 372 262 254 3 75 L-3 0 L475 0 L510 191 L444 191 L411 101 L132 101 Z " />
<glyph glyph-name="three" unicode="3" horiz-adv-x="586" d="M339 357 C468 383 539 455 539 537 C539 619 468 683 348 683 C202 683 103 606 103 536 C103 501 128 476 164 476 C179 476 197 482 218 491 L238 609 C258 617 277 622 296 622 C360 622 402 582 402 524 C402 439 335 379 224 379 C216 379 207 379 198 380 L186 307 C211 311 232 313 249 313 C325 313 366 275 366 209 C366 114 298 47 198 47 C182 47 163 53 141 63 L129 171 C111 178 96 182 83 182 C43 182 12 150 12 108 C12 47 85 -11 202 -11 C282 -11 358 14 414 56 C473 100 505 160 505 215 C505 303 451 350 339 357 L339 357 Z " />
<glyph glyph-name="four" unicode="4" horiz-adv-x="586" d="M420 676 L14 259 L-2 180 L309 180 L270 -32 L384 -32 L425 180 L536 180 L550 259 L439 259 L518 676 L420 676 Z M381 543 L325 259 L107 259 L381 543 Z " />
<glyph glyph-name="five" unicode="5" horiz-adv-x="586" d="M166 671 L100 334 C141 339 179 343 217 343 C317 343 373 295 373 218 C373 124 302 47 196 47 C178 47 162 49 147 56 L132 164 C120 170 106 173 92 173 C49 173 20 143 20 104 C20 43 87 -10 194 -10 C374 -10 504 110 504 256 C504 353 430 420 315 420 C278 420 237 413 189 400 L224 570 L532 570 L551 671 L166 671 Z " />
<glyph glyph-name="six" unicode="6" horiz-adv-x="586" d="M508 719 C391 706 295 668 217 605 C99 510 31 371 31 226 C31 75 115 -12 245 -12 C321 -12 390 16 444 67 C499 119 531 196 531 264 C531 385 462 456 353 456 C300 456 248 439 194 405 C239 548 357 642 516 656 L508 719 Z M180 349 C214 368 247 377 280 377 C361 377 402 330 402 238 C402 129 338 51 266 51 C202 51 161 108 161 213 C161 261 168 308 180 349 L180 349 Z " />
<glyph glyph-name="seven" unicode="7" horiz-adv-x="586" d="M136 671 L97 464 L163 464 L197 563 L483 563 L74 -34 L183 -34 L185 -7 L602 610 L612 671 L136 671 Z " />
<glyph glyph-name="eight" unicode="8" horiz-adv-x="586" d="M354 379 C267 421 226 454 226 510 C226 579 275 628 343 628 C399 628 436 588 436 526 C436 469 407 413 354 379 L354 379 Z M399 358 C498 395 549 456 549 536 C549 625 478 686 355 686 C208 686 102 591 102 475 C102 414 130 370 189 338 C82 302 24 233 24 155 C24 51 104 -18 247 -18 C412 -18 525 84 525 206 C525 273 484 316 399 358 L399 358 Z M230 313 C341 263 397 233 397 169 C397 95 342 44 270 44 C193 44 144 91 144 166 C144 226 172 274 230 313 L230 313 Z " />
<glyph glyph-name="nine" unicode="9" horiz-adv-x="586" d="M408 333 C370 310 333 299 298 299 C225 299 180 349 180 434 C180 543 251 624 321 624 C383 624 427 569 427 467 C427 433 422 387 408 333 L408 333 Z M72 -58 C382 30 557 241 557 464 C557 603 477 684 338 684 C275 684 219 665 168 629 C93 575 48 492 48 408 C48 299 124 223 227 223 C274 223 325 240 387 270 C321 136 211 45 56 -2 L72 -58 Z " />
<glyph glyph-name="colon" unicode="&#x3a;" horiz-adv-x="346" d="M185 486 C144 486 110 452 110 409 C110 366 144 332 185 332 C227 332 262 366 262 409 C262 452 227 486 185 486 L185 486 Z M125 149 C83 149 50 114 50 71 C50 28 84 -6 125 -6 C167 -6 202 28 202 71 C202 115 168 149 125 149 L125 149 Z " />
<glyph glyph-name="semicolon" unicode="&#x3b;" horiz-adv-x="346" d="M185 486 C144 486 110 452 110 409 C110 366 144 332 185 332 C227 332 262 366 262 409 C262 452 227 486 185 486 L185 486 Z M-24 -175 C109 -159 201 -53 201 52 C201 99 173 129 126 129 C80 129 44 93 44 45 C44 31 48 18 56 7 L116 7 C106 -68 61 -115 -16 -129 L-24 -175 Z " />
<glyph glyph-name="less" unicode="&#x3c;" horiz-adv-x="833" d="M704 484 L704 574 L129 337 L129 259 L704 23 L704 112 L248 298 L704 484 Z " />
<glyph glyph-name="equal" unicode="&#x3d;" horiz-adv-x="833" d="M709 440 L124 440 L124 358 L709 358 L709 440 Z M709 238 L124 238 L124 157 L709 157 L709 238 Z " />
<glyph glyph-name="greater" unicode="&#x3e;" horiz-adv-x="833" d="M704 337 L129 574 L129 484 L585 298 L129 112 L129 23 L704 259 L704 337 Z " />
<glyph glyph-name="question" unicode="&#x3f;" horiz-adv-x="492" d="M218 284 C385 335 470 422 470 529 C470 623 399 683 279 683 C157 683 79 623 79 560 C79 528 101 511 143 511 C149 511 156 511 163 512 L229 625 L232 625 C303 625 341 590 341 529 C341 440 278 366 161 328 L136 193 L201 193 L218 284 Z M158 145 C114 145 74 105 74 59 C74 22 104 -7 138 -7 C185 -7 224 33 224 78 C224 116 196 145 158 145 L158 145 Z " />
<glyph glyph-name="at" unicode="&#x40;" horiz-adv-x="936" d="M545 442 L582 389 L545 190 C514 148 482 122 450 122 C402 122 376 164 376 233 C376 356 444 444 526 444 C532 444 538 443 545 442 L545 442 Z M542 135 C542 81 569 56 622 56 C688 56 766 99 816 176 C852 232 871 299 871 373 C871 562 738 693 534 693 C412 693 302 651 221 578 C125 490 76 379 76 246 C76 128 114 31 188 -40 C265 -114 365 -153 477 -153 C571 -153 675 -124 781 -65 L764 -26 C680 -74 593 -98 505 -98 C294 -98 152 44 152 259 C152 375 192 470 274 546 C343 610 431 643 534 643 C708 643 820 533 820 370 C820 295 795 221 753 169 C726 135 695 122 668 122 C647 122 632 133 632 156 C632 168 635 187 641 214 L678 384 C686 420 692 454 705 488 L637 488 L619 465 C585 483 553 492 521 492 C450 492 377 454 328 388 C292 339 272 280 272 217 C272 118 325 56 397 56 C443 56 490 83 542 135 L542 135 Z " />
<glyph glyph-name="A" unicode="A" horiz-adv-x="634" d="M339 677 L-12 56 L-68 49 L-68 0 L147 0 L147 49 L88 53 L78 68 L170 236 L393 236 L421 70 L410 55 L349 49 L349 0 L612 0 L612 49 L554 56 L544 69 L442 677 L339 677 Z M342 551 L383 291 L200 291 L342 551 Z " />
<glyph glyph-name="B" unicode="B" horiz-adv-x="628" d="M82 671 L82 624 L146 619 L157 605 L56 69 L41 54 L-23 49 L-23 0 L275 0 C462 0 561 82 561 220 C561 305 508 353 406 358 C519 388 579 454 579 542 C579 630 514 671 382 671 L82 671 Z M239 375 L284 618 C298 619 310 620 322 620 C403 620 443 590 443 528 C443 431 383 373 275 373 C264 373 252 374 239 375 L239 375 Z M180 56 L230 318 C250 320 268 321 284 321 C378 321 423 287 423 217 C423 108 360 53 235 53 C218 53 199 54 180 56 L180 56 Z " />
<glyph glyph-name="C" unicode="C" horiz-adv-x="625" d="M636 650 C569 672 505 684 440 684 C319 684 203 628 131 537 C68 457 37 368 37 272 C37 100 149 -13 322 -13 C386 -13 456 -1 527 23 L559 196 L492 196 L446 72 L427 54 C406 49 387 47 370 47 C250 47 176 127 176 263 C176 381 215 484 281 550 C328 598 390 622 462 622 C481 622 503 617 528 608 L538 590 L539 481 L605 481 L636 650 Z " />
<glyph glyph-name="D" unicode="D" horiz-adv-x="702" d="M82 671 L82 623 L146 618 L156 603 L55 69 L41 54 L-25 49 L-25 0 L224 0 C360 0 460 32 536 108 C616 189 660 299 660 423 C660 517 611 600 534 638 C482 664 424 671 352 671 L82 671 Z M285 615 L339 615 C453 615 519 545 519 419 C519 321 488 221 440 155 C391 88 321 57 222 57 L181 57 L285 615 Z " />
<glyph glyph-name="E" unicode="E" horiz-adv-x="581" d="M85 671 L85 622 L149 617 L158 601 L57 69 L43 54 L-22 48 L-22 0 L491 0 L524 179 L458 179 L420 72 L406 58 L180 58 L230 319 L351 319 L364 305 L362 230 L416 230 L460 463 L403 463 L378 389 L363 375 L241 375 L286 615 L474 615 L485 600 L486 515 L550 515 L580 671 L85 671 Z " />
<glyph glyph-name="F" unicode="F" horiz-adv-x="539" d="M83 671 L83 623 L148 618 L158 605 L56 69 L43 55 L-23 50 L-23 0 L257 0 L261 50 L194 55 L182 70 L227 306 L345 306 L359 294 L357 216 L412 216 L457 451 L400 451 L374 376 L356 364 L237 364 L285 614 L461 614 L471 601 L473 503 L536 503 L569 671 L83 671 Z " />
<glyph glyph-name="G" unicode="G" horiz-adv-x="693" d="M657 652 C600 673 533 685 462 685 C365 685 277 656 202 602 C98 526 38 405 38 270 C38 98 149 -12 326 -12 C393 -12 468 2 548 30 L593 262 L608 276 L671 281 L671 330 L388 330 L388 281 L456 275 L467 261 L429 54 C406 52 389 51 376 51 C253 51 177 134 177 267 C177 386 220 490 293 556 C341 600 403 623 476 623 C496 623 519 619 544 611 L556 592 L554 481 L626 481 L657 652 Z " />
<glyph glyph-name="H" unicode="H" horiz-adv-x="747" d="M84 671 L84 623 L146 618 L156 603 L55 70 L39 54 L-25 49 L-25 0 L256 0 L256 49 L192 53 L181 70 L228 321 L508 321 L462 70 L446 55 L383 49 L383 0 L660 0 L660 49 L596 55 L587 70 L688 605 L701 618 L767 623 L767 671 L489 671 L489 623 L549 618 L562 603 L520 381 L240 381 L282 605 L295 618 L360 623 L360 671 L84 671 Z " />
<glyph glyph-name="I" unicode="I" horiz-adv-x="353" d="M87 671 L87 623 L152 619 L162 605 L61 69 L46 54 L-20 49 L-20 0 L263 0 L263 49 L198 53 L186 67 L287 605 L303 619 L369 623 L369 671 L87 671 Z " />
<glyph glyph-name="J" unicode="J" horiz-adv-x="474" d="M214 671 L214 623 L281 619 L291 604 L231 270 C204 118 184 44 76 44 L74 44 L61 56 L60 192 L-11 192 L-45 14 C-2 -4 47 -13 102 -13 C248 -13 326 79 358 268 L415 601 L429 617 L496 623 L496 671 L214 671 Z " />
<glyph glyph-name="K" unicode="K" horiz-adv-x="653" d="M81 671 L81 624 L144 619 L154 605 L53 69 L38 54 L-26 49 L-26 0 L253 0 L253 49 L191 53 L180 69 L221 293 L284 293 L375 103 C412 26 437 -7 518 -7 C540 -7 579 -4 637 1 L637 48 C630 48 623 47 616 47 C555 47 534 69 508 121 L380 377 L614 614 L694 624 L694 671 L444 671 L444 624 L506 617 L512 601 L261 343 L231 343 L281 605 L294 619 L360 624 L360 671 L81 671 Z " />
<glyph glyph-name="L" unicode="L" horiz-adv-x="529" d="M81 671 L81 623 L144 619 L154 605 L53 67 L37 54 L-25 48 L-25 0 L450 0 L488 197 L416 197 L377 72 L359 58 L178 58 L280 605 L297 618 L360 623 L360 671 L81 671 Z " />
<glyph glyph-name="M" unicode="M" horiz-adv-x="894" d="M85 671 L85 622 L151 618 L160 602 L55 71 L40 56 L-24 49 L-24 0 L199 0 L199 49 L139 54 L127 68 L231 602 L326 0 L398 0 L715 607 L619 69 L605 55 L539 49 L539 0 L809 0 L809 49 L747 54 L737 69 L833 603 L848 617 L912 622 L912 671 L661 671 L661 644 L417 178 L343 641 L343 671 L85 671 Z " />
<glyph glyph-name="N" unicode="N" horiz-adv-x="712" d="M80 671 L80 624 L144 619 L155 605 L53 70 L39 55 L-26 49 L-26 0 L202 0 L202 49 L136 55 L127 72 L217 542 L447 0 L550 0 L663 606 L679 619 L743 624 L743 671 L514 671 L514 624 L579 618 L591 605 L506 162 L301 647 L301 671 L80 671 Z " />
<glyph glyph-name="O" unicode="O" horiz-adv-x="729" d="M412 684 C302 684 197 632 130 543 C70 464 38 368 38 265 C38 99 148 -13 313 -13 C426 -13 527 37 598 130 C657 208 690 305 690 408 C690 573 580 684 412 684 L412 684 Z M549 416 C549 319 524 226 485 161 C440 86 383 48 324 48 C238 48 176 126 176 256 C176 349 202 443 244 512 C288 586 344 624 403 624 C492 624 549 549 549 416 L549 416 Z " />
<glyph glyph-name="P" unicode="P" horiz-adv-x="581" d="M84 671 L84 624 L146 619 L156 602 L55 68 L40 54 L-24 49 L-24 0 L256 0 L256 49 L190 53 L181 70 L215 250 C241 248 263 248 280 248 C469 248 583 356 583 502 C583 621 504 671 342 671 L84 671 Z M284 615 C293 616 301 616 309 616 C401 616 446 578 446 501 C446 376 375 305 254 305 C245 305 235 305 225 306 L284 615 Z " />
<glyph glyph-name="Q" unicode="Q" horiz-adv-x="729" d="M704 -70 C661 -85 627 -91 605 -91 C543 -91 512 -54 472 29 C611 105 689 243 689 409 C689 572 579 684 415 684 C310 684 211 638 143 557 C75 476 36 371 36 266 C36 170 79 88 155 33 C198 3 248 -11 310 -11 C320 -11 331 -11 343 -10 C391 -115 447 -164 529 -164 C575 -164 632 -147 704 -116 L704 -70 Z M178 271 C178 311 185 356 200 407 C218 469 243 516 269 546 C309 593 350 617 397 617 C484 617 546 538 546 403 C546 289 509 184 459 125 C420 79 378 55 333 55 C243 55 178 136 178 271 L178 271 Z " />
<glyph glyph-name="R" unicode="R" horiz-adv-x="645" d="M82 671 L82 623 L147 618 L158 603 L56 67 L41 54 L-22 48 L-22 0 L259 0 L259 48 L192 54 L183 68 L226 295 C231 295 236 296 241 296 C307 296 350 264 363 210 C383 126 391 62 441 22 C466 2 498 -6 540 -6 C565 -6 596 -4 632 1 L632 47 C628 47 623 46 619 46 C544 46 531 74 510 150 C483 247 463 308 375 326 C510 347 586 424 586 527 C586 627 516 671 372 671 L82 671 Z M237 352 L287 615 C295 615 302 616 309 616 C404 616 448 584 448 511 C448 414 382 351 266 351 C256 351 247 351 237 352 L237 352 Z " />
<glyph glyph-name="S" unicode="S" horiz-adv-x="553" d="M23 45 C82 10 145 -7 212 -7 C370 -7 479 93 479 215 C479 301 426 336 334 388 C255 433 208 457 208 513 C208 574 264 624 346 624 C372 624 394 619 416 607 L424 597 L422 487 L482 487 L509 656 C451 674 397 683 347 683 C191 683 89 595 89 475 C89 433 102 398 128 374 C168 336 214 314 254 291 C315 255 354 231 354 174 C354 111 299 58 213 58 C182 58 153 65 122 78 L115 88 L116 207 L50 207 L23 45 Z " />
<glyph glyph-name="T" unicode="T" horiz-adv-x="584" d="M71 671 L37 495 L107 495 L143 603 L161 616 L274 616 L173 70 L159 54 L90 50 L90 0 L378 0 L378 50 L310 55 L299 69 L402 616 L515 616 L529 603 L527 495 L594 495 L627 671 L71 671 Z " />
<glyph glyph-name="U" unicode="U" horiz-adv-x="701" d="M76 671 L76 624 L137 618 L149 605 L82 254 C75 217 72 186 72 164 C72 50 148 -13 286 -13 C382 -13 458 14 506 62 C560 116 574 178 588 251 L656 603 L671 617 L735 624 L735 671 L509 671 L509 624 L575 617 L585 600 L516 249 C492 124 446 66 328 66 C250 66 201 110 201 185 C201 203 204 228 210 258 L276 607 L290 619 L353 624 L353 671 L76 671 Z " />
<glyph glyph-name="V" unicode="V" horiz-adv-x="617" d="M27 671 L27 623 L83 616 L92 603 L191 -3 L288 -3 L619 616 L677 623 L677 671 L466 671 L466 623 L524 619 L531 606 L289 137 L215 603 L224 619 L285 623 L285 671 L27 671 Z " />
<glyph glyph-name="W" unicode="W" horiz-adv-x="921" d="M43 671 L43 623 L98 616 L108 604 L155 0 L246 0 L484 515 L537 0 L627 0 L900 615 L963 623 L963 671 L751 671 L751 623 L809 618 L817 604 L630 175 L579 671 L483 671 L259 184 L227 601 L238 618 L299 623 L299 671 L43 671 Z " />
<glyph glyph-name="X" unicode="X" horiz-adv-x="608" d="M52 671 L52 624 L115 618 L123 609 L246 332 L6 63 L-7 54 L-65 48 L-65 0 L174 0 L174 48 L111 53 L101 67 L278 267 L364 68 L352 53 L288 48 L288 0 L565 0 L565 48 L504 52 L495 61 L363 360 L593 618 L658 624 L658 671 L433 671 L433 624 L489 619 L495 605 L333 420 L254 603 L265 618 L326 624 L326 671 L52 671 Z " />
<glyph glyph-name="Y" unicode="Y" horiz-adv-x="586" d="M26 671 L26 623 L89 617 L98 609 L212 262 L176 71 L160 55 L93 49 L93 0 L377 0 L377 49 L309 55 L298 68 L337 276 L581 606 L591 615 L656 623 L656 671 L422 671 L422 623 L486 616 L495 600 L310 343 L225 603 L237 617 L299 623 L299 671 L26 671 Z " />
<glyph glyph-name="Z" unicode="Z" horiz-adv-x="572" d="M118 671 L84 493 L156 493 L190 602 L208 612 L421 612 L-14 50 L-17 0 L470 0 L507 196 L436 196 L398 73 L382 59 L141 59 L577 622 L580 671 L118 671 Z " />
<glyph glyph-name="bracketleft" unicode="&#x5b;" horiz-adv-x="449" d="M203 708 L51 -132 L321 -132 L330 -77 L176 -77 L308 652 L462 652 L472 708 L203 708 Z " />
<glyph glyph-name="backslash" unicode="&#x5c;" horiz-adv-x="481" d="M102 671 L21 671 L425 -93 L504 -93 L102 671 Z " />
<glyph glyph-name="bracketright" unicode="&#x5d;" horiz-adv-x="449" d="M109 708 L99 653 L253 653 L122 -77 L-32 -77 L-42 -132 L227 -132 L378 708 L109 708 Z " />
<glyph glyph-name="asciicircum" unicode="&#x5e;" horiz-adv-x="1000" d="M552 714 L447 714 L201 438 L252 438 L499 632 L746 438 L797 438 L552 714 Z " />
<glyph glyph-name="underscore" unicode="&#x5f;" horiz-adv-x="500" d="M500 -152 L0 -152 L0 -236 L500 -236 L500 -152 Z " />
<glyph glyph-name="grave" unicode="&#x60;" horiz-adv-x="500" d="M164 742 L281 552 L348 552 L288 742 L164 742 Z " />
<glyph glyph-name="a" unicode="a" horiz-adv-x="572" d="M453 493 L416 469 C376 485 338 493 300 493 C211 493 128 449 78 373 C38 312 18 246 18 174 C18 59 72 -8 162 -8 C211 -8 265 19 321 72 L321 67 C321 19 347 -8 396 -8 C434 -8 484 6 547 29 L547 66 C522 59 502 55 486 55 C457 55 439 74 439 109 C439 122 442 145 448 179 L478 341 C493 422 505 472 512 493 L453 493 Z M330 445 L370 385 L323 120 C285 89 253 73 222 73 C173 73 146 112 146 188 C146 340 224 446 317 446 C322 446 326 445 330 445 L330 445 Z " />
<glyph glyph-name="b" unicode="b" horiz-adv-x="556" d="M135 650 L27 35 C78 6 135 -9 198 -9 C283 -9 355 18 407 70 C471 134 508 224 508 316 C508 426 450 494 373 494 C326 494 273 471 212 424 L247 615 C254 654 261 695 268 736 L224 736 L53 698 L53 663 L135 650 Z M151 67 L206 381 C243 404 273 416 298 416 C353 416 382 377 382 301 C382 151 300 39 223 39 C197 39 172 49 151 67 L151 67 Z " />
<glyph glyph-name="c" unicode="c" horiz-adv-x="437" d="M326 339 C378 341 409 371 409 412 C409 461 370 493 299 493 C219 493 132 449 82 381 C38 321 16 254 16 182 C16 65 84 -10 185 -10 C247 -10 322 21 394 85 L394 144 C337 94 282 70 240 70 C178 70 141 118 141 205 C141 329 195 422 262 441 L326 339 Z " />
<glyph glyph-name="d" unicode="d" horiz-adv-x="579" d="M509 736 L335 697 L335 663 L419 650 L391 479 C363 490 334 496 304 496 C213 496 129 449 76 368 C40 312 21 246 21 177 C21 62 81 -8 163 -8 C213 -8 268 20 325 77 L325 74 C325 19 351 -8 407 -8 C446 -8 496 6 558 29 L558 66 C533 59 512 55 496 55 C468 55 449 74 449 106 C449 120 452 144 458 179 L551 736 L509 736 Z M333 449 L375 389 L332 128 C292 91 254 72 223 72 C176 72 147 114 147 189 C147 340 233 451 313 451 C318 451 325 450 333 449 L333 449 Z " />
<glyph glyph-name="e" unicode="e" horiz-adv-x="464" d="M141 227 C152 227 162 226 172 226 C339 226 431 287 431 382 C431 448 385 491 307 491 C247 491 183 467 132 424 C58 361 19 275 19 181 C19 62 85 -9 196 -9 C257 -9 327 18 401 75 L403 136 C343 89 289 66 246 66 C179 66 139 112 139 197 C139 206 140 216 141 227 L141 227 Z M149 269 C177 382 229 441 281 441 C311 441 330 421 330 390 C330 333 261 274 149 269 L149 269 Z " />
<glyph glyph-name="f" unicode="f" horiz-adv-x="325" d="M383 598 C423 607 447 634 447 664 C447 701 409 733 350 733 C246 733 141 636 113 478 L35 444 L34 400 L101 408 L58 102 C41 -20 24 -103 -7 -146 L-114 -89 C-141 -100 -154 -122 -154 -154 C-154 -185 -124 -214 -89 -214 C-21 -214 50 -165 107 -75 C145 -14 167 58 179 147 L216 408 L361 408 L361 467 L225 467 C245 576 269 650 299 686 L383 598 Z " />
<glyph glyph-name="g" unicode="g" horiz-adv-x="517" d="M390 463 C349 482 308 492 266 492 C136 492 44 406 44 301 C44 235 83 188 158 168 C130 133 116 102 116 66 L116 62 C18 23 -30 -22 -30 -85 C-30 -163 46 -218 169 -218 C332 -218 439 -141 439 -61 C439 -12 409 18 348 47 L197 119 L197 123 C197 135 201 148 209 161 C345 162 435 245 435 354 C435 371 431 390 425 411 L527 411 L527 463 L390 463 Z M319 371 C319 278 267 207 219 207 C184 207 164 234 164 283 C164 374 216 448 264 448 C300 448 319 422 319 371 L319 371 Z M141 29 L261 -26 C300 -44 321 -66 321 -90 C321 -132 274 -168 206 -168 C128 -168 77 -120 77 -59 C77 -22 98 6 141 29 L141 29 Z " />
<glyph glyph-name="h" unicode="h" horiz-adv-x="595" d="M241 736 L63 697 L64 665 L151 655 L20 0 L144 0 L206 342 C260 387 304 408 333 408 C363 408 381 388 381 351 C381 336 378 313 372 284 L336 118 C331 97 328 79 328 65 C328 18 356 -6 409 -6 C448 -6 498 6 560 29 L560 66 C535 59 514 55 498 55 C470 55 452 74 452 106 C452 122 456 146 463 179 L493 317 C500 351 504 378 504 398 C504 457 466 494 408 494 C359 494 295 461 215 395 L249 564 C263 632 275 689 286 736 L241 736 Z " />
<glyph glyph-name="i" unicode="i" horiz-adv-x="318" d="M220 725 C176 725 143 692 143 649 C143 612 170 586 211 586 C254 586 287 619 287 661 C287 699 262 725 220 725 L220 725 Z M200 493 L29 456 L29 420 L111 407 L57 138 C52 111 48 89 48 71 C48 17 74 -7 129 -7 C173 -7 227 7 293 32 L293 73 C263 64 240 59 224 59 C192 59 175 78 175 114 C175 124 177 138 180 155 L244 493 L200 493 Z " />
<glyph glyph-name="j" unicode="j" horiz-adv-x="297" d="M217 723 C173 723 140 690 140 648 C140 611 167 584 208 584 C251 584 284 617 284 659 C284 698 259 723 217 723 L217 723 Z M116 407 L69 90 C52 -23 37 -100 5 -140 L-112 -93 C-134 -104 -146 -125 -146 -154 C-146 -190 -119 -214 -78 -214 C-30 -214 31 -179 96 -108 C164 -33 179 53 195 155 L249 493 L205 493 L26 456 L26 420 L116 407 Z " />
<glyph glyph-name="k" unicode="k" horiz-adv-x="559" d="M240 736 L60 697 L60 664 L149 656 L23 0 L142 0 L177 197 L223 247 L286 101 C316 30 340 -7 401 -7 C430 -7 478 3 543 22 L543 61 C523 56 506 53 490 53 C424 53 389 142 313 321 C327 335 358 362 405 398 L441 340 C495 356 522 387 522 427 C522 465 495 494 461 494 C418 494 376 458 316 395 L186 258 L283 736 L240 736 Z " />
<glyph glyph-name="l" unicode="l" horiz-adv-x="307" d="M140 650 L41 118 C36 93 34 75 34 65 C34 17 66 -9 123 -9 C157 -9 209 6 280 31 L280 70 C248 60 223 55 204 55 C176 55 158 74 158 106 C158 126 163 150 169 179 L273 736 L229 736 L58 698 L58 663 L140 650 Z " />
<glyph glyph-name="m" unicode="m" horiz-adv-x="883" d="M202 493 L32 452 L32 417 L112 405 L34 0 L156 0 L217 347 C268 389 310 408 338 408 C370 408 388 388 388 351 C388 337 385 321 381 301 L323 0 L446 0 L505 346 C548 388 593 408 623 408 C655 408 673 389 673 353 C673 336 670 317 665 295 L627 118 C622 96 619 79 619 65 C619 18 647 -6 700 -6 C739 -6 789 6 851 29 L851 66 C826 59 805 55 789 55 C761 55 743 74 743 106 C743 122 747 146 754 179 L786 329 C791 354 794 375 794 394 C794 455 756 493 695 493 C648 493 583 462 509 398 C506 460 473 493 415 493 C364 493 297 462 222 395 L241 493 L202 493 Z " />
<glyph glyph-name="n" unicode="n" horiz-adv-x="600" d="M202 493 L26 450 L26 417 L109 406 L29 0 L156 0 L215 342 C268 386 311 408 340 408 C371 408 389 387 389 350 C389 335 386 313 380 284 L344 118 C340 98 336 80 336 65 C336 19 364 -6 417 -6 C455 -6 506 5 568 28 L568 66 C543 59 522 55 506 55 C478 55 460 74 460 105 C460 120 463 144 471 179 L501 316 C508 348 512 374 512 395 C512 456 474 493 416 493 C366 493 302 460 221 394 L241 493 L202 493 Z " />
<glyph glyph-name="o" unicode="o" horiz-adv-x="550" d="M298 493 C225 493 156 464 106 412 C51 355 19 276 19 197 C19 70 97 -11 222 -11 C296 -11 364 18 414 70 C470 128 501 206 501 287 C501 413 424 493 298 493 L298 493 Z M285 441 C343 441 372 394 372 298 C372 145 307 41 233 41 C178 41 148 89 148 181 C148 338 213 441 285 441 L285 441 Z " />
<glyph glyph-name="p" unicode="p" horiz-adv-x="565" d="M194 493 L27 456 L27 423 L105 411 L7 -149 L-2 -162 L-63 -179 L-63 -218 L216 -218 L216 -179 L123 -161 L153 13 C179 3 205 -3 231 -3 C304 -3 377 29 428 83 C490 148 519 224 519 319 C519 428 464 494 385 494 C334 494 281 471 224 425 L238 493 L194 493 Z M162 70 L217 376 C256 405 288 417 315 417 C363 417 394 379 394 306 C394 158 318 53 231 53 C210 53 187 58 162 70 L162 70 Z " />
<glyph glyph-name="q" unicode="q" horiz-adv-x="562" d="M462 496 L417 473 C376 488 338 496 303 496 C226 496 154 462 101 399 C51 340 24 263 24 177 C24 62 80 -6 167 -6 C214 -6 264 18 322 66 L283 -152 L272 -166 L210 -179 L210 -218 L491 -218 L491 -179 L401 -163 L481 306 C491 367 503 431 515 496 L462 496 Z M334 448 L377 386 L332 117 C295 88 264 73 233 73 C178 73 147 114 147 191 C147 265 175 345 209 389 C240 430 275 449 315 449 C321 449 328 449 334 448 L334 448 Z " />
<glyph glyph-name="r" unicode="r" horiz-adv-x="449" d="M198 493 L26 452 L26 418 L109 406 L29 0 L152 0 L191 232 C206 321 243 376 324 410 L351 334 L353 334 C412 334 450 371 450 419 C450 463 419 493 376 493 C330 493 269 448 205 359 L233 493 L198 493 Z " />
<glyph glyph-name="s" unicode="s" horiz-adv-x="403" d="M104 134 C89 149 70 157 47 157 C14 157 -12 132 -12 95 C-12 37 48 -10 140 -10 C253 -10 337 66 337 156 C337 224 296 255 231 302 C181 338 151 362 151 392 C151 423 180 449 223 449 C230 449 237 448 244 447 L291 357 C335 358 362 384 362 419 C362 463 320 493 247 493 C133 493 49 422 49 333 C49 284 83 254 145 211 C192 179 228 161 228 109 C228 68 197 37 153 37 C131 37 109 45 86 61 L104 134 Z " />
<glyph glyph-name="t" unicode="t" horiz-adv-x="366" d="M191 601 L125 491 L39 448 L39 412 L105 415 L55 151 C50 125 48 103 48 87 C48 25 81 -8 144 -8 C180 -8 238 7 317 35 L317 75 C281 63 253 57 230 57 C191 57 171 78 171 120 C171 131 173 148 177 170 L222 415 L370 415 L370 473 L233 473 L256 601 L191 601 Z " />
<glyph glyph-name="u" unicode="u" horiz-adv-x="599" d="M201 487 L28 450 L28 419 L108 407 L59 147 C55 128 53 107 53 87 C53 28 92 -10 156 -10 C199 -10 262 18 340 77 L340 68 C340 18 366 -10 415 -10 C449 -10 501 4 572 29 L572 66 C547 59 526 55 510 55 C482 55 463 74 463 106 C463 125 468 149 474 179 L533 487 L414 475 L346 123 C296 90 254 75 226 75 C192 75 173 93 173 129 C173 141 176 161 181 188 L239 487 L201 487 Z " />
<glyph glyph-name="v" unicode="v" horiz-adv-x="492" d="M150 493 L-8 456 L-8 424 L73 412 C84 392 90 348 97 281 L118 73 C118 69 119 64 119 60 C119 41 115 22 108 -1 L194 -1 C383 205 472 353 472 425 C472 468 446 493 405 493 C386 493 364 486 343 469 L366 321 C334 256 288 184 226 108 L201 392 C196 450 191 481 150 493 L150 493 Z " />
<glyph glyph-name="w" unicode="w" horiz-adv-x="768" d="M141 494 L-2 456 L-2 423 L81 411 L103 31 L94 0 L188 0 C251 111 314 226 375 345 L395 0 L481 0 C647 208 740 341 740 424 C740 465 714 494 675 494 C651 494 630 485 613 467 L637 317 C615 264 567 190 496 95 C485 259 478 386 474 479 L380 471 C329 358 270 245 207 129 L187 494 L141 494 Z " />
<glyph glyph-name="x" unicode="x" horiz-adv-x="510" d="M162 494 L25 450 L25 416 L116 409 C131 390 154 332 186 230 C152 160 110 110 69 82 L26 135 C-14 125 -38 96 -38 64 C-38 29 -6 -1 33 -1 C90 -1 143 59 208 178 C235 50 266 -6 343 -6 C374 -6 417 4 475 22 L475 61 C456 57 438 54 420 54 C354 54 338 120 297 265 C332 338 370 383 408 400 L447 347 C488 359 511 388 511 423 C511 460 485 487 448 487 C392 487 336 429 274 315 C243 437 225 494 169 494 L162 494 Z " />
<glyph glyph-name="y" unicode="y" horiz-adv-x="494" d="M140 494 L-14 459 L-14 426 L73 418 C84 397 93 371 98 343 L158 26 L196 26 C142 -77 92 -131 47 -135 L-20 -72 C-56 -80 -79 -107 -79 -140 C-79 -180 -42 -216 6 -216 C88 -216 171 -137 259 21 C336 159 376 303 454 407 L513 440 L513 467 L434 494 L403 494 C341 349 291 225 250 122 L216 340 C201 436 183 485 140 494 L140 494 Z " />
<glyph glyph-name="z" unicode="z" horiz-adv-x="465" d="M387 502 L364 445 C359 444 354 444 350 444 C333 444 316 448 296 456 C264 469 229 495 181 495 C133 495 86 465 53 410 C36 382 28 354 28 331 C28 292 47 267 77 267 C101 267 122 281 137 309 L79 376 C93 391 110 398 131 398 C156 398 185 386 220 361 L307 379 L-20 27 L50 -14 L74 36 C83 38 91 39 97 39 C146 39 202 -2 264 -2 C311 -2 346 15 378 52 C408 87 424 127 424 162 C424 202 398 231 366 231 C342 231 322 216 308 187 L372 115 C355 99 335 90 313 90 C286 90 255 104 217 132 L130 108 L461 456 L387 502 Z " />
<glyph glyph-name="braceleft" unicode="&#x7b;" horiz-adv-x="487" d="M501 705 L476 705 C321 705 250 659 225 532 L209 448 C191 354 156 320 64 320 L44 320 L33 263 L53 263 C124 263 154 242 154 186 C154 171 152 153 148 132 L132 51 C127 24 124 2 124 -14 C124 -103 179 -135 307 -135 C317 -135 327 -134 338 -134 L348 -81 C274 -81 241 -61 241 -12 C241 1 243 21 248 46 L262 119 C265 136 267 154 267 170 C267 239 228 278 147 292 C254 309 309 362 329 467 L341 529 C358 619 390 651 491 654 L501 705 Z " />
<glyph glyph-name="bar" unicode="&#x7c;" horiz-adv-x="500" d="M294 764 L207 764 L207 -236 L294 -236 L294 764 Z " />
<glyph glyph-name="braceright" unicode="&#x7d;" horiz-adv-x="487" d="M130 705 L120 654 C193 653 229 630 229 582 C229 566 226 549 222 529 L210 467 C206 445 204 426 204 411 C204 343 242 305 323 292 C219 276 162 221 142 119 L128 46 C110 -47 83 -80 -22 -81 L-33 -134 C-21 -134 -10 -135 0 -135 C153 -135 218 -86 245 51 L261 132 C280 227 314 264 404 264 C411 264 418 263 426 263 L437 320 C429 320 422 319 415 319 C347 319 316 342 316 395 C316 409 319 426 323 448 L339 532 C343 555 345 574 345 587 C345 675 285 705 150 705 L130 705 Z " />
<glyph glyph-name="asciitilde" unicode="&#x7e;" horiz-adv-x="833" d="M747 293 L747 383 C679 334 620 308 562 308 C513 308 468 327 419 344 C378 358 333 373 276 373 C218 373 156 350 87 303 L87 212 C158 262 217 290 275 290 C339 290 399 264 468 241 C500 230 532 224 561 224 C621 224 682 248 747 293 L747 293 Z " />
<glyph glyph-name="exclamdown" unicode="&#xa1;" horiz-adv-x="340" d="M173 341 C217 341 257 380 257 426 C257 464 227 493 191 493 C146 493 106 454 106 408 C106 370 135 341 173 341 L173 341 Z M21 -69 C12 -98 6 -121 6 -139 C6 -176 29 -199 69 -199 C135 -199 160 -155 165 -67 L186 288 L134 288 L21 -69 Z " />
<glyph glyph-name="cent" unicode="&#xa2;" horiz-adv-x="586" d="M360 609 L341 509 C162 493 46 367 46 209 C46 98 119 18 244 2 L225 -103 L279 -103 L299 0 C350 1 400 9 450 25 L477 161 L413 161 L384 71 C356 60 331 55 309 54 L385 458 C409 457 430 451 450 440 L448 351 L509 351 L535 481 C506 496 460 505 395 510 L414 609 L360 609 Z M332 455 L257 56 C199 71 167 120 167 201 C167 334 236 436 332 455 L332 455 Z " />
<glyph glyph-name="sterling" unicode="&#xa3;" horiz-adv-x="586" d="M461 509 C467 508 474 508 480 508 C531 508 562 535 562 574 C562 627 504 676 414 676 C260 676 158 565 144 359 L76 359 L69 299 L138 299 C123 159 92 92 -2 75 L-11 0 L478 0 L490 100 L225 100 C201 100 167 99 125 94 L122 100 C202 142 246 207 258 299 L439 299 L447 359 L267 359 C283 538 327 625 415 625 L422 625 L461 509 Z " />
<glyph glyph-name="currency" unicode="&#xa4;" horiz-adv-x="606" d="M181 599 L82 698 L37 653 L136 553 C110 518 97 477 97 432 C97 387 110 346 136 311 L37 211 L82 166 L181 266 C217 239 258 226 304 226 C350 226 389 239 426 266 L525 166 L571 211 L471 311 C497 346 510 387 510 432 C510 477 497 518 471 553 L571 653 L525 698 L426 599 C390 626 349 639 303 639 C257 639 217 626 181 599 L181 599 Z M446 432 C446 354 383 291 304 291 C225 291 162 354 162 432 C162 509 226 574 304 574 C382 574 446 509 446 432 L446 432 Z " />
<glyph glyph-name="yen" unicode="&#xa5;" horiz-adv-x="601" d="M49 668 L49 619 L105 609 L166 428 L37 428 L37 378 L187 378 L219 283 L10 283 L10 234 L220 234 L191 69 L170 54 L99 49 L99 0 L392 0 L392 49 L326 54 L312 69 L341 234 L556 234 L556 283 L347 283 L417 378 L585 378 L585 428 L458 428 L591 608 L651 619 L651 668 L449 668 L449 619 L498 609 L502 593 L325 349 L240 602 L251 613 L312 619 L312 668 L49 668 Z " />
<glyph glyph-name="brokenbar" unicode="&#xa6;" horiz-adv-x="500" d="M294 699 L207 699 L207 329 L294 329 L294 699 Z M294 199 L207 199 L207 -171 L294 -171 L294 199 Z " />
<glyph glyph-name="section" unicode="&#xa7;" horiz-adv-x="500" d="M489 695 C438 711 390 720 342 720 C197 720 108 647 108 551 C108 505 132 474 184 443 C86 405 34 337 34 260 C34 199 64 156 127 122 C212 77 268 59 268 2 C268 -45 220 -89 154 -89 C125 -89 97 -81 68 -64 L71 28 L14 28 L-10 -109 C40 -130 91 -141 144 -141 C287 -141 377 -60 377 36 C377 79 352 112 298 144 C395 182 451 259 451 330 C451 392 416 433 342 474 C267 515 219 528 219 579 C219 625 268 669 331 669 C360 669 387 659 416 641 L411 559 L465 559 L489 695 Z M231 416 C314 378 356 340 356 292 C356 248 322 207 254 172 C169 216 127 244 127 302 C127 347 163 391 231 416 L231 416 Z " />
<glyph glyph-name="dieresis" unicode="&#xa8;" horiz-adv-x="500" d="M201 710 C166 710 138 681 138 644 C138 608 167 579 201 579 C236 579 265 608 265 644 C265 680 236 710 201 710 L201 710 Z M408 710 C373 710 344 681 344 644 C344 608 373 579 408 579 C443 579 472 608 472 644 C472 681 443 710 408 710 L408 710 Z " />
<glyph glyph-name="copyright" unicode="&#xa9;" horiz-adv-x="894" d="M453 729 C349 729 249 688 176 614 C102 539 63 443 63 340 C63 235 102 139 177 65 C251 -9 349 -50 447 -50 C554 -50 649 -11 722 61 C799 137 841 236 841 336 C841 441 800 542 730 613 C657 687 555 729 453 729 L453 729 Z M453 685 C541 685 629 648 693 584 C756 521 793 432 793 340 C793 250 757 164 692 97 C628 31 544 -4 452 -4 C360 -4 278 31 211 97 C145 162 111 246 111 340 C111 432 146 516 211 583 C275 648 362 685 453 685 L453 685 Z M612 549 C558 568 511 574 469 574 C317 574 216 476 216 339 C216 202 316 103 461 103 C515 103 566 112 612 128 L612 253 L560 253 L545 168 C522 158 501 152 479 152 C391 152 326 226 326 340 C326 451 390 525 481 525 C504 525 524 519 544 507 L559 428 L612 428 L612 549 Z " />
<glyph glyph-name="ordfeminine" unicode="&#xaa;" horiz-adv-x="429" d="M383 684 L356 667 C326 678 298 684 270 684 C149 684 56 588 56 459 C56 375 99 325 170 325 C205 325 244 342 284 376 C287 344 308 325 345 325 C375 325 414 336 463 353 L463 386 C442 380 425 377 410 377 C394 377 382 390 382 413 C382 422 383 438 387 460 L408 573 C419 630 429 668 434 684 L383 684 Z M289 643 L318 603 L285 421 C259 400 236 389 215 389 C181 389 161 417 161 469 C161 572 215 643 281 643 L289 643 Z " />
<glyph glyph-name="guillemotleft" unicode="&#xab;" horiz-adv-x="450" d="M227 425 L26 282 L10 198 L159 55 L174 138 L83 240 L212 342 L227 425 Z M428 425 L227 282 L211 198 L360 55 L375 138 L284 240 L413 342 L428 425 Z " />
<glyph glyph-name="logicalnot" unicode="&#xac;" horiz-adv-x="833" d="M709 421 L124 421 L124 340 L628 340 L628 176 L709 176 L709 421 Z " />
<glyph glyph-name="registered" unicode="&#xae;" horiz-adv-x="894" d="M453 729 C349 729 249 688 176 614 C102 539 63 443 63 340 C63 235 102 139 177 65 C251 -9 349 -50 447 -50 C554 -50 649 -11 722 61 C799 137 841 236 841 336 C841 441 800 542 730 613 C657 687 555 729 453 729 L453 729 Z M453 685 C543 685 632 647 696 581 C757 518 793 430 793 340 C793 250 757 163 692 97 C627 31 544 -4 452 -4 C359 -4 276 31 208 100 C143 166 111 248 111 344 C111 431 146 518 211 583 C276 649 363 685 453 685 L453 685 Z M249 559 L249 524 L304 512 L304 169 L252 158 L252 121 L456 121 L456 158 L398 169 L398 313 L410 313 C464 313 490 293 509 242 C524 201 528 161 568 136 C590 122 616 116 648 116 C661 116 681 118 709 122 L709 160 L704 160 C654 160 636 175 620 219 C598 276 589 323 510 338 C590 352 631 392 631 451 C631 522 578 559 473 559 L249 559 Z M398 519 C405 519 411 520 418 520 C490 520 528 488 528 436 C528 384 491 354 419 354 C412 354 405 354 398 355 L398 519 Z " />
<glyph glyph-name="macron" unicode="&#xaf;" horiz-adv-x="500" d="M150 675 L138 607 L469 607 L481 675 L150 675 Z " />
<glyph glyph-name="degree" unicode="&#xb0;" horiz-adv-x="329" d="M165 713 C85 713 21 649 21 568 C21 488 84 424 164 424 C245 424 309 490 309 568 C309 648 245 713 165 713 L165 713 Z M255 569 C255 519 216 478 165 478 C115 478 74 519 74 569 C74 619 115 659 165 659 C215 659 255 619 255 569 L255 569 Z " />
<glyph glyph-name="plusminus" unicode="&#xb1;" horiz-adv-x="833" d="M458 589 L375 589 L375 426 L124 426 L124 345 L375 345 L375 182 L458 182 L458 345 L709 345 L709 426 L458 426 L458 589 Z M709 89 L124 89 L124 7 L709 7 L709 89 Z " />
<glyph glyph-name="twosuperior" unicode="&#xb2;" horiz-adv-x="369" d="M83 319 C250 410 335 487 335 566 C335 626 287 667 211 667 C162 667 117 650 85 620 C68 604 59 586 59 569 C59 547 73 533 98 533 C110 533 122 536 134 542 L150 623 C163 627 176 629 186 629 C227 629 253 605 253 566 C253 481 165 410 2 303 L-2 258 L299 258 L321 373 L280 373 L259 319 L83 319 Z " />
<glyph glyph-name="threesuperior" unicode="&#xb3;" horiz-adv-x="369" d="M214 472 C295 488 340 531 340 580 C340 629 295 668 219 668 C127 668 65 622 65 580 C65 559 81 544 103 544 C113 544 124 547 137 553 L150 623 C163 628 175 631 186 631 C227 631 253 607 253 572 C253 521 211 485 141 485 C136 485 130 485 125 486 L117 442 C133 445 146 446 157 446 C205 446 231 423 231 383 C231 326 188 286 125 286 C115 286 103 290 89 296 L81 361 C70 365 60 367 52 367 C27 367 8 348 8 323 C8 286 54 251 127 251 C178 251 226 266 261 292 C298 318 318 354 318 387 C318 440 284 468 214 472 L214 472 Z " />
<glyph glyph-name="acute" unicode="&#xb4;" horiz-adv-x="500" d="M382 742 L248 552 L315 552 L505 742 L382 742 Z " />
<glyph glyph-name="mu" unicode="&#xb5;" horiz-adv-x="578" d="M33 182 C-5 4 -53 -104 -53 -156 C-53 -187 -35 -205 -5 -205 C61 -205 46 -107 84 98 C91 26 130 -12 194 -12 C252 -12 296 23 324 91 C325 24 356 -12 410 -12 C456 -12 491 12 517 58 C535 91 545 135 545 149 C545 159 542 164 534 164 C516 164 513 138 498 111 C481 81 462 67 435 67 C409 67 393 83 393 111 C393 133 398 153 402 172 L457 432 L355 432 L301 177 C285 103 253 69 196 69 C154 69 128 94 128 136 C128 149 131 172 138 204 L187 432 L86 432 L33 182 Z " />
<glyph glyph-name="paragraph" unicode="&#xb6;" horiz-adv-x="492" d="M267 671 C98 671 19 613 19 464 C19 327 98 262 259 262 L274 262 L274 623 L347 623 L347 -79 L404 -79 L404 618 L466 628 L466 671 L267 671 Z " />
<glyph glyph-name="periodcentered" unicode="&#xb7;" horiz-adv-x="292" d="M146 413 C105 413 71 378 71 335 C71 292 105 259 146 259 C188 259 223 292 223 335 C223 379 188 413 146 413 L146 413 Z " />
<glyph glyph-name="cedilla" unicode="&#xb8;" horiz-adv-x="500" d="M157 4 L136 -107 C144 -106 151 -105 158 -105 C183 -105 197 -115 197 -130 C197 -158 173 -175 128 -175 C113 -175 93 -173 68 -167 L59 -214 C86 -221 112 -225 138 -225 C222 -225 279 -172 279 -110 C279 -71 256 -51 211 -51 C206 -51 201 -51 195 -52 L206 4 L157 4 Z " />
<glyph glyph-name="onesuperior" unicode="&#xb9;" horiz-adv-x="369" d="M237 667 L89 624 L89 595 L179 605 L186 602 L127 303 L116 293 L50 289 L50 258 L268 258 L268 289 L209 292 L203 301 L275 667 L237 667 Z " />
<glyph glyph-name="ordmasculine" unicode="&#xba;" horiz-adv-x="412" d="M268 684 C147 684 56 590 56 472 C56 384 118 324 215 324 C336 324 426 416 426 536 C426 624 366 684 268 684 L268 684 Z M258 640 C300 640 320 607 320 539 C320 438 276 368 224 368 C185 368 162 402 162 465 C162 570 208 640 258 640 L258 640 Z " />
<glyph glyph-name="guillemotright" unicode="&#xbb;" horiz-adv-x="450" d="M55 425 L40 342 L131 240 L2 138 L-13 55 L188 198 L204 282 L55 425 Z M256 425 L241 342 L332 240 L203 138 L188 55 L390 198 L405 282 L256 425 Z " />
<glyph glyph-name="onequarter" unicode="&#xbc;" horiz-adv-x="923" d="M237 667 L89 624 L89 595 L179 605 L186 602 L127 303 L116 293 L50 289 L50 258 L268 258 L268 289 L209 292 L203 301 L275 667 L237 667 Z M684 671 L212 0 L282 0 L754 671 L684 671 Z M819 406 L563 155 L553 108 L749 108 L724 -19 L796 -19 L822 108 L892 108 L900 155 L831 155 L880 406 L819 406 Z M794 326 L759 155 L621 155 L794 326 Z " />
<glyph glyph-name="onehalf" unicode="&#xbd;" horiz-adv-x="923" d="M237 667 L89 624 L89 595 L179 605 L186 602 L127 303 L116 293 L50 289 L50 258 L268 258 L268 289 L209 292 L203 301 L275 667 L237 667 Z M684 671 L212 0 L282 0 L754 671 L684 671 Z M637 61 C804 152 889 229 889 308 C889 368 841 409 765 409 C716 409 671 392 639 362 C622 346 613 328 613 311 C613 289 627 275 652 275 C664 275 676 278 688 284 L704 365 C717 369 730 371 740 371 C781 371 807 347 807 308 C807 223 719 152 556 45 L552 0 L853 0 L875 115 L834 115 L813 61 L637 61 Z " />
<glyph glyph-name="threequarters" unicode="&#xbe;" horiz-adv-x="923" d="M214 472 C295 488 340 531 340 580 C340 629 295 668 219 668 C127 668 65 622 65 580 C65 559 81 544 103 544 C113 544 124 547 137 553 L150 623 C163 628 175 631 186 631 C227 631 253 607 253 572 C253 521 211 485 141 485 C136 485 130 485 125 486 L117 442 C133 445 146 446 157 446 C205 446 231 423 231 383 C231 326 188 286 125 286 C115 286 103 290 89 296 L81 361 C70 365 60 367 52 367 C27 367 8 348 8 323 C8 286 54 251 127 251 C178 251 226 266 261 292 C298 318 318 354 318 387 C318 440 284 468 214 472 L214 472 Z M684 671 L212 0 L282 0 L754 671 L684 671 Z M819 406 L563 155 L553 108 L749 108 L724 -19 L796 -19 L822 108 L892 108 L900 155 L831 155 L880 406 L819 406 Z M794 326 L759 155 L621 155 L794 326 Z " />
<glyph glyph-name="questiondown" unicode="&#xbf;" horiz-adv-x="492" d="M288 493 C247 493 213 459 213 417 C213 374 246 341 288 341 C329 341 363 374 363 417 C363 459 328 493 288 493 L288 493 Z M239 292 L222 201 C55 150 -30 62 -30 -44 C-30 -139 41 -198 162 -198 C284 -198 360 -136 360 -75 C360 -42 340 -25 299 -25 C292 -25 284 -26 275 -27 L211 -139 L208 -139 C137 -139 99 -105 99 -44 C99 44 162 120 279 158 L304 292 L239 292 Z " />
<glyph glyph-name="Agrave" unicode="&#xc0;" horiz-adv-x="634" d="M339 677 L-12 56 L-68 49 L-68 0 L147 0 L147 49 L88 53 L78 68 L170 236 L393 236 L421 70 L410 55 L349 49 L349 0 L612 0 L612 49 L554 56 L544 69 L442 677 L339 677 Z M342 551 L383 291 L200 291 L342 551 Z M253 887 L375 732 L443 732 L378 887 L253 887 Z " />
<glyph glyph-name="Aacute" unicode="&#xc1;" horiz-adv-x="634" d="M339 677 L-12 56 L-68 49 L-68 0 L147 0 L147 49 L88 53 L78 68 L170 236 L393 236 L421 70 L410 55 L349 49 L349 0 L612 0 L612 49 L554 56 L544 69 L442 677 L339 677 Z M342 551 L383 291 L200 291 L342 551 Z M473 887 L338 732 L413 732 L604 887 L473 887 Z " />
<glyph glyph-name="Acircumflex" unicode="&#xc2;" horiz-adv-x="634" d="M339 677 L-12 56 L-68 49 L-68 0 L147 0 L147 49 L88 53 L78 68 L170 236 L393 236 L421 70 L410 55 L349 49 L349 0 L612 0 L612 49 L554 56 L544 69 L442 677 L339 677 Z M342 551 L383 291 L200 291 L342 551 Z M379 887 L232 732 L310 732 L407 823 L462 732 L539 732 L461 887 L379 887 Z " />
<glyph glyph-name="Atilde" unicode="&#xc3;" horiz-adv-x="634" d="M339 677 L-12 56 L-68 49 L-68 0 L147 0 L147 49 L88 53 L78 68 L170 236 L393 236 L421 70 L410 55 L349 49 L349 0 L612 0 L612 49 L554 56 L544 69 L442 677 L339 677 Z M342 551 L383 291 L200 291 L342 551 Z M516 880 C509 844 495 826 473 826 C443 826 397 867 341 867 C283 867 240 823 230 744 L288 744 C294 779 311 797 335 797 C358 797 400 757 464 757 C519 757 563 802 573 880 L516 880 Z " />
<glyph glyph-name="Adieresis" unicode="&#xc4;" horiz-adv-x="634" d="M339 677 L-12 56 L-68 49 L-68 0 L147 0 L147 49 L88 53 L78 68 L170 236 L393 236 L421 70 L410 55 L349 49 L349 0 L612 0 L612 49 L554 56 L544 69 L442 677 L339 677 Z M342 551 L383 291 L200 291 L342 551 Z M502 878 C467 878 439 848 439 811 C439 775 467 746 502 746 C537 746 566 775 566 811 C566 848 537 878 502 878 L502 878 Z M295 878 C260 878 232 848 232 811 C232 775 261 746 295 746 C330 746 360 775 360 811 C360 847 330 878 295 878 L295 878 Z " />
<glyph glyph-name="Aring" unicode="&#xc5;" horiz-adv-x="634" d="M403 971 C338 971 285 919 285 852 C285 785 338 732 403 732 C469 732 520 784 520 852 C520 920 469 971 403 971 L403 971 Z M403 919 C439 919 468 890 468 852 C468 815 438 784 402 784 C367 784 338 815 338 852 C338 890 367 919 403 919 L403 919 Z M339 677 L-12 56 L-68 49 L-68 0 L147 0 L147 49 L88 53 L79 68 L170 236 L393 236 L421 70 L410 55 L349 49 L349 0 L612 0 L612 49 L558 55 L545 67 L442 677 L339 677 Z M342 551 L383 291 L201 291 L342 551 Z " />
<glyph glyph-name="AE" unicode="&#xc6;" horiz-adv-x="894" d="M314 671 L314 623 L375 616 L383 602 L-36 61 L-102 48 L-102 0 L123 0 L123 48 L61 56 L57 71 L195 252 L413 252 L378 70 L362 54 L300 48 L300 0 L801 0 L837 179 L770 179 L734 72 L718 58 L498 58 L547 318 L664 318 L675 304 L675 231 L728 231 L772 462 L715 462 L692 390 L676 375 L557 375 L603 614 L787 614 L798 599 L800 514 L863 514 L895 671 L314 671 Z M484 631 L425 309 L238 309 L484 631 Z " />
<glyph glyph-name="Ccedilla" unicode="&#xc7;" horiz-adv-x="625" d="M636 650 C569 672 505 684 440 684 C319 684 203 628 131 537 C68 457 37 368 37 272 C37 100 149 -13 322 -13 C386 -13 456 -1 527 23 L559 196 L492 196 L446 72 L427 54 C406 49 387 47 370 47 C250 47 176 127 176 263 C176 381 215 484 281 550 C328 598 390 622 462 622 C481 622 503 617 528 608 L538 590 L539 481 L605 481 L636 650 Z M275 0 L254 -112 C262 -111 269 -110 276 -110 C301 -110 315 -120 315 -135 C315 -163 291 -180 246 -180 C231 -180 211 -178 186 -172 L177 -219 C204 -226 230 -230 256 -230 C340 -230 397 -177 397 -115 C397 -76 374 -56 329 -56 C324 -56 319 -56 313 -57 L324 0 L275 0 Z " />
<glyph glyph-name="Egrave" unicode="&#xc8;" horiz-adv-x="581" d="M85 671 L85 622 L149 617 L158 601 L57 69 L43 54 L-22 48 L-22 0 L491 0 L524 179 L458 179 L420 72 L406 58 L180 58 L230 319 L351 319 L364 305 L362 230 L416 230 L460 463 L403 463 L378 389 L363 375 L241 375 L286 615 L474 615 L485 600 L486 515 L550 515 L580 671 L85 671 Z M215 887 L337 732 L405 732 L340 887 L215 887 Z " />
<glyph glyph-name="Eacute" unicode="&#xc9;" horiz-adv-x="581" d="M85 671 L85 622 L149 617 L158 601 L57 69 L43 54 L-22 48 L-22 0 L491 0 L524 179 L458 179 L420 72 L406 58 L180 58 L230 319 L351 319 L364 305 L362 230 L416 230 L460 463 L403 463 L378 389 L363 375 L241 375 L286 615 L474 615 L485 600 L486 515 L550 515 L580 671 L85 671 Z M435 887 L300 732 L375 732 L566 887 L435 887 Z " />
<glyph glyph-name="Ecircumflex" unicode="&#xca;" horiz-adv-x="581" d="M85 671 L85 622 L149 617 L158 601 L57 69 L43 54 L-22 48 L-22 0 L491 0 L524 179 L458 179 L420 72 L406 58 L180 58 L230 319 L351 319 L364 305 L362 230 L416 230 L460 463 L403 463 L378 389 L363 375 L241 375 L286 615 L474 615 L485 600 L486 515 L550 515 L580 671 L85 671 Z M341 887 L194 732 L272 732 L369 823 L424 732 L501 732 L423 887 L341 887 Z " />
<glyph glyph-name="Edieresis" unicode="&#xcb;" horiz-adv-x="581" d="M85 671 L85 622 L149 617 L158 601 L57 69 L43 54 L-22 48 L-22 0 L491 0 L524 179 L458 179 L420 72 L406 58 L180 58 L230 319 L351 319 L364 305 L362 230 L416 230 L460 463 L403 463 L378 389 L363 375 L241 375 L286 615 L474 615 L485 600 L486 515 L550 515 L580 671 L85 671 Z M464 878 C429 878 401 848 401 811 C401 775 429 746 464 746 C499 746 528 775 528 811 C528 848 499 878 464 878 L464 878 Z M257 878 C222 878 194 848 194 811 C194 775 223 746 257 746 C292 746 322 775 322 811 C322 847 292 878 257 878 L257 878 Z " />
<glyph glyph-name="Igrave" unicode="&#xcc;" horiz-adv-x="353" d="M87 671 L87 623 L152 619 L162 605 L61 69 L46 54 L-20 49 L-20 0 L263 0 L263 49 L198 53 L186 67 L287 605 L303 619 L369 623 L369 671 L87 671 Z M111 887 L233 732 L301 732 L236 887 L111 887 Z " />
<glyph glyph-name="Iacute" unicode="&#xcd;" horiz-adv-x="353" d="M87 671 L87 623 L152 619 L162 605 L61 69 L46 54 L-20 49 L-20 0 L263 0 L263 49 L198 53 L186 67 L287 605 L303 619 L369 623 L369 671 L87 671 Z M331 887 L196 732 L271 732 L462 887 L331 887 Z " />
<glyph glyph-name="Icircumflex" unicode="&#xce;" horiz-adv-x="353" d="M87 671 L87 623 L152 619 L162 605 L61 69 L46 54 L-20 49 L-20 0 L263 0 L263 49 L198 53 L186 67 L287 605 L303 619 L369 623 L369 671 L87 671 Z M237 887 L90 732 L168 732 L265 823 L320 732 L397 732 L319 887 L237 887 Z " />
<glyph glyph-name="Idieresis" unicode="&#xcf;" horiz-adv-x="353" d="M87 671 L87 623 L152 619 L162 605 L61 69 L46 54 L-20 49 L-20 0 L263 0 L263 49 L198 53 L186 67 L287 605 L303 619 L369 623 L369 671 L87 671 Z M360 878 C325 878 297 848 297 811 C297 775 325 746 360 746 C395 746 424 775 424 811 C424 848 395 878 360 878 L360 878 Z M153 878 C118 878 90 848 90 811 C90 775 119 746 153 746 C188 746 218 775 218 811 C218 847 188 878 153 878 L153 878 Z " />
<glyph glyph-name="Eth" unicode="&#xd0;" horiz-adv-x="702" d="M82 671 L82 623 L146 618 L156 603 L115 384 L33 384 L22 324 L103 324 L55 69 L41 54 L-25 49 L-25 0 L225 0 C361 0 460 31 536 108 C615 188 660 299 660 416 C660 581 555 671 352 671 L82 671 Z M285 615 L339 615 C453 615 520 544 520 419 C520 321 488 222 440 156 C391 89 321 57 222 57 L181 57 L230 324 L359 324 L371 384 L242 384 L285 615 Z " />
<glyph glyph-name="Ntilde" unicode="&#xd1;" horiz-adv-x="712" d="M80 671 L80 624 L144 619 L155 605 L53 70 L39 55 L-26 49 L-26 0 L202 0 L202 49 L136 55 L127 72 L217 542 L447 0 L550 0 L663 606 L679 619 L743 624 L743 671 L514 671 L514 624 L579 618 L591 605 L506 162 L301 647 L301 671 L80 671 Z M544 880 C537 844 523 826 501 826 C471 826 425 867 369 867 C311 867 268 823 258 744 L316 744 C322 779 339 797 363 797 C386 797 428 757 492 757 C547 757 591 802 601 880 L544 880 Z " />
<glyph glyph-name="Ograve" unicode="&#xd2;" horiz-adv-x="729" d="M412 684 C302 684 197 632 130 543 C70 464 38 368 38 265 C38 99 148 -13 313 -13 C426 -13 527 37 598 130 C657 208 690 305 690 408 C690 573 580 684 412 684 L412 684 Z M549 416 C549 319 524 226 485 161 C440 86 383 48 324 48 C238 48 176 126 176 256 C176 349 202 443 244 512 C288 586 344 624 403 624 C492 624 549 549 549 416 L549 416 Z M289 887 L411 732 L479 732 L414 887 L289 887 Z " />
<glyph glyph-name="Oacute" unicode="&#xd3;" horiz-adv-x="729" d="M412 684 C302 684 197 632 130 543 C70 464 38 368 38 265 C38 99 148 -13 313 -13 C426 -13 527 37 598 130 C657 208 690 305 690 408 C690 573 580 684 412 684 L412 684 Z M549 416 C549 319 524 226 485 161 C440 86 383 48 324 48 C238 48 176 126 176 256 C176 349 202 443 244 512 C288 586 344 624 403 624 C492 624 549 549 549 416 L549 416 Z M509 887 L374 732 L449 732 L640 887 L509 887 Z " />
<glyph glyph-name="Ocircumflex" unicode="&#xd4;" horiz-adv-x="729" d="M412 684 C302 684 197 632 130 543 C70 464 38 368 38 265 C38 99 148 -13 313 -13 C426 -13 527 37 598 130 C657 208 690 305 690 408 C690 573 580 684 412 684 L412 684 Z M549 416 C549 319 524 226 485 161 C440 86 383 48 324 48 C238 48 176 126 176 256 C176 349 202 443 244 512 C288 586 344 624 403 624 C492 624 549 549 549 416 L549 416 Z M415 887 L268 732 L346 732 L443 823 L498 732 L575 732 L497 887 L415 887 Z " />
<glyph glyph-name="Otilde" unicode="&#xd5;" horiz-adv-x="729" d="M412 684 C302 684 197 632 130 543 C70 464 38 368 38 265 C38 99 148 -13 313 -13 C426 -13 527 37 598 130 C657 208 690 305 690 408 C690 573 580 684 412 684 L412 684 Z M549 416 C549 319 524 226 485 161 C440 86 383 48 324 48 C238 48 176 126 176 256 C176 349 202 443 244 512 C288 586 344 624 403 624 C492 624 549 549 549 416 L549 416 Z M552 880 C545 844 531 826 509 826 C479 826 433 867 377 867 C319 867 276 823 266 744 L324 744 C330 779 347 797 371 797 C394 797 436 757 500 757 C555 757 599 802 609 880 L552 880 Z " />
<glyph glyph-name="Odieresis" unicode="&#xd6;" horiz-adv-x="729" d="M412 684 C302 684 197 632 130 543 C70 464 38 368 38 265 C38 99 148 -13 313 -13 C426 -13 527 37 598 130 C657 208 690 305 690 408 C690 573 580 684 412 684 L412 684 Z M549 416 C549 319 524 226 485 161 C440 86 383 48 324 48 C238 48 176 126 176 256 C176 349 202 443 244 512 C288 586 344 624 403 624 C492 624 549 549 549 416 L549 416 Z M538 878 C503 878 475 848 475 811 C475 775 503 746 538 746 C573 746 602 775 602 811 C602 848 573 878 538 878 L538 878 Z M331 878 C296 878 268 848 268 811 C268 775 297 746 331 746 C366 746 396 775 396 811 C396 847 366 878 331 878 L331 878 Z " />
<glyph glyph-name="multiply" unicode="&#xd7;" horiz-adv-x="833" d="M421 356 L197 580 L140 523 L364 298 L140 74 L197 16 L421 241 L646 16 L703 74 L479 298 L703 523 L646 580 L421 356 Z " />
<glyph glyph-name="Oslash" unicode="&#xd8;" horiz-adv-x="729" d="M601 750 L540 658 C505 675 464 683 417 683 C307 683 208 636 140 554 C73 472 37 373 37 265 C37 177 69 103 130 47 L66 -50 L103 -81 L171 20 C211 -2 258 -13 311 -13 C421 -13 519 33 590 120 C655 199 690 302 690 409 C690 503 654 580 584 633 L643 722 L601 750 Z M496 593 L192 137 C177 178 170 220 170 263 C170 358 199 456 244 524 C289 593 340 626 405 626 C442 626 471 615 496 593 L496 593 Z M526 550 C547 515 556 470 556 413 C556 308 527 211 484 146 C439 78 385 45 324 45 C283 45 250 60 221 91 L526 550 Z " />
<glyph glyph-name="Ugrave" unicode="&#xd9;" horiz-adv-x="701" d="M76 671 L76 624 L137 618 L149 605 L82 254 C75 217 72 186 72 164 C72 50 148 -13 286 -13 C382 -13 458 14 506 62 C560 116 574 178 588 251 L656 603 L671 617 L735 624 L735 671 L509 671 L509 624 L575 617 L585 600 L516 249 C492 124 446 66 328 66 C250 66 201 110 201 185 C201 203 204 228 210 258 L276 607 L290 619 L353 624 L353 671 L76 671 Z M275 887 L397 732 L465 732 L400 887 L275 887 Z " />
<glyph glyph-name="Uacute" unicode="&#xda;" horiz-adv-x="701" d="M76 671 L76 624 L137 618 L149 605 L82 254 C75 217 72 186 72 164 C72 50 148 -13 286 -13 C382 -13 458 14 506 62 C560 116 574 178 588 251 L656 603 L671 617 L735 624 L735 671 L509 671 L509 624 L575 617 L585 600 L516 249 C492 124 446 66 328 66 C250 66 201 110 201 185 C201 203 204 228 210 258 L276 607 L290 619 L353 624 L353 671 L76 671 Z M495 887 L360 732 L435 732 L626 887 L495 887 Z " />
<glyph glyph-name="Ucircumflex" unicode="&#xdb;" horiz-adv-x="701" d="M76 671 L76 624 L137 618 L149 605 L82 254 C75 217 72 186 72 164 C72 50 148 -13 286 -13 C382 -13 458 14 506 62 C560 116 574 178 588 251 L656 603 L671 617 L735 624 L735 671 L509 671 L509 624 L575 617 L585 600 L516 249 C492 124 446 66 328 66 C250 66 201 110 201 185 C201 203 204 228 210 258 L276 607 L290 619 L353 624 L353 671 L76 671 Z M401 887 L254 732 L332 732 L429 823 L484 732 L561 732 L483 887 L401 887 Z " />
<glyph glyph-name="Udieresis" unicode="&#xdc;" horiz-adv-x="701" d="M76 671 L76 624 L137 618 L149 605 L82 254 C75 217 72 186 72 164 C72 50 148 -13 286 -13 C382 -13 458 14 506 62 C560 116 574 178 588 251 L656 603 L671 617 L735 624 L735 671 L509 671 L509 624 L575 617 L585 600 L516 249 C492 124 446 66 328 66 C250 66 201 110 201 185 C201 203 204 228 210 258 L276 607 L290 619 L353 624 L353 671 L76 671 Z M524 878 C489 878 461 848 461 811 C461 775 489 746 524 746 C559 746 588 775 588 811 C588 848 559 878 524 878 L524 878 Z M317 878 C282 878 254 848 254 811 C254 775 283 746 317 746 C352 746 382 775 382 811 C382 847 352 878 317 878 L317 878 Z " />
<glyph glyph-name="Yacute" unicode="&#xdd;" horiz-adv-x="586" d="M26 671 L26 623 L89 617 L98 609 L212 262 L176 71 L160 55 L93 49 L93 0 L377 0 L377 49 L309 55 L298 68 L337 276 L581 606 L591 615 L656 623 L656 671 L422 671 L422 623 L486 616 L495 600 L310 343 L225 603 L237 617 L299 623 L299 671 L26 671 Z M438 887 L303 732 L378 732 L569 887 L438 887 Z " />
<glyph glyph-name="Thorn" unicode="&#xde;" horiz-adv-x="576" d="M80 665 L80 619 L142 614 L152 597 L52 67 L37 54 L-26 48 L-26 0 L251 0 L251 48 L186 53 L177 69 L187 125 C210 123 232 123 252 123 C440 123 552 232 552 375 C552 492 474 543 314 543 L267 543 L278 600 L291 613 L356 619 L356 665 L80 665 Z M256 486 C264 487 273 487 280 487 C371 487 416 449 416 373 C416 251 347 180 227 180 C218 180 208 180 198 181 L256 486 Z " />
<glyph glyph-name="germandbls" unicode="&#xdf;" horiz-adv-x="622" d="M539 454 C556 510 565 554 565 588 C565 679 503 737 400 737 C231 737 128 626 97 407 L57 124 C39 -5 22 -94 -14 -143 L-121 -87 C-147 -99 -161 -121 -161 -148 C-161 -185 -129 -213 -89 -213 C-28 -213 53 -159 109 -68 C147 -6 165 68 178 159 L216 419 C242 594 293 681 386 681 C431 681 456 653 456 603 C456 571 448 532 433 484 C340 470 285 413 285 337 C285 285 323 252 387 207 C434 174 464 154 464 112 C464 71 434 42 384 42 C362 42 341 50 323 66 L340 133 C324 149 307 158 288 158 C250 158 224 131 224 94 C224 39 285 -10 378 -10 C490 -10 572 63 572 157 C572 227 525 256 463 304 C425 333 402 353 402 383 C402 431 438 455 510 455 C519 455 529 455 539 454 L539 454 Z " />
<glyph glyph-name="agrave" unicode="&#xe0;" horiz-adv-x="572" d="M453 493 L416 469 C376 485 338 493 300 493 C211 493 128 449 78 373 C38 312 18 246 18 174 C18 59 72 -8 162 -8 C211 -8 265 19 321 72 L321 67 C321 19 347 -8 396 -8 C434 -8 484 6 547 29 L547 66 C522 59 502 55 486 55 C457 55 439 74 439 109 C439 122 442 145 448 179 L478 341 C493 422 505 472 512 493 L453 493 Z M330 445 L370 385 L323 120 C285 89 253 73 222 73 C173 73 146 112 146 188 C146 340 224 446 317 446 C322 446 326 445 330 445 L330 445 Z M200 742 L317 552 L384 552 L324 742 L200 742 Z " />
<glyph glyph-name="aacute" unicode="&#xe1;" horiz-adv-x="572" d="M453 493 L416 469 C376 485 338 493 300 493 C211 493 128 449 78 373 C38 312 18 246 18 174 C18 59 72 -8 162 -8 C211 -8 265 19 321 72 L321 67 C321 19 347 -8 396 -8 C434 -8 484 6 547 29 L547 66 C522 59 502 55 486 55 C457 55 439 74 439 109 C439 122 442 145 448 179 L478 341 C493 422 505 472 512 493 L453 493 Z M330 445 L370 385 L323 120 C285 89 253 73 222 73 C173 73 146 112 146 188 C146 340 224 446 317 446 C322 446 326 445 330 445 L330 445 Z M418 742 L284 552 L351 552 L541 742 L418 742 Z " />
<glyph glyph-name="acircumflex" unicode="&#xe2;" horiz-adv-x="572" d="M453 493 L416 469 C376 485 338 493 300 493 C211 493 128 449 78 373 C38 312 18 246 18 174 C18 59 72 -8 162 -8 C211 -8 265 19 321 72 L321 67 C321 19 347 -8 396 -8 C434 -8 484 6 547 29 L547 66 C522 59 502 55 486 55 C457 55 439 74 439 109 C439 122 442 145 448 179 L478 341 C493 422 505 472 512 493 L453 493 Z M330 445 L370 385 L323 120 C285 89 253 73 222 73 C173 73 146 112 146 188 C146 340 224 446 317 446 C322 446 326 445 330 445 L330 445 Z M321 742 L174 552 L252 552 L352 677 L405 552 L482 552 L408 742 L321 742 Z " />
<glyph glyph-name="atilde" unicode="&#xe3;" horiz-adv-x="572" d="M453 493 L416 469 C376 485 338 493 300 493 C211 493 128 449 78 373 C38 312 18 246 18 174 C18 59 72 -8 162 -8 C211 -8 265 19 321 72 L321 67 C321 19 347 -8 396 -8 C434 -8 484 6 547 29 L547 66 C522 59 502 55 486 55 C457 55 439 74 439 109 C439 122 442 145 448 179 L478 341 C493 422 505 472 512 493 L453 493 Z M330 445 L370 385 L323 120 C285 89 253 73 222 73 C173 73 146 112 146 188 C146 340 224 446 317 446 C322 446 326 445 330 445 L330 445 Z M468 722 C462 680 445 659 417 659 C383 659 339 706 281 706 C222 706 180 658 168 570 L223 570 C228 611 246 633 272 633 C302 633 346 587 409 587 C466 587 508 634 521 722 L468 722 Z " />
<glyph glyph-name="adieresis" unicode="&#xe4;" horiz-adv-x="572" d="M453 493 L416 469 C376 485 338 493 300 493 C211 493 128 449 78 373 C38 312 18 246 18 174 C18 59 72 -8 162 -8 C211 -8 265 19 321 72 L321 67 C321 19 347 -8 396 -8 C434 -8 484 6 547 29 L547 66 C522 59 502 55 486 55 C457 55 439 74 439 109 C439 122 442 145 448 179 L478 341 C493 422 505 472 512 493 L453 493 Z M330 445 L370 385 L323 120 C285 89 253 73 222 73 C173 73 146 112 146 188 C146 340 224 446 317 446 C322 446 326 445 330 445 L330 445 Z M237 710 C202 710 174 681 174 644 C174 608 203 579 237 579 C272 579 301 608 301 644 C301 680 272 710 237 710 L237 710 Z M444 710 C409 710 380 681 380 644 C380 608 409 579 444 579 C479 579 508 608 508 644 C508 681 479 710 444 710 L444 710 Z " />
<glyph glyph-name="aring" unicode="&#xe5;" horiz-adv-x="572" d="M453 493 L416 469 C376 485 338 494 300 494 C211 494 128 449 78 373 C38 312 18 246 18 174 C18 59 72 -8 162 -8 C211 -8 265 19 321 72 L321 67 C321 19 347 -8 396 -8 C434 -8 484 6 547 29 L547 66 C522 59 502 55 486 55 C457 55 439 74 439 109 C439 122 442 145 448 179 L478 341 C493 422 505 472 512 493 L453 493 Z M330 445 L370 385 L323 120 C285 89 253 73 222 73 C173 73 146 112 146 188 C146 340 224 446 317 446 C322 446 326 445 330 445 L330 445 Z M327 773 C265 773 215 722 215 662 C215 595 265 546 327 546 C390 546 439 595 439 659 C439 723 390 773 327 773 L327 773 Z M327 723 C361 723 389 695 389 659 C389 624 361 596 327 596 C294 596 266 624 266 659 C266 695 294 723 327 723 L327 723 Z " />
<glyph glyph-name="ae" unicode="&#xe6;" horiz-adv-x="719" d="M308 69 C338 17 386 -9 450 -9 C516 -9 588 20 659 77 L659 139 C601 91 549 68 505 68 C438 68 399 113 399 199 C399 207 399 215 400 224 L408 224 C587 224 684 288 684 385 C684 451 639 494 564 494 C511 494 462 472 403 434 C374 477 335 494 277 494 C147 494 58 425 58 355 C58 342 67 337 85 337 L181 337 L200 434 C217 440 230 443 242 443 C288 443 314 417 314 373 C314 360 313 349 311 338 L301 286 C102 262 5 206 5 100 C5 35 50 -9 122 -9 C180 -9 241 17 308 69 L308 69 Z M293 106 C253 81 219 68 192 68 C152 68 129 91 129 129 C129 190 182 223 290 238 C286 218 285 198 285 179 C285 154 287 130 293 106 L293 106 Z M404 267 C430 382 483 443 532 443 C560 443 579 424 579 394 C579 335 516 277 404 267 L404 267 Z " />
<glyph glyph-name="ccedilla" unicode="&#xe7;" horiz-adv-x="437" d="M326 339 C378 341 409 371 409 412 C409 461 370 493 299 493 C219 493 132 449 82 381 C38 321 16 254 16 182 C16 65 84 -10 185 -10 C247 -10 322 21 394 85 L394 144 C337 94 282 70 240 70 C178 70 141 118 141 205 C141 329 195 422 262 441 L326 339 Z M154 4 L133 -107 C141 -106 148 -105 155 -105 C180 -105 194 -115 194 -130 C194 -158 170 -175 125 -175 C110 -175 90 -173 65 -167 L56 -214 C83 -221 109 -225 135 -225 C219 -225 276 -172 276 -110 C276 -71 253 -51 208 -51 C203 -51 198 -51 192 -52 L203 4 L154 4 Z " />
<glyph glyph-name="egrave" unicode="&#xe8;" horiz-adv-x="464" d="M141 227 C152 227 162 226 172 226 C339 226 431 287 431 382 C431 448 385 491 307 491 C247 491 183 467 132 424 C58 361 19 275 19 181 C19 62 85 -9 196 -9 C257 -9 327 18 401 75 L403 136 C343 89 289 66 246 66 C179 66 139 112 139 197 C139 206 140 216 141 227 L141 227 Z M149 269 C177 382 229 441 281 441 C311 441 330 421 330 390 C330 333 261 274 149 269 L149 269 Z M146 742 L263 552 L330 552 L270 742 L146 742 Z " />
<glyph glyph-name="eacute" unicode="&#xe9;" horiz-adv-x="464" d="M141 227 C152 227 162 226 172 226 C339 226 431 287 431 382 C431 448 385 491 307 491 C247 491 183 467 132 424 C58 361 19 275 19 181 C19 62 85 -9 196 -9 C257 -9 327 18 401 75 L403 136 C343 89 289 66 246 66 C179 66 139 112 139 197 C139 206 140 216 141 227 L141 227 Z M149 269 C177 382 229 441 281 441 C311 441 330 421 330 390 C330 333 261 274 149 269 L149 269 Z M364 742 L230 552 L297 552 L487 742 L364 742 Z " />
<glyph glyph-name="ecircumflex" unicode="&#xea;" horiz-adv-x="464" d="M141 227 C152 227 162 226 172 226 C339 226 431 287 431 382 C431 448 385 491 307 491 C247 491 183 467 132 424 C58 361 19 275 19 181 C19 62 85 -9 196 -9 C257 -9 327 18 401 75 L403 136 C343 89 289 66 246 66 C179 66 139 112 139 197 C139 206 140 216 141 227 L141 227 Z M149 269 C177 382 229 441 281 441 C311 441 330 421 330 390 C330 333 261 274 149 269 L149 269 Z M267 742 L120 552 L198 552 L298 677 L351 552 L428 552 L354 742 L267 742 Z " />
<glyph glyph-name="edieresis" unicode="&#xeb;" horiz-adv-x="464" d="M141 227 C152 227 162 226 172 226 C339 226 431 287 431 382 C431 448 385 491 307 491 C247 491 183 467 132 424 C58 361 19 275 19 181 C19 62 85 -9 196 -9 C257 -9 327 18 401 75 L403 136 C343 89 289 66 246 66 C179 66 139 112 139 197 C139 206 140 216 141 227 L141 227 Z M149 269 C177 382 229 441 281 441 C311 441 330 421 330 390 C330 333 261 274 149 269 L149 269 Z M183 710 C148 710 120 681 120 644 C120 608 149 579 183 579 C218 579 247 608 247 644 C247 680 218 710 183 710 L183 710 Z M390 710 C355 710 326 681 326 644 C326 608 355 579 390 579 C425 579 454 608 454 644 C454 681 425 710 390 710 L390 710 Z " />
<glyph glyph-name="igrave" unicode="&#xec;" horiz-adv-x="318" d="M200 493 L29 456 L29 420 L111 407 L57 138 C52 111 48 89 48 71 C48 17 74 -7 129 -7 C173 -7 227 7 293 32 L293 73 C263 64 240 59 224 59 C192 59 175 78 175 114 C175 124 177 138 180 155 L244 493 L200 493 Z M55 742 L172 552 L239 552 L179 742 L55 742 Z " />
<glyph glyph-name="iacute" unicode="&#xed;" horiz-adv-x="318" d="M200 493 L29 456 L29 420 L111 407 L57 138 C52 111 48 89 48 71 C48 17 74 -7 129 -7 C173 -7 227 7 293 32 L293 73 C263 64 240 59 224 59 C192 59 175 78 175 114 C175 124 177 138 180 155 L244 493 L200 493 Z M273 742 L139 552 L206 552 L396 742 L273 742 Z " />
<glyph glyph-name="icircumflex" unicode="&#xee;" horiz-adv-x="318" d="M200 493 L29 456 L29 420 L111 407 L57 138 C52 111 48 89 48 71 C48 17 74 -7 129 -7 C173 -7 227 7 293 32 L293 73 C263 64 240 59 224 59 C192 59 175 78 175 114 C175 124 177 138 180 155 L244 493 L200 493 Z M176 742 L29 552 L107 552 L207 677 L260 552 L337 552 L263 742 L176 742 Z " />
<glyph glyph-name="idieresis" unicode="&#xef;" horiz-adv-x="318" d="M200 493 L29 456 L29 420 L111 407 L57 138 C52 111 48 89 48 71 C48 17 74 -7 129 -7 C173 -7 227 7 293 32 L293 73 C263 64 240 59 224 59 C192 59 175 78 175 114 C175 124 177 138 180 155 L244 493 L200 493 Z M92 710 C57 710 29 681 29 644 C29 608 58 579 92 579 C127 579 156 608 156 644 C156 680 127 710 92 710 L92 710 Z M299 710 C264 710 235 681 235 644 C235 608 264 579 299 579 C334 579 363 608 363 644 C363 681 334 710 299 710 L299 710 Z " />
<glyph glyph-name="eth" unicode="&#xf0;" horiz-adv-x="561" d="M355 478 C333 480 315 482 302 482 C229 482 165 457 116 409 C58 352 26 275 26 194 C26 70 103 -11 223 -11 C382 -11 506 118 506 314 C506 411 475 508 415 614 L523 657 L507 699 L390 654 L336 740 L179 709 L176 675 L257 659 L287 612 L164 565 L180 523 L312 574 C329 541 343 509 355 478 L355 478 Z M366 428 C377 389 382 348 382 302 C382 137 322 42 241 42 C184 42 155 88 155 179 C155 337 219 435 319 435 C331 435 347 433 366 428 L366 428 Z " />
<glyph glyph-name="ntilde" unicode="&#xf1;" horiz-adv-x="600" d="M202 493 L26 450 L26 417 L109 406 L29 0 L156 0 L215 342 C268 386 311 408 340 408 C371 408 389 387 389 350 C389 335 386 313 380 284 L344 118 C340 98 336 80 336 65 C336 19 364 -6 417 -6 C455 -6 506 5 568 28 L568 66 C543 59 522 55 506 55 C478 55 460 74 460 105 C460 120 463 144 471 179 L501 316 C508 348 512 374 512 395 C512 456 474 493 416 493 C366 493 302 460 221 394 L241 493 L202 493 Z M463 722 C457 680 440 659 412 659 C378 659 334 706 276 706 C217 706 175 658 163 570 L218 570 C223 611 241 633 267 633 C297 633 341 587 404 587 C461 587 503 634 516 722 L463 722 Z " />
<glyph glyph-name="ograve" unicode="&#xf2;" horiz-adv-x="550" d="M298 493 C225 493 156 464 106 412 C51 355 19 276 19 197 C19 70 97 -11 222 -11 C296 -11 364 18 414 70 C470 128 501 206 501 287 C501 413 424 493 298 493 L298 493 Z M285 441 C343 441 372 394 372 298 C372 145 307 41 233 41 C178 41 148 89 148 181 C148 338 213 441 285 441 L285 441 Z M189 742 L306 552 L373 552 L313 742 L189 742 Z " />
<glyph glyph-name="oacute" unicode="&#xf3;" horiz-adv-x="550" d="M298 493 C225 493 156 464 106 412 C51 355 19 276 19 197 C19 70 97 -11 222 -11 C296 -11 364 18 414 70 C470 128 501 206 501 287 C501 413 424 493 298 493 L298 493 Z M285 441 C343 441 372 394 372 298 C372 145 307 41 233 41 C178 41 148 89 148 181 C148 338 213 441 285 441 L285 441 Z M407 742 L273 552 L340 552 L530 742 L407 742 Z " />
<glyph glyph-name="ocircumflex" unicode="&#xf4;" horiz-adv-x="550" d="M298 493 C225 493 156 464 106 412 C51 355 19 276 19 197 C19 70 97 -11 222 -11 C296 -11 364 18 414 70 C470 128 501 206 501 287 C501 413 424 493 298 493 L298 493 Z M285 441 C343 441 372 394 372 298 C372 145 307 41 233 41 C178 41 148 89 148 181 C148 338 213 441 285 441 L285 441 Z M310 742 L163 552 L241 552 L341 677 L394 552 L471 552 L397 742 L310 742 Z " />
<glyph glyph-name="otilde" unicode="&#xf5;" horiz-adv-x="550" d="M298 493 C225 493 156 464 106 412 C51 355 19 276 19 197 C19 70 97 -11 222 -11 C296 -11 364 18 414 70 C470 128 501 206 501 287 C501 413 424 493 298 493 L298 493 Z M285 441 C343 441 372 394 372 298 C372 145 307 41 233 41 C178 41 148 89 148 181 C148 338 213 441 285 441 L285 441 Z M457 722 C451 680 434 659 406 659 C372 659 328 706 270 706 C211 706 169 658 157 570 L212 570 C217 611 235 633 261 633 C291 633 335 587 398 587 C455 587 497 634 510 722 L457 722 Z " />
<glyph glyph-name="odieresis" unicode="&#xf6;" horiz-adv-x="550" d="M298 493 C225 493 156 464 106 412 C51 355 19 276 19 197 C19 70 97 -11 222 -11 C296 -11 364 18 414 70 C470 128 501 206 501 287 C501 413 424 493 298 493 L298 493 Z M285 441 C343 441 372 394 372 298 C372 145 307 41 233 41 C178 41 148 89 148 181 C148 338 213 441 285 441 L285 441 Z M226 710 C191 710 163 681 163 644 C163 608 192 579 226 579 C261 579 290 608 290 644 C290 680 261 710 226 710 L226 710 Z M433 710 C398 710 369 681 369 644 C369 608 398 579 433 579 C468 579 497 608 497 644 C497 681 468 710 433 710 L433 710 Z " />
<glyph glyph-name="divide" unicode="&#xf7;" horiz-adv-x="833" d="M417 551 C381 551 350 520 350 483 C350 446 379 417 417 417 C455 417 484 447 484 483 C484 520 454 551 417 551 L417 551 Z M709 339 L124 339 L124 258 L709 258 L709 339 Z M417 179 C381 179 350 149 350 112 C350 75 379 46 417 46 C455 46 484 76 484 112 C484 149 454 179 417 179 L417 179 Z " />
<glyph glyph-name="oslash" unicode="&#xf8;" horiz-adv-x="550" d="M435 567 L381 479 C359 489 333 493 303 493 C225 493 159 466 108 414 C51 356 19 277 19 196 C19 120 47 61 101 21 L51 -62 L87 -86 L142 2 C167 -7 193 -11 223 -11 C295 -11 363 17 413 68 C469 125 501 205 501 284 C501 365 474 423 421 459 L472 542 L435 567 Z M347 418 L153 103 C145 129 141 160 141 193 C141 341 208 443 288 443 C313 443 331 435 347 418 L347 418 Z M368 374 C376 354 379 327 379 294 C379 141 313 39 234 39 C208 39 189 47 176 63 L368 374 Z " />
<glyph glyph-name="ugrave" unicode="&#xf9;" horiz-adv-x="599" d="M201 487 L28 450 L28 419 L108 407 L59 147 C55 128 53 107 53 87 C53 28 92 -10 156 -10 C199 -10 262 18 340 77 L340 68 C340 18 366 -10 415 -10 C449 -10 501 4 572 29 L572 66 C547 59 526 55 510 55 C482 55 463 74 463 106 C463 125 468 149 474 179 L533 487 L414 475 L346 123 C296 90 254 75 226 75 C192 75 173 93 173 129 C173 141 176 161 181 188 L239 487 L201 487 Z M214 742 L331 552 L398 552 L338 742 L214 742 Z " />
<glyph glyph-name="uacute" unicode="&#xfa;" horiz-adv-x="599" d="M201 487 L28 450 L28 419 L108 407 L59 147 C55 128 53 107 53 87 C53 28 92 -10 156 -10 C199 -10 262 18 340 77 L340 68 C340 18 366 -10 415 -10 C449 -10 501 4 572 29 L572 66 C547 59 526 55 510 55 C482 55 463 74 463 106 C463 125 468 149 474 179 L533 487 L414 475 L346 123 C296 90 254 75 226 75 C192 75 173 93 173 129 C173 141 176 161 181 188 L239 487 L201 487 Z M432 742 L298 552 L365 552 L555 742 L432 742 Z " />
<glyph glyph-name="ucircumflex" unicode="&#xfb;" horiz-adv-x="599" d="M201 487 L28 450 L28 419 L108 407 L59 147 C55 128 53 107 53 87 C53 28 92 -10 156 -10 C199 -10 262 18 340 77 L340 68 C340 18 366 -10 415 -10 C449 -10 501 4 572 29 L572 66 C547 59 526 55 510 55 C482 55 463 74 463 106 C463 125 468 149 474 179 L533 487 L414 475 L346 123 C296 90 254 75 226 75 C192 75 173 93 173 129 C173 141 176 161 181 188 L239 487 L201 487 Z M335 742 L188 552 L266 552 L366 677 L419 552 L496 552 L422 742 L335 742 Z " />
<glyph glyph-name="udieresis" unicode="&#xfc;" horiz-adv-x="599" d="M201 487 L28 450 L28 419 L108 407 L59 147 C55 128 53 107 53 87 C53 28 92 -10 156 -10 C199 -10 262 18 340 77 L340 68 C340 18 366 -10 415 -10 C449 -10 501 4 572 29 L572 66 C547 59 526 55 510 55 C482 55 463 74 463 106 C463 125 468 149 474 179 L533 487 L414 475 L346 123 C296 90 254 75 226 75 C192 75 173 93 173 129 C173 141 176 161 181 188 L239 487 L201 487 Z M251 710 C216 710 188 681 188 644 C188 608 217 579 251 579 C286 579 315 608 315 644 C315 680 286 710 251 710 L251 710 Z M458 710 C423 710 394 681 394 644 C394 608 423 579 458 579 C493 579 522 608 522 644 C522 681 493 710 458 710 L458 710 Z " />
<glyph glyph-name="yacute" unicode="&#xfd;" horiz-adv-x="494" d="M140 494 L-14 459 L-14 426 L73 418 C84 397 93 371 98 343 L158 26 L196 26 C142 -77 92 -131 47 -135 L-20 -72 C-56 -80 -79 -107 -79 -140 C-79 -180 -42 -216 6 -216 C88 -216 171 -137 259 21 C336 159 376 303 454 407 L513 440 L513 467 L434 494 L403 494 C341 349 291 225 250 122 L216 340 C201 436 183 485 140 494 L140 494 Z M374 742 L240 552 L307 552 L497 742 L374 742 Z " />
<glyph glyph-name="thorn" unicode="&#xfe;" horiz-adv-x="565" d="M237 736 L61 697 L61 664 L148 653 L7 -149 L-2 -162 L-63 -179 L-63 -218 L216 -218 L216 -179 L123 -161 L153 13 C179 3 205 -3 231 -3 C304 -3 377 29 428 83 C490 148 519 224 519 319 C519 428 464 494 385 494 C334 494 281 471 224 425 L260 626 C262 637 269 674 280 736 L237 736 Z M162 70 L217 376 C256 405 288 419 315 419 C363 419 394 379 394 306 C394 158 318 53 231 53 C210 53 187 58 162 70 L162 70 Z " />
<glyph glyph-name="ydieresis" unicode="&#xff;" horiz-adv-x="494" d="M140 494 L-14 459 L-14 426 L73 418 C84 397 93 371 98 343 L158 26 L196 26 C142 -77 92 -131 47 -135 L-20 -72 C-56 -80 -79 -107 -79 -140 C-79 -180 -42 -216 6 -216 C88 -216 171 -137 259 21 C336 159 376 303 454 407 L513 440 L513 467 L434 494 L403 494 C341 349 291 225 250 122 L216 340 C201 436 183 485 140 494 L140 494 Z M193 710 C158 710 130 681 130 644 C130 608 159 579 193 579 C228 579 257 608 257 644 C257 680 228 710 193 710 L193 710 Z M400 710 C365 710 336 681 336 644 C336 608 365 579 400 579 C435 579 464 608 464 644 C464 681 435 710 400 710 L400 710 Z " />
<glyph glyph-name="dotlessi" unicode="&#x131;" horiz-adv-x="318" d="M200 493 L29 456 L29 420 L111 407 L57 138 C52 111 48 89 48 71 C48 17 74 -7 129 -7 C173 -7 227 7 293 32 L293 73 C263 64 240 59 224 59 C192 59 175 78 175 114 C175 124 177 138 180 155 L244 493 L200 493 Z " />
<glyph glyph-name="Lslash" unicode="&#x141;" horiz-adv-x="529" d="M81 671 L81 624 L144 619 L154 605 L107 356 L7 299 L29 250 L94 287 L53 67 L37 54 L-25 48 L-25 0 L450 0 L488 197 L416 197 L377 72 L359 58 L178 58 L235 362 L371 437 L345 485 L247 430 L280 605 L297 618 L360 624 L360 671 L81 671 Z " />
<glyph glyph-name="lslash" unicode="&#x142;" horiz-adv-x="307" d="M231 736 L55 697 L55 664 L142 653 L87 371 L-16 316 L4 271 L76 311 L42 125 C39 109 38 95 38 81 C38 22 66 -9 120 -9 C155 -9 207 5 280 31 L280 70 C248 60 223 55 204 55 C176 55 158 74 158 106 C158 124 163 148 169 179 L207 378 L331 443 L309 487 L219 440 L256 633 C262 665 269 699 275 736 L231 736 Z " />
<glyph glyph-name="OE" unicode="&#x152;" horiz-adv-x="1003" d="M544 418 C544 322 517 227 477 161 C434 90 380 54 321 54 C234 54 178 127 178 255 C178 347 203 440 245 509 C289 582 343 619 401 619 C487 619 544 546 544 418 L544 418 Z M577 576 C538 647 476 683 391 683 C315 683 242 654 182 600 C91 518 38 394 38 251 C38 94 137 -12 286 -12 C358 -12 421 16 483 73 L470 0 L906 0 L941 180 L875 180 L836 72 L822 58 L602 58 L651 318 L766 318 L779 305 L778 231 L832 231 L876 462 L819 462 L796 389 L778 375 L662 375 L707 613 L890 613 L902 600 L903 515 L967 515 L998 671 L594 671 L577 576 Z " />
<glyph glyph-name="oe" unicode="&#x153;" horiz-adv-x="795" d="M366 303 C366 149 302 43 232 43 C181 43 149 91 149 181 C149 337 214 442 283 442 C336 442 366 394 366 303 L366 303 Z M454 412 C419 466 367 494 298 494 C142 494 20 365 20 192 C20 70 95 -10 212 -10 C280 -10 339 14 391 64 C415 17 464 -10 528 -10 C592 -10 662 19 735 78 L735 140 C676 91 622 67 579 67 C514 67 474 115 474 199 C474 208 474 217 475 226 L491 226 C663 226 759 289 759 385 C759 450 713 494 638 494 C575 494 512 466 454 412 L454 412 Z M479 268 C504 382 557 442 608 442 C636 442 654 424 654 394 C654 334 590 276 479 268 L479 268 Z " />
<glyph glyph-name="Scaron" unicode="&#x160;" horiz-adv-x="553" d="M23 45 C82 10 145 -7 212 -7 C370 -7 479 93 479 215 C479 301 426 336 334 388 C255 433 208 457 208 513 C208 574 264 624 346 624 C372 624 394 619 416 607 L424 597 L422 487 L482 487 L509 656 C451 674 397 683 347 683 C191 683 89 595 89 475 C89 433 102 398 128 374 C168 336 214 314 254 291 C315 255 354 231 354 174 C354 111 299 58 213 58 C182 58 153 65 122 78 L115 88 L116 207 L50 207 L23 45 Z M530 887 L454 887 L354 794 L299 887 L223 887 L302 732 L383 732 L530 887 Z " />
<glyph glyph-name="scaron" unicode="&#x161;" horiz-adv-x="403" d="M104 134 C89 149 70 157 47 157 C14 157 -12 132 -12 95 C-12 37 48 -10 140 -10 C253 -10 337 66 337 156 C337 224 296 255 231 302 C181 338 151 362 151 392 C151 423 180 449 223 449 C230 449 237 448 244 447 L291 357 C335 358 362 384 362 419 C362 463 320 493 247 493 C133 493 49 422 49 333 C49 284 83 254 145 211 C192 179 228 161 228 109 C228 68 197 37 153 37 C131 37 109 45 86 61 L104 134 Z M127 741 L200 551 L288 551 L434 741 L357 741 L256 616 L204 741 L127 741 Z " />
<glyph glyph-name="Ydieresis" unicode="&#x178;" horiz-adv-x="586" d="M26 671 L26 623 L89 617 L98 609 L212 262 L176 71 L160 55 L93 49 L93 0 L377 0 L377 49 L309 55 L298 68 L337 276 L581 606 L591 615 L656 623 L656 671 L422 671 L422 623 L486 616 L495 600 L310 343 L225 603 L237 617 L299 623 L299 671 L26 671 Z M467 878 C432 878 404 848 404 811 C404 775 432 746 467 746 C502 746 531 775 531 811 C531 848 502 878 467 878 L467 878 Z M260 878 C225 878 197 848 197 811 C197 775 226 746 260 746 C295 746 325 775 325 811 C325 847 295 878 260 878 L260 878 Z " />
<glyph glyph-name="Zcaron" unicode="&#x17d;" horiz-adv-x="572" d="M118 671 L84 493 L156 493 L190 602 L208 612 L421 612 L-14 50 L-17 0 L470 0 L507 196 L436 196 L398 73 L382 59 L141 59 L577 622 L580 671 L118 671 Z M552 887 L476 887 L376 794 L321 887 L245 887 L324 732 L405 732 L552 887 Z " />
<glyph glyph-name="zcaron" unicode="&#x17e;" horiz-adv-x="465" d="M387 502 L364 445 C359 444 354 444 350 444 C333 444 316 448 296 456 C264 469 229 495 181 495 C133 495 86 465 53 410 C36 382 28 354 28 331 C28 292 47 267 77 267 C101 267 122 281 137 309 L79 376 C93 391 110 398 131 398 C156 398 185 386 220 361 L307 379 L-20 27 L50 -14 L74 36 C83 38 91 39 97 39 C146 39 202 -2 264 -2 C311 -2 346 15 378 52 C408 87 424 127 424 162 C424 202 398 231 366 231 C342 231 322 216 308 187 L372 115 C355 99 335 90 313 90 C286 90 255 104 217 132 L130 108 L461 456 L387 502 Z M158 741 L231 551 L319 551 L465 741 L388 741 L287 616 L235 741 L158 741 Z " />
<glyph glyph-name="florin" unicode="&#x192;" horiz-adv-x="586" d="M509 533 C559 555 585 584 585 617 C585 655 552 683 501 683 C461 683 403 665 358 634 C290 587 252 528 235 441 L221 369 L109 369 L103 309 L213 309 L176 105 C159 10 139 -54 91 -92 L5 -7 C-39 -26 -63 -59 -63 -90 C-63 -123 -31 -148 20 -148 C74 -148 137 -121 192 -69 C272 7 311 130 334 309 L491 309 L497 369 L344 369 L360 463 C374 541 389 595 434 628 L509 533 Z " />
<glyph glyph-name="circumflex" unicode="&#x2c6;" horiz-adv-x="500" d="M285 742 L138 552 L216 552 L316 677 L369 552 L446 552 L372 742 L285 742 Z " />
<glyph glyph-name="caron" unicode="&#x2c7;" horiz-adv-x="500" d="M175 741 L248 551 L336 551 L482 741 L405 741 L304 616 L252 741 L175 741 Z " />
<glyph glyph-name="breve" unicode="&#x2d8;" horiz-adv-x="500" d="M172 719 C169 696 167 679 167 667 C167 597 208 567 296 567 C405 567 458 611 477 719 L426 718 C413 656 381 638 309 638 C247 638 222 652 222 692 C222 695 222 703 223 718 L172 719 Z " />
<glyph glyph-name="dotaccent" unicode="&#x2d9;" horiz-adv-x="500" d="M303 713 C267 713 237 682 237 644 C237 606 268 576 303 576 C339 576 369 607 369 644 C369 682 339 713 303 713 L303 713 Z " />
<glyph glyph-name="ring" unicode="&#x2da;" horiz-adv-x="500" d="M313 779 C249 779 200 730 200 666 C200 603 250 552 313 552 C377 552 427 603 427 666 C427 730 377 779 313 779 L313 779 Z M313 729 C349 729 377 701 377 666 C377 632 348 602 313 602 C279 602 250 631 250 666 C250 702 279 729 313 729 L313 729 Z " />
<glyph glyph-name="ogonek" unicode="&#x2db;" horiz-adv-x="500" d="M231 0 L176 0 C112 -49 80 -107 80 -159 C80 -199 110 -224 169 -224 C186 -224 205 -221 225 -216 L238 -149 C223 -151 212 -152 206 -152 C176 -152 160 -138 160 -114 C160 -79 184 -37 231 0 L231 0 Z " />
<glyph glyph-name="tilde" unicode="&#x2dc;" horiz-adv-x="500" d="M432 722 C426 680 409 659 381 659 C347 659 303 706 245 706 C186 706 144 658 132 570 L187 570 C192 611 210 633 236 633 C266 633 310 587 373 587 C430 587 472 634 485 722 L432 722 Z " />
<glyph glyph-name="hungarumlaut" unicode="&#x2dd;" horiz-adv-x="500" d="M284 742 L150 552 L209 552 L396 742 L284 742 Z M450 742 L282 552 L349 552 L577 742 L450 742 Z " />
<glyph glyph-name="endash" unicode="&#x2013;" horiz-adv-x="500" d="M-9 286 L-25 196 L481 196 L498 286 L-9 286 Z " />
<glyph glyph-name="emdash" unicode="&#x2014;" horiz-adv-x="1000" d="M1000 286 L-5 286 L-22 196 L986 196 L1000 286 Z " />
<glyph glyph-name="quoteleft" unicode="&#x2018;" horiz-adv-x="261" d="M265 698 C143 649 76 556 76 474 C76 425 104 395 150 395 C197 395 232 432 232 478 C232 491 228 504 221 515 L161 515 C165 576 205 627 281 669 L265 698 Z " />
<glyph glyph-name="quoteright" unicode="&#x2019;" horiz-adv-x="261" d="M80 395 C202 444 269 537 269 619 C269 667 240 698 195 698 C148 698 113 661 113 614 C113 601 117 589 124 578 L184 578 C181 519 141 468 64 425 L80 395 Z " />
<glyph glyph-name="quotesinglbase" unicode="&#x201a;" horiz-adv-x="261" d="M-37 -174 C85 -125 151 -31 151 51 C151 99 122 129 77 129 C30 129 -5 92 -5 46 C-5 33 -1 21 6 10 L66 10 C63 -49 23 -102 -54 -144 L-37 -174 Z " />
<glyph glyph-name="quotedblleft" unicode="&#x201c;" horiz-adv-x="481" d="M267 698 C145 649 78 556 78 475 C78 426 106 395 151 395 C198 395 234 432 234 479 C234 492 230 504 223 515 L162 515 C165 574 205 626 282 668 L267 698 Z M487 698 C365 649 298 556 298 474 C298 426 327 395 372 395 C419 395 455 433 455 479 C455 492 451 504 444 515 L383 515 C387 575 427 626 503 668 L487 698 Z " />
<glyph glyph-name="quotedblright" unicode="&#x201d;" horiz-adv-x="481" d="M80 395 C202 444 269 537 269 619 C269 667 240 698 195 698 C148 698 113 660 113 615 C113 602 117 590 124 578 L184 578 C181 519 141 467 64 425 L80 395 Z M301 395 C423 444 490 537 490 619 C490 667 461 698 416 698 C369 698 334 660 334 615 C334 602 337 590 344 578 L405 578 C402 519 362 467 285 425 L301 395 Z " />
<glyph glyph-name="quotedblbase" unicode="&#x201e;" horiz-adv-x="481" d="M-35 -174 C87 -125 154 -31 154 51 C154 99 125 129 80 129 C33 129 -2 92 -2 46 C-2 33 2 21 9 10 L69 10 C65 -51 25 -102 -51 -144 L-35 -174 Z M186 -174 C308 -125 375 -31 375 51 C375 99 347 129 301 129 C254 129 219 92 219 45 C219 32 222 21 230 10 L290 10 C287 -50 247 -102 170 -144 L186 -174 Z " />
<glyph glyph-name="dagger" unicode="&#x2020;" horiz-adv-x="500" d="M322 718 L252 642 L273 502 L290 502 L364 642 L322 718 Z M125 538 L45 483 L106 428 L257 471 L261 490 L125 538 Z M447 538 L297 490 L294 471 L428 428 L510 483 L447 538 Z M265 459 L181 294 L152 -129 L170 -129 L303 294 L282 459 L265 459 Z " />
<glyph glyph-name="daggerdbl" unicode="&#x2021;" horiz-adv-x="500" d="M323 718 L256 642 L275 502 L291 502 L363 642 L323 718 Z M125 537 L45 483 L106 430 L257 471 L261 490 L125 537 Z M447 537 L297 490 L294 471 L428 430 L510 483 L447 537 Z M267 460 L178 294 L204 127 L219 127 L305 294 L282 460 L267 460 Z M55 159 L-25 106 L36 52 L188 94 L191 112 L55 159 Z M377 159 L228 112 L224 94 L358 52 L441 106 L377 159 Z M196 84 L124 -56 L162 -132 L230 -56 L212 84 L196 84 Z " />
<glyph glyph-name="bullet" unicode="&#x2022;" horiz-adv-x="590" d="M150 372 C150 292 214 227 294 227 C374 227 439 293 439 372 C439 452 374 516 295 516 C215 516 150 452 150 372 L150 372 Z " />
<glyph glyph-name="ellipsis" unicode="&#x2026;" horiz-adv-x="1000" d="M113 151 C70 151 34 116 34 71 C34 27 70 -8 113 -8 C157 -8 193 27 193 71 C193 115 157 151 113 151 L113 151 Z M779 151 C736 151 701 116 701 71 C701 27 736 -8 779 -8 C823 -8 859 27 859 71 C859 115 823 151 779 151 L779 151 Z M446 151 C403 151 368 116 368 71 C368 27 403 -8 446 -8 C490 -8 526 27 526 71 C526 115 490 151 446 151 L446 151 Z " />
<glyph glyph-name="perthousand" unicode="&#x2030;" horiz-adv-x="1291" d="M265 683 C146 683 55 571 55 403 C55 319 108 263 190 263 C309 263 401 376 401 537 C401 627 349 683 265 683 L265 683 Z M681 671 L142 0 L218 0 L757 671 L681 671 Z M255 638 C287 638 303 611 303 556 C303 409 247 308 197 308 C164 308 148 335 148 390 C148 452 161 518 183 569 C202 615 226 638 255 638 L255 638 Z M711 407 C592 407 501 297 501 129 C501 45 553 -12 636 -12 C755 -12 846 101 846 261 C846 351 795 407 711 407 L711 407 Z M1108 407 C989 407 897 296 897 128 C897 44 949 -12 1032 -12 C1151 -12 1243 101 1243 260 C1243 351 1192 407 1108 407 L1108 407 Z M701 363 C733 363 749 336 749 281 C749 218 736 151 715 102 C695 56 671 33 641 33 C609 33 594 60 594 114 C594 176 607 241 629 294 C648 340 671 363 701 363 L701 363 Z M1097 363 C1129 363 1146 335 1146 281 C1146 217 1132 150 1111 102 C1091 56 1068 33 1038 33 C1006 33 991 60 991 115 C991 178 1003 242 1025 294 C1044 340 1068 363 1097 363 L1097 363 Z " />
<glyph glyph-name="guilsinglleft" unicode="&#x2039;" horiz-adv-x="266" d="M227 425 L26 282 L10 198 L159 55 L174 138 L83 240 L212 342 L227 425 Z " />
<glyph glyph-name="guilsinglright" unicode="&#x203a;" horiz-adv-x="266" d="M55 425 L40 342 L131 240 L2 138 L-13 55 L188 198 L204 282 L55 425 Z " />
<glyph glyph-name="fraction" unicode="&#x2044;" horiz-adv-x="185" d="M315 671 L-157 0 L-87 0 L385 671 L315 671 Z " />
<glyph glyph-name="trademark" unicode="&#x2122;" horiz-adv-x="817" d="M114 662 L114 588 L144 588 L150 632 L158 637 L202 637 L202 429 L166 423 L166 399 L295 399 L295 423 L259 430 L259 637 L304 637 L311 632 L319 588 L348 588 L348 662 L114 662 Z M375 662 L375 637 L407 631 L407 429 L375 423 L375 399 L469 399 L469 423 L438 429 L438 632 L521 399 L551 399 L636 632 L636 429 L607 423 L607 399 L724 399 L724 423 L691 429 L691 631 L724 637 L724 662 L611 662 L611 649 L550 478 L489 649 L489 662 L375 662 Z " />
<glyph glyph-name="minus" unicode="&#x2212;" horiz-adv-x="833" d="M709 340 L124 340 L124 257 L709 257 L709 340 Z " />
<glyph glyph-name="fi" unicode="&#xfb01;" horiz-adv-x="621" d="M531 721 C491 721 459 689 459 648 C459 612 486 587 523 587 C563 587 594 618 594 658 C594 695 570 721 531 721 L531 721 Z M389 602 C423 616 442 642 442 669 C442 705 408 734 352 734 C246 734 142 638 114 478 L36 444 L36 400 L102 408 L59 102 C42 -16 28 -100 -6 -146 L-113 -89 C-139 -101 -154 -123 -154 -154 C-154 -185 -124 -214 -89 -214 C-22 -214 51 -165 108 -75 C146 -14 167 58 180 147 L217 409 L417 409 L363 138 C357 110 354 88 354 71 C354 17 380 -7 435 -7 C479 -7 533 7 599 32 L599 73 C569 64 546 59 530 59 C498 59 481 79 481 115 C481 124 483 137 486 155 L550 493 L506 493 L411 467 L225 467 C245 578 271 651 300 686 L389 602 Z " />
<glyph glyph-name="fl" unicode="&#xfb02;" horiz-adv-x="629" d="M553 734 L433 703 C416 723 390 734 353 734 C245 734 142 637 114 478 L36 444 L36 400 L102 408 L58 102 C41 -16 27 -100 -7 -146 L-114 -89 C-140 -101 -154 -123 -154 -154 C-154 -185 -124 -214 -89 -214 C-22 -214 51 -165 108 -75 C146 -14 167 58 180 147 L217 409 L352 409 L352 467 L224 467 C244 578 271 651 300 686 L381 605 L426 653 L464 650 L373 179 C365 135 359 103 359 81 C359 20 388 -9 449 -9 C476 -9 529 2 602 31 L602 70 C568 59 544 54 528 54 C498 54 481 71 481 105 C481 122 485 150 492 187 L585 677 C587 688 590 708 596 734 L553 734 Z " />
</font>
</svg>
