<?xml version="1.0" encoding="UTF-8"?>
<svg xmlns="http://www.w3.org/2000/svg" xmlns:xlink="http://www.w3.org/1999/xlink" version="1.2" >
<font id="ITC Charter Italic">
<font-face  font-family="ITC Charter" units-per-em="1000" ascent="736.328" descent="-217.773" font-style="italic" font-weight="400" font-stretch="normal" slope="-11" cap-height="750" x-height="500" underline-position="-78.5" underline-thickness="61" />
<missing-glyph  horiz-adv-x="278" d="" />
<glyph glyph-name="NULL" d="" />
<glyph glyph-name="CR" unicode="&#xd;" horiz-adv-x="250" d="" />
<glyph glyph-name="space" unicode="&#x20;" horiz-adv-x="278" d="" />
<glyph glyph-name="exclam" unicode="&#x21;" horiz-adv-x="338" d="M263 553 C274 594 280 623 280 638 C280 666 264 683 236 683 C182 683 168 639 158 553 L113 171 L162 171 L263 553 Z M120 105 C89 105 64 79 64 48 C64 17 90 -9 120 -9 C152 -9 178 17 178 48 C178 79 152 105 120 105 L120 105 Z " />
<glyph glyph-name="quotedbl" unicode="&#x22;" horiz-adv-x="331" d="M93 422 L125 645 C126 653 127 660 127 665 C127 697 111 714 85 714 C59 714 44 697 44 665 C44 659 45 652 46 645 L77 422 L93 422 Z M253 422 L286 645 C287 653 287 660 287 665 C287 697 272 714 246 714 C220 714 204 697 204 664 C204 658 205 652 206 645 L238 422 L253 422 Z " />
<glyph glyph-name="numbersign" unicode="&#x23;" horiz-adv-x="745" d="M370 710 L287 470 L113 470 L113 423 L271 423 L223 277 L64 277 L64 230 L208 230 L126 -7 L173 -23 L256 230 L409 230 L329 -7 L376 -23 L460 230 L639 230 L639 277 L476 277 L525 423 L680 423 L680 470 L541 470 L619 692 L572 710 L492 470 L338 470 L417 692 L370 710 Z M323 423 L474 423 L423 277 L274 277 L323 423 Z " />
<glyph glyph-name="dollar" unicode="&#x24;" horiz-adv-x="556" d="M338 743 L324 669 C194 660 108 572 108 472 C108 401 155 351 254 306 L204 46 C173 47 139 56 104 73 L95 85 L105 197 L53 197 L21 44 C69 18 127 3 195 0 L175 -102 L217 -102 L237 0 C383 17 468 97 468 206 C468 284 417 335 309 375 L357 627 C383 625 408 619 431 609 L443 592 L438 496 L483 496 L514 642 C460 661 411 671 366 672 L379 743 L338 743 Z M315 626 L270 395 C216 418 191 450 191 498 C191 560 237 611 315 626 L315 626 Z M294 287 C353 264 380 233 380 181 C380 113 334 63 248 47 L294 287 Z " />
<glyph glyph-name="percent" unicode="&#x25;" horiz-adv-x="852" d="M247 683 C188 683 137 652 100 592 C69 541 50 471 50 404 C50 315 94 264 167 264 C226 264 277 295 314 355 C346 407 365 476 365 543 C365 631 320 683 247 683 L247 683 Z M673 671 L116 0 L177 0 L734 671 L673 671 Z M239 647 C276 647 294 617 294 558 C294 493 278 422 255 372 C233 323 206 300 172 300 C135 300 118 329 118 388 C118 452 133 521 157 574 C179 623 206 647 239 647 L239 647 Z M684 407 C625 407 574 376 537 316 C506 265 487 196 487 129 C487 39 531 -12 604 -12 C663 -12 714 20 751 80 C783 132 802 200 802 267 C802 355 757 407 684 407 L684 407 Z M676 372 C713 372 731 342 731 283 C731 218 715 147 692 97 C670 48 643 24 609 24 C572 24 555 54 555 113 C555 177 570 246 594 299 C616 348 643 372 676 372 L676 372 Z " />
<glyph glyph-name="ampersand" unicode="&#x26;" horiz-adv-x="704" d="M665 360 L469 360 L469 318 L518 308 L530 292 C499 230 470 187 443 162 L294 360 C428 401 498 469 498 553 C498 630 442 684 352 684 C225 684 137 599 137 499 C137 460 156 417 192 366 C76 307 20 238 20 152 C20 58 89 -11 191 -11 C267 -11 343 17 411 74 C456 20 485 -4 535 -4 C542 -4 551 -4 560 -3 L631 1 L631 41 L620 41 C555 41 509 67 468 128 C508 167 551 228 594 309 L665 318 L665 360 Z M387 105 C340 67 290 48 241 48 C165 48 110 105 110 182 C110 246 144 291 215 335 L387 105 Z M271 387 C232 438 212 482 212 524 C212 589 263 639 331 639 C382 639 416 603 416 546 C416 473 368 422 271 387 L271 387 Z " />
<glyph glyph-name="quotesingle" unicode="&#x27;" horiz-adv-x="170" d="M93 422 L125 645 C126 653 127 660 127 665 C127 697 111 714 85 714 C59 714 44 697 44 664 C44 658 44 652 45 645 L77 422 L93 422 Z " />
<glyph glyph-name="parenleft" unicode="&#x28;" horiz-adv-x="419" d="M459 718 C391 713 324 682 267 629 C207 574 165 512 138 437 C98 325 79 223 79 137 C79 -22 168 -133 294 -142 L302 -100 C212 -86 161 -10 161 121 C161 192 177 296 216 426 C236 493 266 549 310 598 C348 641 398 669 451 676 L459 718 Z " />
<glyph glyph-name="parenright" unicode="&#x29;" horiz-adv-x="419" d="M99 718 L91 676 C180 663 231 587 231 461 C231 397 218 298 183 171 C162 94 130 31 83 -22 C45 -65 -5 -93 -58 -100 L-66 -142 C0 -138 68 -107 126 -53 C243 55 313 233 313 445 C313 598 225 707 99 718 L99 718 Z " />
<glyph glyph-name="asterisk" unicode="&#x2a;" horiz-adv-x="500" d="M323 718 L272 657 L281 532 L295 532 L351 657 L323 718 Z M426 589 L304 520 L306 507 L436 515 L492 571 L426 589 Z M295 491 L283 484 L307 364 L369 338 L379 410 L295 491 Z M264 491 L148 410 L131 338 L203 363 L273 484 L264 491 Z M172 589 L99 571 L133 515 L261 507 L267 519 L172 589 Z " />
<glyph glyph-name="plus" unicode="&#x2b;" horiz-adv-x="833" d="M388 596 L388 327 L124 327 L124 270 L388 270 L388 0 L446 0 L446 270 L709 270 L709 327 L446 327 L446 596 L388 596 Z " />
<glyph glyph-name="comma" unicode="&#x2c;" horiz-adv-x="278" d="M-57 -169 C64 -155 148 -55 148 37 C148 81 125 106 84 106 C44 106 13 77 13 36 C13 25 16 16 22 7 L86 7 C75 -72 29 -121 -51 -136 L-57 -169 Z " />
<glyph glyph-name="hyphen" unicode="&#x2d;" horiz-adv-x="319" d="M36 274 L23 207 L247 207 L260 274 L36 274 Z " />
<glyph glyph-name="period" unicode="&#x2e;" horiz-adv-x="278" d="M85 114 C52 114 26 87 26 54 C26 21 53 -5 85 -5 C118 -5 145 21 145 54 C145 88 119 114 85 114 L85 114 Z " />
<glyph glyph-name="slash" unicode="&#x2f;" horiz-adv-x="481" d="M464 671 L-111 -93 L-50 -93 L525 671 L464 671 Z " />
<glyph glyph-name="zero" unicode="0" horiz-adv-x="556" d="M344 683 C251 683 170 631 111 532 C59 445 27 328 27 213 C27 72 98 -12 211 -12 C304 -12 385 41 444 140 C496 227 528 342 528 458 C528 599 457 683 344 683 L344 683 Z M436 476 C436 437 431 390 420 336 C405 261 387 201 368 161 C328 77 281 36 220 36 C153 36 119 89 119 196 C119 235 124 281 135 336 C150 411 168 470 187 510 C226 594 276 636 332 636 C403 636 436 583 436 476 L436 476 Z " />
<glyph glyph-name="one" unicode="1" horiz-adv-x="556" d="M380 683 L147 617 L147 576 L292 595 L302 585 L202 66 L186 49 L82 43 L82 0 L381 0 L381 43 L294 48 L285 62 L404 683 L380 683 Z " />
<glyph glyph-name="two" unicode="2" horiz-adv-x="556" d="M92 79 C368 269 517 389 517 533 C517 626 454 683 347 683 C204 683 101 599 101 527 C101 504 119 486 148 486 C164 486 180 491 196 501 L216 608 C249 624 280 632 310 632 C379 632 419 593 419 524 C419 373 266 256 -10 63 L-22 0 L441 0 L472 164 L427 164 L393 79 L92 79 Z " />
<glyph glyph-name="three" unicode="3" horiz-adv-x="556" d="M319 357 C444 388 512 461 512 546 C512 629 449 683 341 683 C203 683 103 609 103 543 C103 515 122 496 147 496 C158 496 174 501 194 508 L208 604 C239 625 270 636 303 636 C372 636 415 595 415 529 C415 444 343 375 228 375 C220 375 212 375 203 376 L195 320 C219 323 239 324 255 324 C333 324 377 283 377 215 C377 115 298 36 190 36 C159 36 132 44 106 60 L91 146 C78 151 66 153 56 153 C22 153 1 131 1 97 C1 37 73 -11 179 -11 C247 -11 313 9 365 44 C433 91 472 160 472 227 C472 303 417 353 319 357 L319 357 Z " />
<glyph glyph-name="four" unicode="4" horiz-adv-x="556" d="M433 677 L12 259 L0 194 L322 194 L278 -37 L355 -37 L399 194 L511 194 L524 259 L412 259 L492 677 L433 677 Z M394 568 L335 259 L87 259 L394 568 Z " />
<glyph glyph-name="five" unicode="5" horiz-adv-x="556" d="M169 671 L103 346 C151 350 186 352 209 352 C318 352 377 306 377 223 C377 121 290 34 185 34 C158 34 134 39 112 49 L86 134 C77 136 68 137 61 137 C27 137 4 112 4 79 C4 25 59 -13 162 -13 C242 -13 314 12 372 60 C433 110 467 181 467 247 C467 346 401 408 285 408 C251 408 214 402 173 391 L214 595 L505 595 L519 671 L169 671 Z " />
<glyph glyph-name="six" unicode="6" horiz-adv-x="556" d="M488 716 C371 701 276 661 203 595 C92 495 32 361 32 217 C32 73 111 -12 229 -12 C383 -12 501 117 501 268 C501 381 431 450 326 450 C271 450 212 430 154 387 C195 545 320 648 490 665 L488 716 Z M141 336 C183 371 233 390 283 390 C368 390 411 341 411 247 C411 123 333 34 240 34 C167 34 122 97 122 208 C122 258 130 300 141 336 L141 336 Z " />
<glyph glyph-name="seven" unicode="7" horiz-adv-x="556" d="M135 671 L103 504 L150 504 L183 595 L492 595 L45 -37 L128 -37 L132 -15 L588 631 L596 671 L135 671 Z " />
<glyph glyph-name="eight" unicode="8" horiz-adv-x="556" d="M325 369 C234 408 189 443 189 499 C189 581 253 640 334 640 C397 640 438 600 438 535 C438 466 396 402 325 369 L325 369 Z M365 353 C465 392 518 460 518 541 C518 627 452 684 346 684 C208 684 105 592 105 477 C105 417 133 378 188 350 C76 299 18 225 18 141 C18 50 93 -17 216 -17 C383 -17 492 85 492 205 C492 273 452 311 365 353 L365 353 Z M222 328 C343 274 402 251 402 180 C402 99 333 32 240 32 C157 32 102 82 102 159 C102 232 141 282 222 328 L222 328 Z " />
<glyph glyph-name="nine" unicode="9" horiz-adv-x="556" d="M413 344 C366 302 317 281 266 281 C188 281 138 336 138 425 C138 544 219 639 308 639 C385 639 432 583 432 479 C432 440 425 395 413 344 L413 344 Z M46 -56 C353 45 522 248 522 477 C522 609 451 683 324 683 C258 683 198 661 146 618 C83 565 46 485 46 405 C46 297 118 225 220 225 C269 225 326 244 391 280 C316 142 198 47 28 -14 L46 -56 Z " />
<glyph glyph-name="colon" unicode="&#x3a;" horiz-adv-x="319" d="M175 477 C142 477 116 451 116 418 C116 385 143 358 175 358 C208 358 234 385 234 418 C234 452 209 477 175 477 L175 477 Z M106 114 C73 114 47 87 47 54 C47 21 74 -5 106 -5 C139 -5 166 21 166 54 C166 88 140 114 106 114 L106 114 Z " />
<glyph glyph-name="semicolon" unicode="&#x3b;" horiz-adv-x="319" d="M175 477 C142 477 116 451 116 418 C116 385 143 358 175 358 C208 358 234 385 234 418 C234 452 209 477 175 477 L175 477 Z M-32 -169 C89 -155 173 -55 173 37 C173 81 150 106 109 106 C69 106 38 77 38 36 C38 25 41 16 47 7 L111 7 C100 -72 54 -121 -26 -136 L-32 -169 Z " />
<glyph glyph-name="less" unicode="&#x3c;" horiz-adv-x="833" d="M704 559 L129 323 L129 273 L704 37 L704 100 L216 298 L704 497 L704 559 Z " />
<glyph glyph-name="equal" unicode="&#x3d;" horiz-adv-x="833" d="M124 420 L124 363 L709 363 L709 420 L124 420 Z M124 233 L124 176 L709 176 L709 233 L124 233 Z " />
<glyph glyph-name="greater" unicode="&#x3e;" horiz-adv-x="833" d="M129 559 L129 497 L617 298 L129 100 L129 37 L704 273 L704 323 L129 559 Z " />
<glyph glyph-name="question" unicode="&#x3f;" horiz-adv-x="486" d="M218 288 C369 347 445 433 445 540 C445 628 381 683 269 683 C170 683 103 633 103 576 C103 551 120 537 154 537 C159 537 165 537 172 538 L232 637 L235 637 C312 637 353 601 353 532 C353 436 290 359 171 317 L143 171 L195 171 L218 288 Z M151 105 C120 105 94 79 94 48 C94 17 121 -9 151 -9 C183 -9 208 17 208 48 C208 79 183 105 151 105 L151 105 Z " />
<glyph glyph-name="at" unicode="&#x40;" horiz-adv-x="942" d="M553 450 L594 394 L553 184 C518 140 484 118 448 118 C395 118 365 156 365 229 C365 359 442 452 528 452 C532 452 540 451 553 450 L553 450 Z M551 141 L551 132 C551 81 577 55 625 55 C689 55 767 100 816 176 C852 232 871 299 871 373 C871 564 741 692 528 692 C412 692 300 650 221 578 C125 491 76 379 76 246 C76 128 114 31 188 -40 C265 -114 365 -153 477 -153 C571 -153 675 -124 781 -65 L767 -31 C683 -80 594 -104 505 -104 C291 -104 147 39 147 258 C147 376 188 472 271 549 C340 613 432 649 535 649 C712 649 825 536 825 372 C825 292 798 215 755 163 C726 129 694 111 667 111 C641 111 625 128 625 154 C625 166 627 184 633 209 L672 381 C680 417 686 454 699 488 L645 488 L627 465 C593 483 561 492 529 492 C459 492 385 454 336 388 C300 339 280 280 280 217 C280 119 334 57 405 57 C451 57 497 85 551 141 L551 141 Z " />
<glyph glyph-name="A" unicode="A" horiz-adv-x="606" d="M345 677 L-24 44 L-79 38 L-79 0 L119 0 L119 38 L58 43 L50 57 L157 248 L400 248 L431 57 L424 43 L365 38 L365 0 L584 0 L584 38 L535 43 L518 61 L411 677 L345 677 Z M345 579 L391 291 L182 291 L345 579 Z " />
<glyph glyph-name="B" unicode="B" horiz-adv-x="588" d="M84 671 L84 633 L148 628 L158 613 L52 58 L35 44 L-28 38 L-28 0 L222 0 C424 0 524 73 524 223 C524 305 470 351 366 356 C481 385 543 452 543 545 C543 634 477 671 341 671 L84 671 Z M199 369 L247 629 C271 631 289 632 302 632 C397 632 444 601 444 539 C444 432 372 366 250 366 C237 366 221 367 199 369 L199 369 Z M137 44 L191 322 C225 325 250 327 268 327 C375 327 426 293 426 216 C426 100 351 41 203 41 C182 41 160 42 137 44 L137 44 Z " />
<glyph glyph-name="C" unicode="C" horiz-adv-x="604" d="M622 649 C557 672 496 683 441 683 C349 683 266 654 197 597 C99 516 41 395 41 265 C41 96 145 -12 310 -12 C371 -12 439 0 509 23 L536 181 L493 181 L449 66 L430 49 C400 40 371 35 344 35 C212 35 136 115 136 253 C136 384 183 498 261 568 C310 612 373 636 439 636 C477 636 511 628 544 610 L552 591 L552 495 L594 495 L622 649 Z " />
<glyph glyph-name="D" unicode="D" horiz-adv-x="671" d="M84 671 L84 633 L149 628 L159 613 L52 58 L36 44 L-28 38 L-28 0 L183 0 C320 0 421 33 500 111 C579 189 623 300 623 416 C623 581 516 671 311 671 L84 671 Z M249 625 L303 625 C453 625 526 562 526 427 C526 324 492 219 441 152 C389 84 304 47 195 47 L140 47 L249 625 Z " />
<glyph glyph-name="E" unicode="E" horiz-adv-x="546" d="M88 671 L88 633 L152 628 L163 613 L56 58 L39 44 L-24 38 L-24 0 L460 0 L492 163 L446 163 L412 62 L394 46 L139 46 L193 325 L346 325 L358 311 L354 239 L395 239 L437 459 L394 459 L372 386 L354 372 L202 372 L251 625 L466 625 L477 610 L477 525 L525 525 L553 671 L88 671 Z " />
<glyph glyph-name="F" unicode="F" horiz-adv-x="509" d="M86 671 L86 633 L150 627 L160 613 L53 57 L37 43 L-26 38 L-26 0 L225 0 L225 40 L155 45 L141 60 L190 315 L331 315 L343 300 L339 228 L382 228 L425 448 L381 448 L358 376 L340 361 L199 361 L249 625 L451 625 L461 609 L461 514 L509 514 L540 671 L86 671 Z " />
<glyph glyph-name="G" unicode="G" horiz-adv-x="664" d="M639 654 C594 672 532 684 459 684 C363 684 275 654 201 596 C98 516 39 395 39 266 C39 99 147 -12 312 -12 C367 -12 438 -1 523 23 L570 264 L586 278 L650 283 L650 322 L404 322 L404 283 L469 278 L479 264 L441 51 C398 42 363 37 336 37 C217 37 136 123 136 252 C136 383 186 497 267 566 C320 611 384 635 450 635 C486 635 519 626 551 610 L560 589 L557 495 L610 495 L639 654 Z " />
<glyph glyph-name="H" unicode="H" horiz-adv-x="712" d="M84 671 L84 633 L149 628 L159 613 L52 58 L36 44 L-28 38 L-28 0 L215 0 L215 38 L151 44 L139 58 L191 328 L516 328 L465 58 L450 44 L385 38 L385 0 L627 0 L627 38 L563 44 L553 58 L659 613 L675 628 L741 633 L741 671 L497 671 L497 633 L561 628 L573 613 L526 374 L200 374 L247 613 L262 628 L328 633 L328 671 L84 671 Z " />
<glyph glyph-name="I" unicode="I" horiz-adv-x="312" d="M89 671 L89 633 L153 628 L164 613 L57 58 L41 44 L-23 38 L-23 0 L221 0 L221 38 L156 44 L144 58 L251 613 L267 628 L333 633 L333 671 L89 671 Z " />
<glyph glyph-name="J" unicode="J" horiz-adv-x="447" d="M228 671 L228 633 L292 628 L303 613 L233 252 C205 108 181 36 88 36 C78 36 66 37 53 40 L41 53 L41 180 L-9 180 L-42 12 C-8 -4 33 -12 81 -12 C233 -12 288 69 323 256 L390 613 L406 628 L471 633 L471 671 L228 671 Z " />
<glyph glyph-name="K" unicode="K" horiz-adv-x="625" d="M82 671 L82 633 L146 628 L157 613 L50 58 L34 44 L-30 38 L-30 0 L214 0 L214 38 L149 44 L136 58 L182 298 L252 298 L368 69 C398 10 413 -4 484 -4 C504 -4 534 -2 574 1 L574 39 L554 39 C494 39 477 51 456 92 L314 368 L577 625 L660 631 L660 671 L418 671 L418 632 L488 627 L494 611 L219 340 L190 340 L244 613 L260 628 L325 633 L325 671 L82 671 Z " />
<glyph glyph-name="L" unicode="L" horiz-adv-x="498" d="M84 671 L84 633 L149 628 L159 613 L52 58 L36 43 L-28 38 L-28 0 L418 0 L453 182 L405 182 L366 62 L348 46 L136 46 L246 613 L262 628 L327 633 L327 671 L84 671 Z " />
<glyph glyph-name="M" unicode="M" horiz-adv-x="839" d="M84 671 L84 633 L147 628 L158 613 L52 58 L36 44 L-27 38 L-27 0 L181 0 L181 38 L122 44 L107 58 L211 616 L319 0 L363 0 L708 619 L601 58 L591 44 L519 38 L519 0 L756 0 L756 38 L692 44 L682 58 L788 613 L804 628 L867 633 L867 671 L659 671 L659 640 L379 135 L288 644 L288 671 L84 671 Z " />
<glyph glyph-name="N" unicode="N" horiz-adv-x="683" d="M81 671 L81 633 L146 628 L156 613 L49 58 L33 44 L-31 38 L-31 0 L180 0 L180 38 L116 44 L105 58 L202 556 L465 0 L523 0 L640 613 L656 628 L720 633 L720 671 L510 671 L510 633 L574 628 L584 613 L492 139 L253 646 L253 671 L81 671 Z " />
<glyph glyph-name="O" unicode="O" horiz-adv-x="708" d="M405 682 C304 682 203 631 135 541 C74 461 41 363 41 259 C41 100 151 -12 306 -12 C409 -12 508 39 577 129 C636 206 669 308 669 420 C669 507 630 586 562 636 C522 666 467 682 405 682 L405 682 Z M571 419 C571 320 541 220 492 149 C441 74 379 36 310 36 C207 36 137 118 137 253 C137 351 167 451 216 523 C267 598 330 636 398 636 C502 636 571 555 571 419 L571 419 Z " />
<glyph glyph-name="P" unicode="P" horiz-adv-x="542" d="M84 671 L84 633 L148 628 L159 613 L52 58 L36 44 L-28 38 L-28 0 L209 0 L209 38 L145 44 L138 58 L176 254 C203 253 223 252 238 252 C426 252 543 361 543 513 C543 577 505 632 447 653 C400 670 351 671 297 671 L84 671 Z M248 626 C263 627 276 628 289 628 C398 628 450 589 450 498 C450 374 368 299 223 299 C211 299 198 300 185 301 L248 626 Z " />
<glyph glyph-name="Q" unicode="Q" horiz-adv-x="708" d="M700 -80 C654 -99 616 -106 594 -106 C523 -106 493 -69 448 19 C587 95 669 241 669 419 C669 507 629 586 562 635 C521 665 468 682 407 682 C303 682 204 631 135 541 C74 461 40 362 40 258 C40 102 154 -13 302 -13 C316 -13 335 -11 360 -8 C406 -113 457 -160 540 -160 C587 -160 638 -143 700 -114 L700 -80 Z M136 253 C136 350 167 452 216 523 C267 598 330 636 399 636 C503 636 571 554 571 419 C571 320 540 220 492 149 C441 74 379 36 310 36 C207 36 136 122 136 253 L136 253 Z " />
<glyph glyph-name="R" unicode="R" horiz-adv-x="602" d="M76 671 L76 633 L147 627 L158 613 L51 57 L35 43 L-29 38 L-29 0 L215 0 L215 38 L150 43 L138 57 L185 297 C206 298 224 299 240 299 C267 299 286 297 298 291 C349 268 355 228 368 170 C383 102 392 50 428 20 C446 4 478 -5 520 -5 C536 -5 559 -3 590 1 L590 39 L581 39 C504 39 485 63 464 139 C438 233 429 298 341 317 C469 345 540 424 540 525 C540 628 471 671 329 671 L76 671 Z M194 345 L248 624 C263 625 278 626 291 626 C396 626 445 591 445 511 C445 408 369 344 231 344 C219 344 207 344 194 345 L194 345 Z " />
<glyph glyph-name="S" unicode="S" horiz-adv-x="537" d="M511 653 C457 673 401 682 344 682 C195 682 97 587 97 475 C97 386 161 350 267 296 C334 262 376 247 376 177 C376 96 308 36 205 36 C169 36 133 46 94 65 L84 78 L94 193 L42 193 L9 34 C66 3 127 -12 193 -12 C353 -12 464 80 464 202 C464 287 412 326 314 372 C230 411 182 430 182 503 C182 577 247 637 340 637 C369 637 398 631 427 618 L439 600 L435 501 L479 501 L511 653 Z " />
<glyph glyph-name="T" unicode="T" horiz-adv-x="565" d="M72 671 L43 522 L98 522 L130 615 L147 630 L288 630 L181 58 L165 44 L101 38 L101 0 L345 0 L345 38 L280 44 L267 58 L377 630 L519 630 L530 615 L526 522 L580 522 L610 671 L72 671 Z " />
<glyph glyph-name="U" unicode="U" horiz-adv-x="664" d="M73 671 L73 633 L137 628 L148 613 L76 240 C69 204 64 175 64 152 C64 46 136 -11 269 -11 C358 -11 431 17 477 64 C527 116 538 174 551 240 L624 613 L641 628 L704 633 L704 671 L495 671 L495 633 L560 628 L572 613 L501 249 C475 114 421 50 297 50 C205 50 155 93 155 174 C155 195 158 220 164 249 L235 613 L251 628 L316 633 L316 671 L73 671 Z " />
<glyph glyph-name="V" unicode="V" horiz-adv-x="590" d="M31 671 L31 633 L78 628 L94 610 L191 -5 L253 -5 L596 627 L649 633 L649 671 L461 671 L461 633 L519 628 L527 613 L256 92 L177 613 L184 628 L240 633 L240 671 L31 671 Z " />
<glyph glyph-name="W" unicode="W" horiz-adv-x="898" d="M51 671 L51 633 L99 628 L116 610 L166 0 L229 0 L484 549 L543 0 L600 0 L893 627 L951 633 L951 671 L759 671 L759 633 L818 628 L826 613 L607 135 L551 671 L486 671 L238 142 L201 613 L208 628 L265 633 L265 671 L51 671 Z " />
<glyph glyph-name="X" unicode="X" horiz-adv-x="569" d="M54 671 L54 633 L118 628 L128 613 L248 340 L-1 58 L-18 44 L-83 38 L-83 0 L144 0 L144 38 L79 44 L69 58 L275 288 L373 58 L357 44 L292 38 L292 0 L534 0 L534 38 L470 44 L460 58 L328 360 L562 628 L632 633 L632 671 L424 671 L424 633 L481 628 L487 613 L305 406 L216 613 L231 628 L297 633 L297 671 L54 671 Z " />
<glyph glyph-name="Y" unicode="Y" horiz-adv-x="562" d="M31 671 L31 633 L96 628 L106 613 L218 272 L176 58 L160 44 L97 38 L97 0 L340 0 L340 38 L275 44 L262 58 L306 281 L560 613 L576 628 L642 633 L642 671 L418 671 L418 633 L482 628 L492 613 L283 330 L193 613 L209 628 L274 633 L274 671 L31 671 Z " />
<glyph glyph-name="Z" unicode="Z" horiz-adv-x="556" d="M128 671 L98 516 L150 516 L184 610 L206 623 L454 623 L-18 41 L-25 0 L445 0 L479 181 L430 181 L390 62 L376 49 L90 49 L563 629 L572 671 L128 671 Z " />
<glyph glyph-name="bracketleft" unicode="&#x5b;" horiz-adv-x="421" d="M210 708 L49 -132 L286 -132 L294 -90 L136 -90 L281 665 L439 665 L447 708 L210 708 Z " />
<glyph glyph-name="backslash" unicode="&#x5c;" horiz-adv-x="481" d="M92 671 L35 671 L432 -93 L488 -93 L92 671 Z " />
<glyph glyph-name="bracketright" unicode="&#x5d;" horiz-adv-x="421" d="M117 708 L109 665 L267 665 L122 -90 L-36 -90 L-44 -133 L193 -133 L354 708 L117 708 Z " />
<glyph glyph-name="asciicircum" unicode="&#x5e;" horiz-adv-x="1000" d="M456 714 L201 438 L245 438 L499 651 L752 438 L797 438 L543 714 L456 714 Z " />
<glyph glyph-name="underscore" unicode="&#x5f;" horiz-adv-x="500" d="M0 -178 L0 -236 L500 -236 L500 -178 L0 -178 Z " />
<glyph glyph-name="grave" unicode="&#x60;" horiz-adv-x="500" d="M181 736 L290 546 L340 546 L280 736 L181 736 Z " />
<glyph glyph-name="a" unicode="a" horiz-adv-x="525" d="M410 482 L390 460 C360 475 328 482 294 482 C202 482 119 434 69 351 C35 295 17 233 17 166 C17 55 70 -9 155 -9 C203 -9 251 19 304 75 L304 67 C304 16 323 -9 365 -9 C392 -9 433 3 488 26 L488 56 C461 50 443 46 432 46 C395 46 378 59 378 92 C378 106 381 129 388 162 L424 339 C439 414 452 461 462 482 L410 482 Z M317 443 L357 382 L305 118 C264 74 225 52 187 52 C129 52 100 92 100 172 C100 330 186 443 304 443 L317 443 Z " />
<glyph glyph-name="b" unicode="b" horiz-adv-x="507" d="M207 736 L55 706 L55 681 L142 665 L25 35 C74 5 124 -9 172 -9 C254 -9 322 23 374 86 C425 148 452 228 452 314 C452 417 397 484 322 484 C282 484 233 459 174 409 L217 644 C223 678 231 708 240 736 L207 736 Z M110 72 L167 370 C216 404 253 423 284 423 C337 423 370 379 370 301 C370 231 346 157 314 109 C280 58 241 32 199 32 C166 32 138 45 110 72 L110 72 Z " />
<glyph glyph-name="c" unicode="c" horiz-adv-x="394" d="M307 360 C345 361 370 385 370 415 C370 453 333 485 277 485 C215 485 150 454 98 398 C45 340 15 260 15 172 C15 59 75 -10 163 -10 C221 -10 288 22 350 87 L350 133 C296 78 240 50 194 50 C132 50 94 99 94 186 C94 336 162 436 244 436 L249 436 L307 360 Z " />
<glyph glyph-name="d" unicode="d" horiz-adv-x="523" d="M475 736 L322 707 L322 679 L410 669 L375 469 C349 481 323 486 295 486 C212 486 124 436 70 351 C38 300 21 238 21 170 C21 56 72 -9 152 -9 C205 -9 259 22 308 84 C307 77 307 71 307 64 C307 15 329 -7 375 -7 C401 -7 442 2 497 22 L497 52 C468 45 446 42 432 42 C402 42 388 54 388 83 C388 95 390 114 394 137 L501 736 L475 736 Z M313 444 L361 387 L316 133 C271 76 226 48 187 48 C136 48 102 92 102 171 C102 338 199 447 289 447 C295 447 303 446 313 444 L313 444 Z " />
<glyph glyph-name="e" unicode="e" horiz-adv-x="424" d="M110 256 C139 377 196 440 254 440 C283 440 306 417 306 386 C306 323 235 263 110 256 L110 256 Z M105 222 C283 234 378 297 378 383 C378 443 338 482 275 482 C225 482 161 453 110 400 C54 341 21 257 21 173 C21 57 78 -9 172 -9 C238 -9 304 21 366 81 L366 128 C308 74 252 46 206 46 C142 46 102 96 102 177 C102 193 103 208 105 222 L105 222 Z " />
<glyph glyph-name="f" unicode="f" horiz-adv-x="292" d="M354 621 C385 627 403 647 403 673 C403 704 368 732 320 732 C227 732 144 639 110 467 L34 436 L33 403 L100 410 L58 123 C39 -10 22 -101 -25 -150 L-129 -123 C-143 -133 -151 -147 -151 -163 C-151 -195 -129 -216 -97 -216 C-49 -216 6 -178 59 -103 C104 -40 121 34 134 126 L174 410 L323 410 L323 455 L182 455 C204 586 234 663 272 688 L354 621 Z " />
<glyph glyph-name="g" unicode="g" horiz-adv-x="481" d="M337 458 C306 474 276 483 244 483 C135 483 49 398 49 289 C49 235 81 193 141 168 C114 134 101 105 101 71 C101 65 101 60 102 54 C12 19 -31 -21 -31 -85 C-31 -165 41 -218 158 -218 C296 -218 399 -143 399 -69 C399 -26 373 6 321 30 L162 102 L162 108 C162 127 166 145 175 161 L188 161 C307 161 390 239 390 349 C390 370 386 393 377 415 L480 415 L480 458 L337 458 Z M311 355 C311 264 252 194 195 194 C154 194 128 224 128 278 C128 372 185 446 243 446 C286 446 311 413 311 355 L311 355 Z M139 34 L266 -25 C304 -42 323 -63 323 -89 C323 -134 270 -176 182 -176 C102 -176 48 -129 48 -65 C48 -14 79 20 139 34 L139 34 Z " />
<glyph glyph-name="h" unicode="h" horiz-adv-x="551" d="M223 736 L66 703 L66 678 L160 670 L23 0 L108 0 L170 339 C232 395 285 421 318 421 C356 421 372 400 372 357 C372 344 369 322 362 293 L319 108 C314 86 312 68 312 55 C312 14 335 -6 385 -6 C412 -6 453 5 505 25 L505 52 C482 46 463 43 449 43 C416 43 398 61 398 93 C398 110 402 131 408 158 L443 313 C451 348 457 377 457 403 C457 452 425 483 373 483 C321 483 258 451 181 388 L214 559 C226 622 240 681 254 736 L223 736 Z " />
<glyph glyph-name="i" unicode="i" horiz-adv-x="287" d="M201 704 C171 704 147 680 147 650 C147 619 171 597 201 597 C230 597 255 621 255 650 C255 679 230 704 201 704 L201 704 Z M181 482 L33 450 L33 424 L114 409 L55 111 C51 91 49 74 49 60 C49 16 70 -7 113 -7 C151 -7 199 5 254 28 L254 59 C223 49 199 44 180 44 C149 44 132 57 132 83 C132 89 133 97 135 108 L207 482 L181 482 Z " />
<glyph glyph-name="j" unicode="j" horiz-adv-x="269" d="M195 701 C165 701 141 677 141 647 C141 617 165 593 195 593 C224 593 249 617 249 647 C249 677 224 701 195 701 L195 701 Z M177 482 L25 453 L25 430 L126 418 L81 123 C61 -5 47 -97 -3 -150 L-106 -123 C-120 -133 -128 -147 -128 -163 C-128 -195 -107 -216 -75 -216 C-28 -216 29 -179 82 -104 C131 -35 144 42 157 126 L213 482 L177 482 Z " />
<glyph glyph-name="k" unicode="k" horiz-adv-x="514" d="M225 736 L68 707 L68 679 L160 674 L25 0 L108 0 L140 192 L197 244 L282 72 C308 20 336 -5 376 -5 C395 -5 434 3 493 22 L493 50 C472 45 455 43 441 43 C372 43 332 128 256 300 C300 340 342 377 385 408 L421 369 C458 384 476 405 476 431 C476 460 452 482 419 482 C395 482 366 465 331 429 L146 238 L253 736 L225 736 Z " />
<glyph glyph-name="l" unicode="l" horiz-adv-x="275" d="M212 736 L60 706 L60 680 L149 670 L53 180 C41 120 35 81 35 61 C35 15 60 -9 108 -9 C138 -9 183 1 241 25 L241 56 C210 46 186 40 170 40 C134 40 115 57 115 88 C115 103 118 130 126 168 L227 671 C229 683 234 705 239 736 L212 736 Z " />
<glyph glyph-name="m" unicode="m" horiz-adv-x="815" d="M181 483 L33 450 L33 424 L115 408 L32 0 L116 0 L179 339 C242 396 295 421 321 421 C357 421 376 399 376 360 C376 349 374 326 367 293 L307 0 L390 0 L455 340 C502 395 554 421 587 421 C624 421 640 400 640 357 C640 344 638 322 631 293 L588 108 C583 85 580 67 580 54 C580 13 604 -6 653 -6 C681 -6 721 5 773 25 L773 52 C750 46 731 43 717 43 C685 43 666 61 666 93 C666 110 671 131 677 158 L711 313 C718 346 723 374 723 397 C723 449 690 483 641 483 C593 483 531 452 458 391 C457 450 427 483 377 483 C330 483 266 451 188 387 L206 483 L181 483 Z " />
<glyph glyph-name="n" unicode="n" horiz-adv-x="556" d="M181 482 L33 449 L33 424 L115 409 L32 0 L117 0 L179 338 C240 394 293 420 327 420 C365 420 381 401 381 357 C381 342 378 321 372 293 L329 108 C324 86 321 67 321 54 C321 13 345 -6 394 -6 C422 -6 462 4 514 24 L514 52 C492 46 473 43 459 43 C426 43 407 60 407 92 C407 107 412 129 418 158 L452 313 C460 349 466 377 466 402 C466 451 434 482 382 482 C329 482 267 449 188 386 L206 482 L181 482 Z " />
<glyph glyph-name="o" unicode="o" horiz-adv-x="502" d="M279 483 C210 483 150 454 102 400 C52 343 22 262 22 181 C22 65 89 -9 192 -9 C261 -9 321 20 368 73 C420 132 449 209 449 287 C449 408 383 483 279 483 L279 483 Z M266 444 C327 444 364 391 364 293 C364 141 289 32 204 32 C145 32 107 85 107 180 C107 335 180 444 266 444 L266 444 Z " />
<glyph glyph-name="p" unicode="p" horiz-adv-x="516" d="M169 483 L27 452 L27 427 L105 417 L0 -165 L-10 -176 L-69 -188 L-69 -218 L171 -218 L171 -188 L76 -171 L109 15 C134 3 160 -4 186 -4 C254 -4 325 29 376 85 C433 148 461 221 461 308 C461 421 413 483 334 483 C291 483 241 462 183 421 L195 483 L169 483 Z M119 67 L176 377 C221 412 258 430 288 430 C342 430 378 385 378 306 C378 227 350 145 317 101 C286 60 249 40 205 40 C177 40 149 49 119 67 L119 67 Z " />
<glyph glyph-name="q" unicode="q" horiz-adv-x="512" d="M414 487 L388 462 C354 477 323 485 293 485 C221 485 145 446 91 375 C48 319 25 250 25 172 C25 60 78 -6 160 -6 C207 -6 256 19 309 69 L269 -162 L258 -174 L197 -186 L197 -218 L443 -218 L443 -186 L347 -169 L451 439 C453 448 456 464 462 487 L414 487 Z M314 444 L364 383 L316 112 C275 72 237 52 199 52 C142 52 106 95 106 167 C106 329 193 445 296 445 C302 445 308 445 314 444 L314 444 Z " />
<glyph glyph-name="r" unicode="r" horiz-adv-x="398" d="M177 482 L29 449 L29 424 L111 409 L28 0 L112 0 L153 235 C169 328 201 381 299 419 L325 365 L331 365 C373 365 399 393 399 429 C399 461 377 482 343 482 C293 482 229 436 165 345 L197 482 L177 482 Z " />
<glyph glyph-name="s" unicode="s" horiz-adv-x="370" d="M266 369 C302 371 324 392 324 420 C324 455 288 482 231 482 C135 482 59 413 59 331 C59 275 97 248 154 205 C196 173 223 149 223 112 C223 59 188 27 132 27 C101 27 77 39 60 62 L78 112 C63 124 49 131 35 131 C4 131 -17 110 -17 79 C-17 27 32 -9 116 -9 C225 -9 299 58 299 145 C299 205 258 231 198 277 C151 313 123 334 123 370 C123 409 153 437 193 437 C204 437 214 434 224 427 L266 369 Z " />
<glyph glyph-name="t" unicode="t" horiz-adv-x="333" d="M167 579 L117 479 L44 447 L44 417 L106 422 L52 151 C46 123 44 100 44 84 C44 23 72 -7 128 -7 C163 -7 215 8 282 37 L282 69 C243 56 211 50 187 50 C147 50 126 71 126 111 C126 120 128 135 132 155 L184 422 L336 422 L336 465 L192 465 L213 579 L167 579 Z " />
<glyph glyph-name="u" unicode="u" horiz-adv-x="553" d="M187 483 L30 450 L30 424 L113 409 L55 146 C50 123 47 103 47 86 C47 27 84 -8 144 -8 C198 -8 257 19 325 75 C324 68 324 62 324 56 C324 12 343 -8 384 -8 C415 -8 457 3 512 23 L512 51 C488 44 469 40 456 40 C424 40 404 58 404 79 C404 100 409 123 414 147 L485 473 L404 473 L329 112 C273 68 222 49 187 49 C151 49 129 69 129 104 C129 120 133 145 140 178 L203 469 L187 483 Z " />
<glyph glyph-name="v" unicode="v" horiz-adv-x="454" d="M93 484 L-8 451 L-8 426 L69 420 C85 409 94 381 99 335 L124 101 C125 89 126 77 126 66 C126 42 122 19 112 -2 L160 -2 C346 210 434 358 434 427 C434 463 415 484 381 484 C364 484 347 477 331 464 L350 342 C327 279 278 197 197 95 L171 369 C163 449 152 484 95 484 L93 484 Z " />
<glyph glyph-name="w" unicode="w" horiz-adv-x="713" d="M115 484 L0 451 L0 427 L74 418 L101 22 L93 0 L158 0 C233 130 299 245 349 349 L373 0 L431 0 C596 217 688 352 688 427 C688 463 668 484 636 484 C615 484 599 477 585 461 L605 344 C582 275 527 187 443 75 C432 205 422 336 416 467 L356 460 C303 336 238 214 172 89 L150 484 L115 484 Z " />
<glyph glyph-name="x" unicode="x" horiz-adv-x="477" d="M129 485 L28 450 L28 426 L111 415 C139 390 161 332 187 241 C146 142 93 78 48 54 L2 97 C-29 92 -47 73 -47 46 C-47 14 -23 -8 15 -8 C81 -8 141 59 206 195 C240 54 252 -6 322 -6 C349 -6 386 4 434 23 L434 55 C410 47 392 44 381 44 C321 44 307 106 268 241 C312 343 356 400 402 412 L445 373 C477 386 494 406 494 430 C494 461 469 486 437 486 C374 486 312 418 246 284 C211 421 199 486 140 486 C136 486 133 485 129 485 L129 485 Z " />
<glyph glyph-name="y" unicode="y" horiz-adv-x="475" d="M83 485 L-15 453 L-15 431 L70 424 C88 400 101 366 110 320 L172 19 L175 21 C116 -92 61 -151 0 -155 L-59 -96 C-92 -101 -113 -124 -113 -151 C-113 -186 -78 -217 -29 -217 C54 -217 145 -133 237 34 C320 184 360 323 433 405 L484 435 L484 456 L405 482 L386 482 C323 335 271 209 229 102 L196 271 C167 417 160 486 96 486 C92 486 87 486 83 485 L83 485 Z " />
<glyph glyph-name="z" unicode="z" horiz-adv-x="440" d="M373 490 L354 441 C343 436 333 433 324 433 C302 433 281 444 256 457 C229 471 204 483 174 483 C105 483 39 413 39 343 C39 306 57 284 86 284 C107 284 122 297 133 316 L80 380 C95 401 117 412 143 412 C164 412 194 402 231 383 L330 405 L-14 19 L41 -11 L65 32 C76 38 86 41 95 41 C147 41 197 -2 253 -2 C327 -2 392 69 392 138 C392 174 371 198 343 198 C326 198 309 186 295 162 L350 101 C335 77 313 65 288 65 C269 65 235 77 186 98 L89 73 L434 458 L373 490 Z " />
<glyph glyph-name="braceleft" unicode="&#x7b;" horiz-adv-x="486" d="M489 703 L476 703 C340 703 273 656 251 542 L231 440 C213 347 176 311 86 311 C78 311 69 311 60 312 L52 268 C60 268 67 269 74 269 C147 269 178 248 178 190 C178 177 177 157 172 134 L155 49 C148 15 145 -11 145 -29 C145 -107 192 -134 302 -134 L326 -134 L334 -95 L329 -95 C259 -95 223 -73 223 -35 C223 -15 227 9 233 38 L249 121 C253 142 255 160 255 175 C255 240 224 272 151 290 C256 311 295 362 315 465 L331 546 C348 634 381 664 482 666 L489 703 Z " />
<glyph glyph-name="bar" unicode="&#x7c;" horiz-adv-x="500" d="M219 764 L219 -236 L281 -236 L281 764 L219 764 Z " />
<glyph glyph-name="braceright" unicode="&#x7d;" horiz-adv-x="486" d="M135 703 L128 666 C204 664 239 644 239 594 C239 583 237 567 233 546 L217 465 C212 440 209 418 209 399 C209 340 244 304 313 290 C215 269 168 221 149 121 L133 38 C114 -59 94 -94 -20 -95 L-27 -134 C-18 -134 -8 -135 0 -135 C141 -135 190 -88 216 49 L232 134 C251 231 288 269 379 269 C387 269 395 269 404 268 L412 312 C403 311 394 311 386 311 C317 311 285 334 285 388 C285 402 288 419 292 440 L312 542 C316 561 317 578 317 591 C317 671 263 703 146 703 L135 703 Z " />
<glyph glyph-name="asciitilde" unicode="&#x7e;" horiz-adv-x="833" d="M747 370 C677 321 619 294 559 294 C509 294 466 312 418 329 C373 345 328 361 276 361 C218 361 155 337 87 290 L87 225 C158 275 216 303 275 303 C337 303 396 276 465 253 C498 242 529 236 558 236 C618 236 681 259 747 306 L747 370 Z " />
<glyph glyph-name="exclamdown" unicode="&#xa1;" horiz-adv-x="338" d="M182 483 C150 483 124 457 124 426 C124 395 150 369 182 369 C213 369 238 395 238 426 C238 457 212 483 182 483 L182 483 Z M141 303 L39 -79 C28 -120 22 -149 22 -164 C22 -192 38 -209 66 -209 C120 -209 134 -165 144 -79 L189 303 L141 303 Z " />
<glyph glyph-name="cent" unicode="&#xa2;" horiz-adv-x="556" d="M324 601 L305 500 C146 474 42 345 42 187 C42 89 102 20 209 3 L190 -98 L235 -98 L254 1 C262 1 270 0 277 0 C321 0 362 8 403 22 L426 139 L373 139 L351 65 C321 51 292 46 263 46 L342 458 C372 458 399 451 422 438 L417 367 L470 367 L491 480 C457 495 417 502 368 502 L350 502 L369 601 L324 601 Z M296 454 L218 48 C161 64 127 117 127 194 C127 319 198 427 296 454 L296 454 Z " />
<glyph glyph-name="sterling" unicode="&#xa3;" horiz-adv-x="556" d="M467 547 C520 556 547 576 547 611 C547 650 498 682 421 682 C272 682 172 568 150 351 L72 351 L72 305 L142 305 C117 152 87 79 -21 57 L-21 0 L448 0 L448 76 L151 76 C140 76 117 74 82 71 L81 73 C159 117 208 195 225 305 L418 305 L418 351 L234 351 C264 543 309 634 418 634 L422 634 L467 547 Z " />
<glyph glyph-name="currency" unicode="&#xa4;" horiz-adv-x="606" d="M77 693 L42 657 L143 557 C115 520 100 478 100 432 C100 386 115 344 143 307 L42 207 L77 171 L178 272 C215 243 255 229 303 229 C351 229 393 243 430 272 L530 171 L565 207 L465 307 C493 344 507 386 507 432 C507 478 493 520 465 557 L565 657 L530 693 L430 592 C392 621 350 636 303 636 C256 636 216 621 178 592 L77 693 Z M304 586 C389 586 457 517 457 433 C457 349 389 279 304 279 C219 279 151 348 151 433 C151 517 219 586 304 586 L304 586 Z " />
<glyph glyph-name="yen" unicode="&#xa5;" horiz-adv-x="556" d="M56 664 L56 624 L108 614 L170 421 L31 421 L31 380 L187 380 L221 277 L2 277 L2 236 L213 236 L180 59 L159 45 L86 40 L86 0 L341 0 L341 40 L274 45 L260 59 L293 236 L520 236 L520 277 L298 277 L375 380 L548 380 L548 421 L411 421 L556 612 L616 624 L616 664 L433 664 L433 624 L481 613 L487 599 L286 337 L199 607 L210 618 L271 624 L271 664 L56 664 Z " />
<glyph glyph-name="brokenbar" unicode="&#xa6;" horiz-adv-x="500" d="M219 699 L219 329 L281 329 L281 699 L219 699 Z M219 199 L219 -171 L281 -171 L281 199 L219 199 Z " />
<glyph glyph-name="section" unicode="&#xa7;" horiz-adv-x="500" d="M475 695 C432 710 389 718 346 718 C207 718 123 648 123 550 C123 503 148 474 202 443 C103 405 50 336 50 260 C50 200 80 156 139 125 C226 79 283 60 283 0 C283 -49 232 -96 162 -96 C131 -96 102 -88 72 -70 L75 20 L26 20 L4 -109 C52 -130 98 -140 140 -140 C271 -140 360 -57 360 37 C360 82 333 116 278 144 C376 182 434 260 434 330 C434 392 400 433 328 472 C251 514 202 527 202 580 C202 629 255 676 320 676 C348 676 378 666 410 646 L406 566 L450 566 L475 695 Z M240 424 C317 393 355 355 355 305 C355 251 319 204 246 162 C167 202 129 230 129 289 C129 345 167 394 240 424 L240 424 Z " />
<glyph glyph-name="dieresis" unicode="&#xa8;" horiz-adv-x="500" d="M213 692 C185 692 163 669 163 641 C163 613 187 590 213 590 C241 590 265 613 265 641 C265 669 242 692 213 692 L213 692 Z M400 692 C373 692 349 669 349 641 C349 613 374 590 400 590 C428 590 451 613 451 641 C451 669 429 692 400 692 L400 692 Z " />
<glyph glyph-name="copyright" unicode="&#xa9;" horiz-adv-x="900" d="M453 726 C350 726 251 684 179 611 C106 537 67 442 67 340 C67 236 106 140 180 67 C253 -6 349 -46 447 -46 C553 -46 647 -8 719 63 C795 138 837 237 837 336 C837 440 797 539 727 610 C655 683 554 726 453 726 L453 726 Z M453 685 C541 685 629 648 693 584 C756 521 793 432 793 340 C793 250 757 164 692 97 C628 31 544 -4 452 -4 C360 -4 278 31 211 97 C145 162 111 246 111 340 C111 432 146 516 211 583 C275 648 362 685 453 685 L453 685 Z M609 551 C556 568 508 574 468 574 C319 574 221 478 221 338 C221 199 320 102 462 102 C513 102 563 111 609 127 L609 252 L566 252 L553 168 C520 156 492 149 468 149 C379 149 308 229 308 339 C308 449 378 528 473 528 C501 528 526 521 551 506 L566 431 L609 431 L609 551 Z " />
<glyph glyph-name="ordfeminine" unicode="&#xaa;" horiz-adv-x="394" d="M337 667 C315 677 292 681 270 681 C147 681 57 588 57 459 C57 378 99 330 166 330 C200 330 236 348 272 384 C272 349 290 330 323 330 C346 330 378 340 420 356 L420 384 C398 379 382 376 371 376 C348 376 337 386 337 405 C337 415 339 432 344 454 L369 577 C379 627 388 661 398 681 L351 681 L337 667 Z M280 647 L309 606 L273 424 C245 395 218 381 191 381 C149 381 128 408 128 463 C128 572 188 647 272 647 L280 647 Z " />
<glyph glyph-name="guillemotleft" unicode="&#xab;" horiz-adv-x="442" d="M218 413 L28 280 L13 200 L151 67 L164 132 L67 240 L205 347 L218 413 Z M415 413 L226 280 L211 200 L349 67 L361 132 L265 240 L403 347 L415 413 Z " />
<glyph glyph-name="logicalnot" unicode="&#xac;" horiz-adv-x="833" d="M124 419 L124 362 L653 362 L653 174 L709 174 L709 419 L124 419 Z " />
<glyph glyph-name="registered" unicode="&#xae;" horiz-adv-x="900" d="M453 726 C350 726 251 684 179 611 C106 537 67 442 67 340 C67 236 106 140 180 67 C253 -6 349 -46 447 -46 C553 -46 647 -8 719 63 C795 138 837 237 837 336 C837 440 797 539 727 610 C655 683 554 726 453 726 L453 726 Z M453 685 C541 685 629 648 693 584 C756 521 793 432 793 340 C793 250 757 164 692 97 C628 31 544 -4 452 -4 C360 -4 278 31 211 97 C145 162 111 246 111 340 C111 432 146 516 211 583 C275 648 362 685 453 685 L453 685 Z M254 560 L254 526 L312 516 L312 164 L259 157 L259 121 L450 121 L450 158 L387 165 L387 315 C398 316 407 316 416 316 C470 316 495 304 515 259 C533 218 538 172 570 145 C593 125 618 116 649 116 C665 116 686 119 711 124 L711 160 C654 160 631 172 614 215 C605 238 602 271 578 299 C560 321 537 333 506 338 C587 356 627 395 627 455 C627 487 606 523 574 542 C545 559 510 560 465 560 L254 560 Z M387 522 C395 522 403 523 411 523 C495 523 539 492 539 437 C539 383 496 354 412 354 C404 354 396 354 387 355 L387 522 Z " />
<glyph glyph-name="macron" unicode="&#xaf;" horiz-adv-x="500" d="M164 666 L155 615 L456 615 L465 666 L164 666 Z " />
<glyph glyph-name="degree" unicode="&#xb0;" horiz-adv-x="329" d="M165 710 C89 710 27 650 27 572 C27 495 87 434 164 434 C242 434 303 497 303 572 C303 649 241 710 165 710 L165 710 Z M165 670 C220 670 263 626 263 572 C263 518 220 473 165 473 C111 473 66 517 66 572 C66 627 111 670 165 670 L165 670 Z " />
<glyph glyph-name="plusminus" unicode="&#xb1;" horiz-adv-x="833" d="M388 576 L388 408 L124 408 L124 351 L388 351 L388 183 L446 183 L446 351 L709 351 L709 408 L446 408 L446 576 L388 576 Z M124 77 L124 20 L709 20 L709 77 L124 77 Z " />
<glyph glyph-name="twosuperior" unicode="&#xb2;" horiz-adv-x="350" d="M58 305 C232 419 326 491 326 578 C326 634 286 668 219 668 C129 668 64 617 64 574 C64 560 75 550 93 550 C103 550 113 553 123 559 L136 623 C157 632 176 637 195 637 C239 637 264 614 264 572 C264 482 168 412 -6 296 L-14 258 L278 258 L297 356 L269 356 L248 305 L58 305 Z " />
<glyph glyph-name="threesuperior" unicode="&#xb3;" horiz-adv-x="350" d="M201 472 C280 491 323 535 323 586 C323 635 283 668 215 668 C128 668 65 623 65 584 C65 567 77 556 93 556 C100 556 110 559 122 563 L131 620 C151 633 170 640 191 640 C234 640 261 615 261 575 C261 524 216 483 144 483 C139 483 134 483 128 484 L123 450 C138 452 151 452 161 452 C210 452 238 428 238 387 C238 327 188 280 120 280 C100 280 83 284 67 294 L57 346 C49 349 42 350 35 350 C14 350 1 337 1 316 C1 280 46 251 113 251 C156 251 197 263 230 284 C273 313 297 354 297 394 C297 440 263 470 201 472 L201 472 Z " />
<glyph glyph-name="acute" unicode="&#xb4;" horiz-adv-x="500" d="M386 736 L253 546 L302 546 L485 736 L386 736 Z " />
<glyph glyph-name="mu" unicode="&#xb5;" horiz-adv-x="547" d="M80 94 C89 25 126 -11 189 -11 C251 -11 296 24 326 95 L326 84 C326 25 356 -9 399 -9 C450 -9 487 18 511 71 C526 104 531 132 531 144 C531 155 526 162 518 162 C501 162 502 122 479 87 C465 65 444 53 422 53 C396 53 377 74 377 106 C377 123 381 144 387 173 L443 432 L370 432 L316 183 C297 96 253 52 190 52 C141 52 112 83 112 137 C112 153 114 172 118 192 L169 432 L97 432 L44 181 C4 -9 -39 -120 -39 -161 C-39 -188 -24 -204 0 -204 C57 -204 41 -105 80 94 L80 94 Z " />
<glyph glyph-name="paragraph" unicode="&#xb6;" horiz-adv-x="484" d="M262 671 C101 671 26 614 26 474 C26 343 101 281 256 281 L271 281 L271 630 L347 630 L347 -79 L396 -79 L396 625 L458 635 L458 671 L262 671 Z " />
<glyph glyph-name="periodcentered" unicode="&#xb7;" horiz-adv-x="278" d="M138 395 C105 395 79 368 79 335 C79 302 106 276 138 276 C171 276 198 302 198 335 C198 369 172 395 138 395 L138 395 Z " />
<glyph glyph-name="cedilla" unicode="&#xb8;" horiz-adv-x="500" d="M159 5 L138 -103 C146 -102 153 -101 160 -101 C187 -101 202 -112 202 -129 C202 -160 175 -180 127 -180 C105 -180 86 -178 69 -173 L62 -208 C86 -215 108 -219 129 -219 C212 -219 267 -170 267 -111 C267 -75 245 -56 203 -56 C197 -56 190 -56 183 -57 L195 5 L159 5 Z " />
<glyph glyph-name="onesuperior" unicode="&#xb9;" horiz-adv-x="350" d="M239 668 L92 628 L92 604 L183 615 L190 609 L127 298 L117 287 L51 284 L51 258 L240 258 L240 284 L185 287 L179 295 L254 668 L239 668 Z " />
<glyph glyph-name="ordmasculine" unicode="&#xba;" horiz-adv-x="377" d="M255 682 C145 682 60 588 60 469 C60 385 112 330 193 330 C303 330 389 425 389 540 C389 626 337 682 255 682 L255 682 Z M244 647 C289 647 315 610 315 542 C315 439 265 366 204 366 C160 366 133 403 133 470 C133 573 184 647 244 647 L244 647 Z " />
<glyph glyph-name="guillemotright" unicode="&#xbb;" horiz-adv-x="442" d="M60 413 L48 347 L144 240 L6 132 L-6 67 L184 200 L199 280 L60 413 Z M258 413 L245 347 L342 240 L204 132 L191 67 L381 200 L396 280 L258 413 Z " />
<glyph glyph-name="onequarter" unicode="&#xbc;" horiz-adv-x="885" d="M239 668 L92 628 L92 604 L183 615 L190 609 L127 298 L117 287 L51 284 L51 258 L240 258 L240 284 L185 287 L179 295 L254 668 L239 668 Z M699 671 L143 0 L204 0 L760 671 L699 671 Z M808 406 L543 155 L535 116 L738 116 L710 -22 L759 -22 L786 116 L857 116 L865 155 L795 155 L845 406 L808 406 Z M783 341 L746 155 L590 155 L783 341 Z " />
<glyph glyph-name="onehalf" unicode="&#xbd;" horiz-adv-x="885" d="M239 668 L92 628 L92 604 L183 615 L190 609 L127 298 L117 287 L51 284 L51 258 L240 258 L240 284 L185 287 L179 295 L254 668 L239 668 Z M699 671 L143 0 L204 0 L760 671 L699 671 Z M593 47 C767 161 861 233 861 320 C861 376 821 410 754 410 C664 410 599 359 599 316 C599 302 610 292 628 292 C638 292 648 295 658 301 L671 365 C692 374 711 379 730 379 C774 379 799 356 799 314 C799 224 703 154 529 38 L521 0 L813 0 L832 98 L804 98 L783 47 L593 47 Z " />
<glyph glyph-name="threequarters" unicode="&#xbe;" horiz-adv-x="886" d="M201 472 C280 491 323 535 323 586 C323 635 283 668 215 668 C128 668 65 623 65 584 C65 567 77 556 93 556 C100 556 110 559 122 563 L131 620 C151 633 170 640 191 640 C234 640 261 615 261 575 C261 524 216 483 144 483 C139 483 134 483 128 484 L123 450 C138 452 151 452 161 452 C210 452 238 428 238 387 C238 327 188 280 120 280 C100 280 83 284 67 294 L57 346 C49 349 42 350 35 350 C14 350 1 337 1 316 C1 280 46 251 113 251 C156 251 197 263 230 284 C273 313 297 354 297 394 C297 440 263 470 201 472 L201 472 Z M699 671 L143 0 L204 0 L760 671 L699 671 Z M808 406 L543 155 L535 116 L738 116 L710 -22 L759 -22 L786 116 L857 116 L865 155 L795 155 L845 406 L808 406 Z M783 341 L746 155 L590 155 L783 341 Z " />
<glyph glyph-name="questiondown" unicode="&#xbf;" horiz-adv-x="486" d="M284 483 C252 483 227 457 227 426 C227 395 252 369 284 369 C315 369 341 395 341 426 C341 457 314 483 284 483 L284 483 Z M240 303 L218 186 C67 127 -10 41 -10 -66 C-10 -154 55 -209 167 -209 C266 -209 332 -159 332 -102 C332 -77 315 -63 281 -63 C276 -63 270 -63 263 -64 L203 -163 L200 -163 C123 -163 82 -127 82 -58 C82 38 145 115 264 157 L292 303 L240 303 Z " />
<glyph glyph-name="Agrave" unicode="&#xc0;" horiz-adv-x="606" d="M345 677 L-24 44 L-79 38 L-79 0 L119 0 L119 38 L58 43 L50 57 L157 248 L400 248 L431 57 L424 43 L365 38 L365 0 L584 0 L584 38 L535 43 L518 61 L411 677 L345 677 Z M345 579 L391 291 L182 291 L345 579 Z M264 896 L374 743 L431 743 L369 896 L264 896 Z " />
<glyph glyph-name="Aacute" unicode="&#xc1;" horiz-adv-x="606" d="M345 677 L-24 44 L-79 38 L-79 0 L119 0 L119 38 L58 43 L50 57 L157 248 L400 248 L431 57 L424 43 L365 38 L365 0 L584 0 L584 38 L535 43 L518 61 L411 677 L345 677 Z M345 579 L391 291 L182 291 L345 579 Z M473 896 L334 743 L393 743 L581 896 L473 896 Z " />
<glyph glyph-name="Acircumflex" unicode="&#xc2;" horiz-adv-x="606" d="M345 677 L-24 44 L-79 38 L-79 0 L119 0 L119 38 L58 43 L50 57 L157 248 L400 248 L431 57 L424 43 L365 38 L365 0 L584 0 L584 38 L535 43 L518 61 L411 677 L345 677 Z M345 579 L391 291 L182 291 L345 579 Z M380 896 L234 743 L292 743 L403 838 L462 743 L519 743 L443 896 L380 896 Z " />
<glyph glyph-name="Atilde" unicode="&#xc3;" horiz-adv-x="606" d="M345 677 L-24 44 L-79 38 L-79 0 L119 0 L119 38 L58 43 L50 57 L157 248 L400 248 L431 57 L424 43 L365 38 L365 0 L584 0 L584 38 L535 43 L518 61 L411 677 L345 677 Z M345 579 L391 291 L182 291 L345 579 Z M516 877 C509 840 492 821 469 821 C439 821 390 865 340 865 C277 865 240 830 229 758 L274 758 C279 792 298 812 318 812 C349 812 394 769 453 769 C507 769 553 810 560 877 L516 877 Z " />
<glyph glyph-name="Adieresis" unicode="&#xc4;" horiz-adv-x="606" d="M345 677 L-24 44 L-79 38 L-79 0 L119 0 L119 38 L58 43 L50 57 L157 248 L400 248 L431 57 L424 43 L365 38 L365 0 L584 0 L584 38 L535 43 L518 61 L411 677 L345 677 Z M345 579 L391 291 L182 291 L345 579 Z M299 868 C271 868 249 845 249 817 C249 789 273 766 299 766 C327 766 351 789 351 817 C351 845 328 868 299 868 L299 868 Z M485 868 C457 868 435 845 435 817 C435 789 459 766 485 766 C513 766 537 789 537 817 C537 845 514 868 485 868 L485 868 Z " />
<glyph glyph-name="Aring" unicode="&#xc5;" horiz-adv-x="606" d="M393 980 C327 980 274 927 274 860 C274 793 327 741 394 741 C461 741 513 793 513 860 C513 927 460 980 393 980 L393 980 Z M394 934 C436 934 469 902 469 860 C469 819 436 786 394 786 C353 786 319 819 319 860 C319 902 353 934 394 934 L394 934 Z M345 677 L-24 44 L-79 38 L-79 0 L119 0 L119 38 L58 43 L50 57 L157 248 L400 248 L431 57 L424 43 L365 38 L365 0 L584 0 L584 38 L535 43 L518 61 L411 677 L345 677 Z M345 579 L391 291 L182 291 L345 579 Z " />
<glyph glyph-name="AE" unicode="&#xc6;" horiz-adv-x="873" d="M338 671 L338 631 L396 626 L402 610 L-54 51 L-115 38 L-115 0 L87 0 L87 38 L23 47 L21 61 L180 256 L421 256 L382 58 L366 44 L303 38 L303 0 L786 0 L818 163 L772 163 L737 62 L720 46 L465 46 L519 325 L672 325 L683 311 L679 239 L720 239 L763 459 L720 459 L697 386 L680 372 L528 372 L577 625 L792 625 L803 610 L803 525 L850 525 L879 671 L338 671 Z M494 641 L430 303 L218 303 L494 641 Z " />
<glyph glyph-name="Ccedilla" unicode="&#xc7;" horiz-adv-x="604" d="M622 649 C557 672 496 683 441 683 C349 683 266 654 197 597 C99 516 41 395 41 265 C41 96 145 -12 310 -12 C371 -12 439 0 509 23 L536 181 L493 181 L449 66 L430 49 C400 40 371 35 344 35 C212 35 136 115 136 253 C136 384 183 498 261 568 C310 612 373 636 439 636 C477 636 511 628 544 610 L552 591 L552 495 L594 495 L622 649 Z M278 0 L257 -107 C265 -106 272 -105 279 -105 C306 -105 321 -116 321 -133 C321 -164 294 -185 246 -185 C224 -185 205 -182 188 -177 L181 -213 C205 -220 228 -223 249 -223 C332 -223 386 -175 386 -116 C386 -80 364 -60 322 -60 C316 -60 309 -60 302 -61 L314 0 L278 0 Z " />
<glyph glyph-name="Egrave" unicode="&#xc8;" horiz-adv-x="546" d="M88 671 L88 633 L152 628 L163 613 L56 58 L39 44 L-24 38 L-24 0 L460 0 L492 163 L446 163 L412 62 L394 46 L139 46 L193 325 L346 325 L358 311 L354 239 L395 239 L437 459 L394 459 L372 386 L354 372 L202 372 L251 625 L466 625 L477 610 L477 525 L525 525 L553 671 L88 671 Z M228 896 L338 743 L395 743 L333 896 L228 896 Z " />
<glyph glyph-name="Eacute" unicode="&#xc9;" horiz-adv-x="546" d="M88 671 L88 633 L152 628 L163 613 L56 58 L39 44 L-24 38 L-24 0 L460 0 L492 163 L446 163 L412 62 L394 46 L139 46 L193 325 L346 325 L358 311 L354 239 L395 239 L437 459 L394 459 L372 386 L354 372 L202 372 L251 625 L466 625 L477 610 L477 525 L525 525 L553 671 L88 671 Z M437 896 L298 743 L357 743 L545 896 L437 896 Z " />
<glyph glyph-name="Ecircumflex" unicode="&#xca;" horiz-adv-x="546" d="M88 671 L88 633 L152 628 L163 613 L56 58 L39 44 L-24 38 L-24 0 L460 0 L492 163 L446 163 L412 62 L394 46 L139 46 L193 325 L346 325 L358 311 L354 239 L395 239 L437 459 L394 459 L372 386 L354 372 L202 372 L251 625 L466 625 L477 610 L477 525 L525 525 L553 671 L88 671 Z M344 896 L198 743 L256 743 L367 838 L426 743 L483 743 L407 896 L344 896 Z " />
<glyph glyph-name="Edieresis" unicode="&#xcb;" horiz-adv-x="546" d="M88 671 L88 633 L152 628 L163 613 L56 58 L39 44 L-24 38 L-24 0 L460 0 L492 163 L446 163 L412 62 L394 46 L139 46 L193 325 L346 325 L358 311 L354 239 L395 239 L437 459 L394 459 L372 386 L354 372 L202 372 L251 625 L466 625 L477 610 L477 525 L525 525 L553 671 L88 671 Z M263 868 C235 868 213 845 213 817 C213 789 237 766 263 766 C291 766 315 789 315 817 C315 845 292 868 263 868 L263 868 Z M449 868 C421 868 399 845 399 817 C399 789 423 766 449 766 C477 766 501 789 501 817 C501 845 478 868 449 868 L449 868 Z " />
<glyph glyph-name="Igrave" unicode="&#xcc;" horiz-adv-x="312" d="M89 671 L89 633 L153 628 L164 613 L57 58 L41 44 L-23 38 L-23 0 L221 0 L221 38 L156 44 L144 58 L251 613 L267 628 L333 633 L333 671 L89 671 Z M111 896 L221 743 L278 743 L216 896 L111 896 Z " />
<glyph glyph-name="Iacute" unicode="&#xcd;" horiz-adv-x="312" d="M89 671 L89 633 L153 628 L164 613 L57 58 L41 44 L-23 38 L-23 0 L221 0 L221 38 L156 44 L144 58 L251 613 L267 628 L333 633 L333 671 L89 671 Z M320 896 L181 743 L240 743 L428 896 L320 896 Z " />
<glyph glyph-name="Icircumflex" unicode="&#xce;" horiz-adv-x="312" d="M89 671 L89 633 L153 628 L164 613 L57 58 L41 44 L-23 38 L-23 0 L221 0 L221 38 L156 44 L144 58 L251 613 L267 628 L333 633 L333 671 L89 671 Z M227 896 L81 743 L139 743 L250 838 L309 743 L366 743 L290 896 L227 896 Z " />
<glyph glyph-name="Idieresis" unicode="&#xcf;" horiz-adv-x="312" d="M89 671 L89 633 L153 628 L164 613 L57 58 L41 44 L-23 38 L-23 0 L221 0 L221 38 L156 44 L144 58 L251 613 L267 628 L333 633 L333 671 L89 671 Z M146 868 C118 868 96 845 96 817 C96 789 120 766 146 766 C174 766 198 789 198 817 C198 845 175 868 146 868 L146 868 Z M332 868 C304 868 282 845 282 817 C282 789 306 766 332 766 C360 766 384 789 384 817 C384 845 361 868 332 868 L332 868 Z " />
<glyph glyph-name="Eth" unicode="&#xd0;" horiz-adv-x="671" d="M85 671 L85 633 L149 628 L159 613 L114 377 L24 377 L19 331 L105 331 L52 58 L36 44 L-28 38 L-28 0 L183 0 C320 0 421 33 500 111 C579 189 623 300 623 416 C623 581 517 671 312 671 L85 671 Z M249 625 L304 625 C454 625 526 562 526 427 C526 324 492 219 441 152 C389 84 304 47 195 47 L140 47 L192 331 L343 331 L352 377 L202 377 L249 625 Z " />
<glyph glyph-name="Ntilde" unicode="&#xd1;" horiz-adv-x="683" d="M81 671 L81 633 L146 628 L156 613 L49 58 L33 44 L-31 38 L-31 0 L180 0 L180 38 L116 44 L105 58 L202 556 L465 0 L523 0 L640 613 L656 628 L720 633 L720 671 L510 671 L510 633 L574 628 L584 613 L492 139 L253 646 L253 671 L81 671 Z M549 877 C542 840 525 821 502 821 C472 821 423 865 373 865 C310 865 273 830 262 758 L307 758 C312 792 331 812 351 812 C382 812 427 769 486 769 C540 769 586 810 593 877 L549 877 Z " />
<glyph glyph-name="Ograve" unicode="&#xd2;" horiz-adv-x="708" d="M405 682 C304 682 203 631 135 541 C74 461 41 363 41 259 C41 100 151 -12 306 -12 C409 -12 508 39 577 129 C636 206 669 308 669 420 C669 507 630 586 562 636 C522 666 467 682 405 682 L405 682 Z M571 419 C571 320 541 220 492 149 C441 74 379 36 310 36 C207 36 137 118 137 253 C137 351 167 451 216 523 C267 598 330 636 398 636 C502 636 571 555 571 419 L571 419 Z M309 896 L419 743 L476 743 L414 896 L309 896 Z " />
<glyph glyph-name="Oacute" unicode="&#xd3;" horiz-adv-x="708" d="M405 682 C304 682 203 631 135 541 C74 461 41 363 41 259 C41 100 151 -12 306 -12 C409 -12 508 39 577 129 C636 206 669 308 669 420 C669 507 630 586 562 636 C522 666 467 682 405 682 L405 682 Z M571 419 C571 320 541 220 492 149 C441 74 379 36 310 36 C207 36 137 118 137 253 C137 351 167 451 216 523 C267 598 330 636 398 636 C502 636 571 555 571 419 L571 419 Z M518 896 L379 743 L438 743 L626 896 L518 896 Z " />
<glyph glyph-name="Ocircumflex" unicode="&#xd4;" horiz-adv-x="708" d="M405 682 C304 682 203 631 135 541 C74 461 41 363 41 259 C41 100 151 -12 306 -12 C409 -12 508 39 577 129 C636 206 669 308 669 420 C669 507 630 586 562 636 C522 666 467 682 405 682 L405 682 Z M571 419 C571 320 541 220 492 149 C441 74 379 36 310 36 C207 36 137 118 137 253 C137 351 167 451 216 523 C267 598 330 636 398 636 C502 636 571 555 571 419 L571 419 Z M425 896 L279 743 L337 743 L448 838 L507 743 L564 743 L488 896 L425 896 Z " />
<glyph glyph-name="Otilde" unicode="&#xd5;" horiz-adv-x="708" d="M405 682 C304 682 203 631 135 541 C74 461 41 363 41 259 C41 100 151 -12 306 -12 C409 -12 508 39 577 129 C636 206 669 308 669 420 C669 507 630 586 562 636 C522 666 467 682 405 682 L405 682 Z M571 419 C571 320 541 220 492 149 C441 74 379 36 310 36 C207 36 137 118 137 253 C137 351 167 451 216 523 C267 598 330 636 398 636 C502 636 571 555 571 419 L571 419 Z M561 877 C554 840 537 821 514 821 C484 821 435 865 385 865 C322 865 285 830 274 758 L319 758 C324 792 343 812 363 812 C394 812 439 769 498 769 C552 769 598 810 605 877 L561 877 Z " />
<glyph glyph-name="Odieresis" unicode="&#xd6;" horiz-adv-x="708" d="M405 682 C304 682 203 631 135 541 C74 461 41 363 41 259 C41 100 151 -12 306 -12 C409 -12 508 39 577 129 C636 206 669 308 669 420 C669 507 630 586 562 636 C522 666 467 682 405 682 L405 682 Z M571 419 C571 320 541 220 492 149 C441 74 379 36 310 36 C207 36 137 118 137 253 C137 351 167 451 216 523 C267 598 330 636 398 636 C502 636 571 555 571 419 L571 419 Z M344 868 C316 868 294 845 294 817 C294 789 318 766 344 766 C372 766 396 789 396 817 C396 845 373 868 344 868 L344 868 Z M530 868 C502 868 480 845 480 817 C480 789 504 766 530 766 C558 766 582 789 582 817 C582 845 559 868 530 868 L530 868 Z " />
<glyph glyph-name="multiply" unicode="&#xd7;" horiz-adv-x="833" d="M186 571 L147 531 L379 298 L147 66 L186 26 L419 258 L651 26 L691 66 L459 298 L691 531 L651 571 L419 338 L186 571 Z " />
<glyph glyph-name="Oslash" unicode="&#xd8;" horiz-adv-x="708" d="M579 743 L524 657 C490 674 452 682 409 682 C303 682 204 631 135 541 C74 461 42 365 42 263 C42 169 73 96 130 49 L66 -50 L98 -74 L162 25 C208 0 256 -12 306 -12 C409 -12 508 39 577 129 C636 206 669 308 669 420 C669 507 632 582 561 636 L616 720 L579 743 Z M493 610 L168 110 C143 154 131 203 131 257 C131 352 162 453 210 524 C262 600 322 636 399 636 C434 636 465 627 493 610 L493 610 Z M525 582 C560 540 577 484 577 414 C577 317 547 217 498 146 C447 71 386 33 315 33 C271 33 232 48 198 79 L525 582 Z " />
<glyph glyph-name="Ugrave" unicode="&#xd9;" horiz-adv-x="664" d="M73 671 L73 633 L137 628 L148 613 L76 240 C69 204 64 175 64 152 C64 46 136 -11 269 -11 C358 -11 431 17 477 64 C527 116 538 174 551 240 L624 613 L641 628 L704 633 L704 671 L495 671 L495 633 L560 628 L572 613 L501 249 C475 114 421 50 297 50 C205 50 155 93 155 174 C155 195 158 220 164 249 L235 613 L251 628 L316 633 L316 671 L73 671 Z M287 896 L397 743 L454 743 L392 896 L287 896 Z " />
<glyph glyph-name="Uacute" unicode="&#xda;" horiz-adv-x="664" d="M73 671 L73 633 L137 628 L148 613 L76 240 C69 204 64 175 64 152 C64 46 136 -11 269 -11 C358 -11 431 17 477 64 C527 116 538 174 551 240 L624 613 L641 628 L704 633 L704 671 L495 671 L495 633 L560 628 L572 613 L501 249 C475 114 421 50 297 50 C205 50 155 93 155 174 C155 195 158 220 164 249 L235 613 L251 628 L316 633 L316 671 L73 671 Z M496 896 L357 743 L416 743 L604 896 L496 896 Z " />
<glyph glyph-name="Ucircumflex" unicode="&#xdb;" horiz-adv-x="664" d="M73 671 L73 633 L137 628 L148 613 L76 240 C69 204 64 175 64 152 C64 46 136 -11 269 -11 C358 -11 431 17 477 64 C527 116 538 174 551 240 L624 613 L641 628 L704 633 L704 671 L495 671 L495 633 L560 628 L572 613 L501 249 C475 114 421 50 297 50 C205 50 155 93 155 174 C155 195 158 220 164 249 L235 613 L251 628 L316 633 L316 671 L73 671 Z M403 896 L257 743 L315 743 L426 838 L485 743 L542 743 L466 896 L403 896 Z " />
<glyph glyph-name="Udieresis" unicode="&#xdc;" horiz-adv-x="664" d="M73 671 L73 633 L137 628 L148 613 L76 240 C69 204 64 175 64 152 C64 46 136 -11 269 -11 C358 -11 431 17 477 64 C527 116 538 174 551 240 L624 613 L641 628 L704 633 L704 671 L495 671 L495 633 L560 628 L572 613 L501 249 C475 114 421 50 297 50 C205 50 155 93 155 174 C155 195 158 220 164 249 L235 613 L251 628 L316 633 L316 671 L73 671 Z M322 868 C294 868 272 845 272 817 C272 789 296 766 322 766 C350 766 374 789 374 817 C374 845 351 868 322 868 L322 868 Z M508 868 C480 868 458 845 458 817 C458 789 482 766 508 766 C536 766 560 789 560 817 C560 845 537 868 508 868 L508 868 Z " />
<glyph glyph-name="Yacute" unicode="&#xdd;" horiz-adv-x="562" d="M31 671 L31 633 L96 628 L106 613 L218 272 L176 58 L160 44 L97 38 L97 0 L340 0 L340 38 L275 44 L262 58 L306 281 L560 613 L576 628 L642 633 L642 671 L418 671 L418 633 L482 628 L492 613 L283 330 L193 613 L209 628 L274 633 L274 671 L31 671 Z M445 896 L306 743 L365 743 L553 896 L445 896 Z " />
<glyph glyph-name="Thorn" unicode="&#xde;" horiz-adv-x="532" d="M83 671 L83 633 L146 628 L158 614 L50 58 L34 44 L-29 38 L-29 0 L207 0 L207 38 L143 44 L136 58 L150 128 C175 127 197 126 214 126 C399 126 517 236 517 386 C517 450 478 506 420 527 C374 544 325 545 271 545 L232 545 L245 614 L261 628 L326 633 L326 671 L83 671 Z M223 500 C237 501 250 502 263 502 C372 502 423 462 423 371 C423 248 341 173 197 173 C185 173 172 174 159 175 L223 500 Z " />
<glyph glyph-name="germandbls" unicode="&#xdf;" horiz-adv-x="574" d="M490 437 C512 515 522 572 522 607 C522 688 468 738 374 738 C224 738 132 628 100 410 L58 123 C39 -10 22 -101 -25 -150 L-129 -123 C-143 -133 -151 -147 -151 -163 C-151 -195 -129 -216 -97 -216 C-49 -216 6 -178 59 -103 C105 -38 121 36 134 126 L179 431 C205 606 266 694 369 694 C425 694 455 664 455 610 C455 577 447 533 432 481 C333 473 270 408 270 331 C270 275 308 248 365 205 C407 173 434 149 434 112 C434 59 399 27 343 27 C312 27 288 39 271 62 L289 112 C274 124 260 131 246 131 C215 131 194 110 194 79 C194 27 242 -9 326 -9 C435 -9 509 58 509 145 C509 205 469 231 409 277 C362 313 334 335 334 368 C334 411 374 440 447 440 C458 440 472 439 490 437 L490 437 Z " />
<glyph glyph-name="agrave" unicode="&#xe0;" horiz-adv-x="525" d="M410 482 L390 460 C360 475 328 482 294 482 C202 482 119 434 69 351 C35 295 17 233 17 166 C17 55 70 -9 155 -9 C203 -9 251 19 304 75 L304 67 C304 16 323 -9 365 -9 C392 -9 433 3 488 26 L488 56 C461 50 443 46 432 46 C395 46 378 59 378 92 C378 106 381 129 388 162 L424 339 C439 414 452 461 462 482 L410 482 Z M317 443 L357 382 L305 118 C264 74 225 52 187 52 C129 52 100 92 100 172 C100 330 186 443 304 443 L317 443 Z M194 736 L303 546 L353 546 L293 736 L194 736 Z " />
<glyph glyph-name="aacute" unicode="&#xe1;" horiz-adv-x="525" d="M410 482 L390 460 C360 475 328 482 294 482 C202 482 119 434 69 351 C35 295 17 233 17 166 C17 55 70 -9 155 -9 C203 -9 251 19 304 75 L304 67 C304 16 323 -9 365 -9 C392 -9 433 3 488 26 L488 56 C461 50 443 46 432 46 C395 46 378 59 378 92 C378 106 381 129 388 162 L424 339 C439 414 452 461 462 482 L410 482 Z M317 443 L357 382 L305 118 C264 74 225 52 187 52 C129 52 100 92 100 172 C100 330 186 443 304 443 L317 443 Z M399 736 L266 546 L315 546 L498 736 L399 736 Z " />
<glyph glyph-name="acircumflex" unicode="&#xe2;" horiz-adv-x="525" d="M410 482 L390 460 C360 475 328 482 294 482 C202 482 119 434 69 351 C35 295 17 233 17 166 C17 55 70 -9 155 -9 C203 -9 251 19 304 75 L304 67 C304 16 323 -9 365 -9 C392 -9 433 3 488 26 L488 56 C461 50 443 46 432 46 C395 46 378 59 378 92 C378 106 381 129 388 162 L424 339 C439 414 452 461 462 482 L410 482 Z M317 443 L357 382 L305 118 C264 74 225 52 187 52 C129 52 100 92 100 172 C100 330 186 443 304 443 L317 443 Z M307 736 L161 546 L216 546 L330 687 L391 546 L446 546 L372 736 L307 736 Z " />
<glyph glyph-name="atilde" unicode="&#xe3;" horiz-adv-x="525" d="M410 482 L390 460 C360 475 328 482 294 482 C202 482 119 434 69 351 C35 295 17 233 17 166 C17 55 70 -9 155 -9 C203 -9 251 19 304 75 L304 67 C304 16 323 -9 365 -9 C392 -9 433 3 488 26 L488 56 C461 50 443 46 432 46 C395 46 378 59 378 92 C378 106 381 129 388 162 L424 339 C439 414 452 461 462 482 L410 482 Z M317 443 L357 382 L305 118 C264 74 225 52 187 52 C129 52 100 92 100 172 C100 330 186 443 304 443 L317 443 Z M445 708 C438 663 421 641 394 641 C360 641 317 693 264 693 C206 693 168 652 156 573 L199 573 C202 614 223 638 246 638 C274 638 322 588 381 588 C432 588 479 633 487 708 L445 708 Z " />
<glyph glyph-name="adieresis" unicode="&#xe4;" horiz-adv-x="525" d="M410 482 L390 460 C360 475 328 482 294 482 C202 482 119 434 69 351 C35 295 17 233 17 166 C17 55 70 -9 155 -9 C203 -9 251 19 304 75 L304 67 C304 16 323 -9 365 -9 C392 -9 433 3 488 26 L488 56 C461 50 443 46 432 46 C395 46 378 59 378 92 C378 106 381 129 388 162 L424 339 C439 414 452 461 462 482 L410 482 Z M317 443 L357 382 L305 118 C264 74 225 52 187 52 C129 52 100 92 100 172 C100 330 186 443 304 443 L317 443 Z M226 692 C198 692 176 669 176 641 C176 613 200 590 226 590 C254 590 278 613 278 641 C278 669 255 692 226 692 L226 692 Z M413 692 C386 692 362 669 362 641 C362 613 387 590 413 590 C441 590 464 613 464 641 C464 669 442 692 413 692 L413 692 Z " />
<glyph glyph-name="aring" unicode="&#xe5;" horiz-adv-x="525" d="M318 761 C258 761 210 713 210 653 C210 593 258 546 318 546 C379 546 426 593 426 653 C426 713 378 761 318 761 L318 761 Z M318 720 C356 720 385 690 385 653 C385 617 355 587 318 587 C281 587 252 616 252 653 C252 691 281 720 318 720 L318 720 Z M390 460 C360 475 328 482 294 482 C202 482 119 434 69 351 C35 295 17 233 17 166 C17 55 70 -9 155 -9 C203 -9 251 19 304 75 L304 67 C304 16 323 -9 365 -9 C392 -9 433 3 488 26 L488 56 C461 50 443 46 432 46 C395 46 378 59 378 92 C378 106 381 129 388 162 L424 339 C439 414 452 461 462 482 L410 482 L390 460 Z M317 443 L357 382 L305 118 C264 74 225 52 187 52 C129 52 100 92 100 172 C100 330 186 443 304 443 L317 443 Z " />
<glyph glyph-name="ae" unicode="&#xe6;" horiz-adv-x="671" d="M291 68 C321 16 363 -9 422 -9 C488 -9 554 21 616 81 L616 128 C558 74 502 46 456 46 C392 46 352 96 352 177 C352 193 353 208 355 222 C533 234 628 297 628 383 C628 443 588 482 525 482 C476 482 430 459 376 415 C363 461 328 482 269 482 C146 482 58 421 58 341 L156 341 L172 423 C196 433 218 440 239 440 C282 440 306 416 306 377 C306 366 304 350 300 329 L288 268 C97 249 2 192 2 93 C2 33 40 -7 103 -7 C158 -7 221 18 291 68 L291 68 Z M282 100 C238 68 197 52 156 52 C115 52 92 76 92 116 C92 180 153 215 280 231 C277 211 275 192 275 172 C275 148 278 124 282 100 L282 100 Z M360 256 C389 377 446 440 504 440 C533 440 556 417 556 386 C556 323 485 263 360 256 L360 256 Z " />
<glyph glyph-name="ccedilla" unicode="&#xe7;" horiz-adv-x="394" d="M307 360 C345 361 370 385 370 415 C370 453 333 485 277 485 C215 485 150 454 98 398 C45 340 15 260 15 172 C15 59 75 -10 163 -10 C221 -10 288 22 350 87 L350 133 C296 78 240 50 194 50 C132 50 94 99 94 186 C94 336 162 436 244 436 L249 436 L307 360 Z M131 5 L110 -103 C118 -102 125 -101 132 -101 C159 -101 174 -112 174 -129 C174 -160 147 -180 99 -180 C77 -180 58 -178 41 -173 L34 -208 C58 -215 80 -219 101 -219 C184 -219 239 -170 239 -111 C239 -75 217 -56 175 -56 C169 -56 162 -56 155 -57 L167 5 L131 5 Z " />
<glyph glyph-name="egrave" unicode="&#xe8;" horiz-adv-x="424" d="M110 256 C139 377 196 440 254 440 C283 440 306 417 306 386 C306 323 235 263 110 256 L110 256 Z M105 222 C283 234 378 297 378 383 C378 443 338 482 275 482 C225 482 161 453 110 400 C54 341 21 257 21 173 C21 57 78 -9 172 -9 C238 -9 304 21 366 81 L366 128 C308 74 252 46 206 46 C142 46 102 96 102 177 C102 193 103 208 105 222 L105 222 Z M156 736 L265 546 L315 546 L255 736 L156 736 Z " />
<glyph glyph-name="eacute" unicode="&#xe9;" horiz-adv-x="424" d="M110 256 C139 377 196 440 254 440 C283 440 306 417 306 386 C306 323 235 263 110 256 L110 256 Z M105 222 C283 234 378 297 378 383 C378 443 338 482 275 482 C225 482 161 453 110 400 C54 341 21 257 21 173 C21 57 78 -9 172 -9 C238 -9 304 21 366 81 L366 128 C308 74 252 46 206 46 C142 46 102 96 102 177 C102 193 103 208 105 222 L105 222 Z M361 736 L228 546 L277 546 L460 736 L361 736 Z " />
<glyph glyph-name="ecircumflex" unicode="&#xea;" horiz-adv-x="424" d="M110 256 C139 377 196 440 254 440 C283 440 306 417 306 386 C306 323 235 263 110 256 L110 256 Z M105 222 C283 234 378 297 378 383 C378 443 338 482 275 482 C225 482 161 453 110 400 C54 341 21 257 21 173 C21 57 78 -9 172 -9 C238 -9 304 21 366 81 L366 128 C308 74 252 46 206 46 C142 46 102 96 102 177 C102 193 103 208 105 222 L105 222 Z M269 736 L123 546 L178 546 L292 687 L353 546 L408 546 L334 736 L269 736 Z " />
<glyph glyph-name="edieresis" unicode="&#xeb;" horiz-adv-x="424" d="M110 256 C139 377 196 440 254 440 C283 440 306 417 306 386 C306 323 235 263 110 256 L110 256 Z M105 222 C283 234 378 297 378 383 C378 443 338 482 275 482 C225 482 161 453 110 400 C54 341 21 257 21 173 C21 57 78 -9 172 -9 C238 -9 304 21 366 81 L366 128 C308 74 252 46 206 46 C142 46 102 96 102 177 C102 193 103 208 105 222 L105 222 Z M188 692 C160 692 138 669 138 641 C138 613 162 590 188 590 C216 590 240 613 240 641 C240 669 217 692 188 692 L188 692 Z M375 692 C348 692 324 669 324 641 C324 613 349 590 375 590 C403 590 426 613 426 641 C426 669 404 692 375 692 L375 692 Z " />
<glyph glyph-name="igrave" unicode="&#xec;" horiz-adv-x="287" d="M181 482 L33 450 L33 424 L114 409 L55 111 C51 91 49 74 49 60 C49 16 70 -7 113 -7 C151 -7 199 5 254 28 L254 59 C223 49 199 44 180 44 C149 44 132 57 132 83 C132 89 133 97 135 108 L207 482 L181 482 Z M48 736 L157 546 L207 546 L147 736 L48 736 Z " />
<glyph glyph-name="iacute" unicode="&#xed;" horiz-adv-x="287" d="M181 482 L33 450 L33 424 L114 409 L55 111 C51 91 49 74 49 60 C49 16 70 -7 113 -7 C151 -7 199 5 254 28 L254 59 C223 49 199 44 180 44 C149 44 132 57 132 83 C132 89 133 97 135 108 L207 482 L181 482 Z M253 736 L120 546 L169 546 L352 736 L253 736 Z " />
<glyph glyph-name="icircumflex" unicode="&#xee;" horiz-adv-x="287" d="M181 482 L33 450 L33 424 L114 409 L55 111 C51 91 49 74 49 60 C49 16 70 -7 113 -7 C151 -7 199 5 254 28 L254 59 C223 49 199 44 180 44 C149 44 132 57 132 83 C132 89 133 97 135 108 L207 482 L181 482 Z M161 736 L15 546 L70 546 L184 687 L245 546 L300 546 L226 736 L161 736 Z " />
<glyph glyph-name="idieresis" unicode="&#xef;" horiz-adv-x="287" d="M181 482 L33 450 L33 424 L114 409 L55 111 C51 91 49 74 49 60 C49 16 70 -7 113 -7 C151 -7 199 5 254 28 L254 59 C223 49 199 44 180 44 C149 44 132 57 132 83 C132 89 133 97 135 108 L207 482 L181 482 Z M80 692 C52 692 30 669 30 641 C30 613 54 590 80 590 C108 590 132 613 132 641 C132 669 109 692 80 692 L80 692 Z M267 692 C240 692 216 669 216 641 C216 613 241 590 267 590 C295 590 318 613 318 641 C318 669 296 692 267 692 L267 692 Z " />
<glyph glyph-name="eth" unicode="&#xf0;" horiz-adv-x="500" d="M330 476 C306 480 287 481 271 481 C206 481 148 455 104 404 C52 344 22 261 22 181 C22 64 89 -9 192 -9 C335 -9 443 117 443 299 C443 395 411 493 352 604 L464 649 L449 684 L331 638 L270 725 L153 709 L149 681 L227 661 L262 610 L131 559 L145 522 L284 578 C299 547 314 514 330 476 L330 476 Z M340 437 C354 390 361 341 361 290 C361 134 289 32 204 32 C144 32 107 84 107 180 C107 274 139 357 179 401 C207 432 241 444 288 444 C300 444 317 442 340 437 L340 437 Z " />
<glyph glyph-name="ntilde" unicode="&#xf1;" horiz-adv-x="556" d="M181 482 L33 449 L33 424 L115 409 L32 0 L117 0 L179 338 C240 394 293 420 327 420 C365 420 381 401 381 357 C381 342 378 321 372 293 L329 108 C324 86 321 67 321 54 C321 13 345 -6 394 -6 C422 -6 462 4 514 24 L514 52 C492 46 473 43 459 43 C426 43 407 60 407 92 C407 107 412 129 418 158 L452 313 C460 349 466 377 466 402 C466 451 434 482 382 482 C329 482 267 449 188 386 L206 482 L181 482 Z M443 708 C436 663 419 641 392 641 C358 641 315 693 262 693 C204 693 166 652 154 573 L197 573 C200 614 221 638 244 638 C272 638 320 588 379 588 C430 588 477 633 485 708 L443 708 Z " />
<glyph glyph-name="ograve" unicode="&#xf2;" horiz-adv-x="502" d="M279 483 C210 483 150 454 102 400 C52 343 22 262 22 181 C22 65 89 -9 192 -9 C261 -9 321 20 368 73 C420 132 449 209 449 287 C449 408 383 483 279 483 L279 483 Z M266 444 C327 444 364 391 364 293 C364 141 289 32 204 32 C145 32 107 85 107 180 C107 335 180 444 266 444 L266 444 Z M182 736 L291 546 L341 546 L281 736 L182 736 Z " />
<glyph glyph-name="oacute" unicode="&#xf3;" horiz-adv-x="502" d="M279 483 C210 483 150 454 102 400 C52 343 22 262 22 181 C22 65 89 -9 192 -9 C261 -9 321 20 368 73 C420 132 449 209 449 287 C449 408 383 483 279 483 L279 483 Z M266 444 C327 444 364 391 364 293 C364 141 289 32 204 32 C145 32 107 85 107 180 C107 335 180 444 266 444 L266 444 Z M387 736 L254 546 L303 546 L486 736 L387 736 Z " />
<glyph glyph-name="ocircumflex" unicode="&#xf4;" horiz-adv-x="502" d="M279 483 C210 483 150 454 102 400 C52 343 22 262 22 181 C22 65 89 -9 192 -9 C261 -9 321 20 368 73 C420 132 449 209 449 287 C449 408 383 483 279 483 L279 483 Z M266 444 C327 444 364 391 364 293 C364 141 289 32 204 32 C145 32 107 85 107 180 C107 335 180 444 266 444 L266 444 Z M295 736 L149 546 L204 546 L318 687 L379 546 L434 546 L360 736 L295 736 Z " />
<glyph glyph-name="otilde" unicode="&#xf5;" horiz-adv-x="502" d="M279 483 C210 483 150 454 102 400 C52 343 22 262 22 181 C22 65 89 -9 192 -9 C261 -9 321 20 368 73 C420 132 449 209 449 287 C449 408 383 483 279 483 L279 483 Z M266 444 C327 444 364 391 364 293 C364 141 289 32 204 32 C145 32 107 85 107 180 C107 335 180 444 266 444 L266 444 Z M433 708 C426 663 409 641 382 641 C348 641 305 693 252 693 C194 693 156 652 144 573 L187 573 C190 614 211 638 234 638 C262 638 310 588 369 588 C420 588 467 633 475 708 L433 708 Z " />
<glyph glyph-name="odieresis" unicode="&#xf6;" horiz-adv-x="502" d="M279 483 C210 483 150 454 102 400 C52 343 22 262 22 181 C22 65 89 -9 192 -9 C261 -9 321 20 368 73 C420 132 449 209 449 287 C449 408 383 483 279 483 L279 483 Z M266 444 C327 444 364 391 364 293 C364 141 289 32 204 32 C145 32 107 85 107 180 C107 335 180 444 266 444 L266 444 Z M214 692 C186 692 164 669 164 641 C164 613 188 590 214 590 C242 590 266 613 266 641 C266 669 243 692 214 692 L214 692 Z M401 692 C374 692 350 669 350 641 C350 613 375 590 401 590 C429 590 452 613 452 641 C452 669 430 692 401 692 L401 692 Z " />
<glyph glyph-name="divide" unicode="&#xf7;" horiz-adv-x="833" d="M417 530 C387 530 361 505 361 474 C361 443 386 418 417 418 C449 418 473 444 473 474 C473 505 448 530 417 530 L417 530 Z M124 327 L124 270 L709 270 L709 327 L124 327 Z M417 178 C387 178 361 154 361 122 C361 91 386 66 417 66 C449 66 473 92 473 122 C473 153 448 178 417 178 L417 178 Z " />
<glyph glyph-name="oslash" unicode="&#xf8;" horiz-adv-x="502" d="M414 547 L362 463 C339 477 312 483 279 483 C211 483 150 454 102 400 C52 343 22 262 22 181 C22 113 44 62 88 24 L35 -63 L60 -80 L116 7 C143 -4 168 -9 192 -9 C261 -9 321 19 368 72 C420 132 449 208 449 287 C449 357 427 410 388 445 L442 529 L414 547 Z M334 416 L122 81 C108 113 102 146 102 182 C102 331 179 444 268 444 C295 444 316 435 334 416 L334 416 Z M353 386 C365 363 371 332 371 291 C371 142 294 32 204 32 C180 32 159 39 143 55 L353 386 Z " />
<glyph glyph-name="ugrave" unicode="&#xf9;" horiz-adv-x="553" d="M187 483 L30 450 L30 424 L113 409 L55 146 C50 123 47 103 47 86 C47 27 84 -8 144 -8 C198 -8 257 19 325 75 C324 68 324 62 324 56 C324 12 343 -8 384 -8 C415 -8 457 3 512 23 L512 51 C488 44 469 40 456 40 C424 40 404 58 404 79 C404 100 409 123 414 147 L485 473 L404 473 L329 112 C273 68 222 49 187 49 C151 49 129 69 129 104 C129 120 133 145 140 178 L203 469 L187 483 Z M186 736 L295 546 L345 546 L285 736 L186 736 Z " />
<glyph glyph-name="uacute" unicode="&#xfa;" horiz-adv-x="553" d="M187 483 L30 450 L30 424 L113 409 L55 146 C50 123 47 103 47 86 C47 27 84 -8 144 -8 C198 -8 257 19 325 75 C324 68 324 62 324 56 C324 12 343 -8 384 -8 C415 -8 457 3 512 23 L512 51 C488 44 469 40 456 40 C424 40 404 58 404 79 C404 100 409 123 414 147 L485 473 L404 473 L329 112 C273 68 222 49 187 49 C151 49 129 69 129 104 C129 120 133 145 140 178 L203 469 L187 483 Z M391 736 L258 546 L307 546 L490 736 L391 736 Z " />
<glyph glyph-name="ucircumflex" unicode="&#xfb;" horiz-adv-x="553" d="M187 483 L30 450 L30 424 L113 409 L55 146 C50 123 47 103 47 86 C47 27 84 -8 144 -8 C198 -8 257 19 325 75 C324 68 324 62 324 56 C324 12 343 -8 384 -8 C415 -8 457 3 512 23 L512 51 C488 44 469 40 456 40 C424 40 404 58 404 79 C404 100 409 123 414 147 L485 473 L404 473 L329 112 C273 68 222 49 187 49 C151 49 129 69 129 104 C129 120 133 145 140 178 L203 469 L187 483 Z M299 736 L153 546 L208 546 L322 687 L383 546 L438 546 L364 736 L299 736 Z " />
<glyph glyph-name="udieresis" unicode="&#xfc;" horiz-adv-x="553" d="M187 483 L30 450 L30 424 L113 409 L55 146 C50 123 47 103 47 86 C47 27 84 -8 144 -8 C198 -8 257 19 325 75 C324 68 324 62 324 56 C324 12 343 -8 384 -8 C415 -8 457 3 512 23 L512 51 C488 44 469 40 456 40 C424 40 404 58 404 79 C404 100 409 123 414 147 L485 473 L404 473 L329 112 C273 68 222 49 187 49 C151 49 129 69 129 104 C129 120 133 145 140 178 L203 469 L187 483 Z M218 692 C190 692 168 669 168 641 C168 613 192 590 218 590 C246 590 270 613 270 641 C270 669 247 692 218 692 L218 692 Z M405 692 C378 692 354 669 354 641 C354 613 379 590 405 590 C433 590 456 613 456 641 C456 669 434 692 405 692 L405 692 Z " />
<glyph glyph-name="yacute" unicode="&#xfd;" horiz-adv-x="475" d="M83 485 L-15 453 L-15 431 L70 424 C88 400 101 366 110 320 L172 19 L175 21 C116 -92 61 -151 0 -155 L-59 -96 C-92 -101 -113 -124 -113 -151 C-113 -186 -78 -217 -29 -217 C54 -217 145 -133 237 34 C320 184 360 323 433 405 L484 435 L484 456 L405 482 L386 482 C323 335 271 209 229 102 L196 271 C167 417 160 486 96 486 C92 486 87 486 83 485 L83 485 Z M364 736 L231 546 L280 546 L463 736 L364 736 Z " />
<glyph glyph-name="thorn" unicode="&#xfe;" horiz-adv-x="516" d="M212 736 L60 706 L60 680 L149 670 L0 -165 L-10 -176 L-69 -188 L-69 -218 L171 -218 L171 -188 L76 -171 L109 15 C134 3 160 -4 186 -4 C254 -4 325 29 376 85 C433 148 461 221 461 308 C461 421 413 483 334 483 C291 483 241 462 183 421 L227 671 C228 679 233 700 239 736 L212 736 Z M119 67 L176 377 C221 412 258 430 288 430 C342 430 378 385 378 306 C378 227 350 145 317 101 C286 60 249 40 205 40 C177 40 149 49 119 67 L119 67 Z " />
<glyph glyph-name="ydieresis" unicode="&#xff;" horiz-adv-x="475" d="M83 485 L-15 453 L-15 431 L70 424 C88 400 101 366 110 320 L172 19 L175 21 C116 -92 61 -151 0 -155 L-59 -96 C-92 -101 -113 -124 -113 -151 C-113 -186 -78 -217 -29 -217 C54 -217 145 -133 237 34 C320 184 360 323 433 405 L484 435 L484 456 L405 482 L386 482 C323 335 271 209 229 102 L196 271 C167 417 160 486 96 486 C92 486 87 486 83 485 L83 485 Z M191 692 C163 692 141 669 141 641 C141 613 165 590 191 590 C219 590 243 613 243 641 C243 669 220 692 191 692 L191 692 Z M378 692 C351 692 327 669 327 641 C327 613 352 590 378 590 C406 590 429 613 429 641 C429 669 407 692 378 692 L378 692 Z " />
<glyph glyph-name="dotlessi" unicode="&#x131;" horiz-adv-x="287" d="M181 482 L33 450 L33 424 L114 409 L55 111 C51 91 49 74 49 60 C49 16 70 -7 113 -7 C151 -7 199 5 254 28 L254 59 C223 49 199 44 180 44 C149 44 132 57 132 83 C132 89 133 97 135 108 L207 482 L181 482 Z " />
<glyph glyph-name="Lslash" unicode="&#x141;" horiz-adv-x="498" d="M84 671 L84 633 L149 628 L159 613 L109 355 L6 298 L27 256 L97 295 L52 58 L36 43 L-28 38 L-28 0 L418 0 L453 182 L405 182 L366 62 L348 46 L136 46 L196 352 L330 423 L307 464 L206 409 L246 613 L262 628 L327 633 L327 671 L84 671 Z " />
<glyph glyph-name="lslash" unicode="&#x142;" horiz-adv-x="275" d="M212 736 L60 706 L60 680 L149 670 L89 376 L-14 323 L3 286 L82 329 L53 180 C41 120 35 80 35 61 C35 15 60 -9 108 -9 C138 -9 183 1 241 25 L241 56 C210 46 186 40 170 40 C134 40 115 57 115 88 C115 103 118 129 126 168 L167 371 L292 436 L273 471 L178 422 L227 671 C229 681 233 702 239 736 L212 736 Z " />
<glyph glyph-name="OE" unicode="&#x152;" horiz-adv-x="1007" d="M571 419 C571 320 541 220 492 149 C441 74 379 36 310 36 C207 36 137 118 137 253 C137 351 167 452 216 523 C267 598 330 636 398 636 C502 636 571 555 571 419 L571 419 Z M606 556 C568 642 506 682 411 682 C331 682 257 655 195 604 C98 524 41 397 41 259 C41 100 150 -12 304 -12 C385 -12 453 20 514 85 L499 0 L911 0 L943 163 L897 163 L862 62 L845 46 L590 46 L644 325 L797 325 L808 311 L804 239 L845 239 L888 459 L845 459 L822 386 L805 372 L653 372 L702 625 L917 625 L927 610 L927 525 L975 525 L1004 671 L626 671 L606 556 Z " />
<glyph glyph-name="oe" unicode="&#x153;" horiz-adv-x="750" d="M263 444 C322 444 359 391 359 293 C359 140 287 32 203 32 C145 32 108 83 108 178 C108 335 179 444 263 444 L263 444 Z M429 390 C400 451 349 483 279 483 C210 483 150 454 102 400 C52 343 22 262 22 181 C22 65 89 -9 192 -9 C260 -9 317 18 366 71 C391 18 436 -9 499 -9 C564 -9 630 21 692 81 L692 128 C634 74 579 46 533 46 C469 46 428 96 428 177 C428 193 429 208 431 222 C609 234 704 297 704 383 C704 443 665 483 602 483 C548 483 484 451 429 390 L429 390 Z M437 256 C466 377 523 440 581 440 C610 440 632 417 632 386 C632 323 562 263 437 256 L437 256 Z " />
<glyph glyph-name="Scaron" unicode="&#x160;" horiz-adv-x="537" d="M511 653 C457 673 401 682 344 682 C195 682 97 587 97 475 C97 386 161 350 267 296 C334 262 376 247 376 177 C376 96 308 36 205 36 C169 36 133 46 94 65 L84 78 L94 193 L42 193 L9 34 C66 3 127 -12 193 -12 C353 -12 464 80 464 202 C464 287 412 326 314 372 C230 411 182 430 182 503 C182 577 247 637 340 637 C369 637 398 631 427 618 L439 600 L435 501 L479 501 L511 653 Z M383 743 L532 896 L474 896 L361 798 L299 896 L242 896 L318 743 L383 743 Z " />
<glyph glyph-name="scaron" unicode="&#x161;" horiz-adv-x="370" d="M266 369 C302 371 324 392 324 420 C324 455 288 482 231 482 C135 482 59 413 59 331 C59 275 97 248 154 205 C196 173 223 149 223 112 C223 59 188 27 132 27 C101 27 77 39 60 62 L78 112 C63 124 49 131 35 131 C4 131 -17 110 -17 79 C-17 27 32 -9 116 -9 C225 -9 299 58 299 145 C299 205 258 231 198 277 C151 313 123 334 123 370 C123 409 153 437 193 437 C204 437 214 434 224 427 L266 369 Z M119 736 L193 546 L258 546 L404 736 L350 736 L235 595 L175 736 L119 736 Z " />
<glyph glyph-name="Ydieresis" unicode="&#x178;" horiz-adv-x="562" d="M31 671 L31 633 L96 628 L106 613 L218 272 L176 58 L160 44 L97 38 L97 0 L340 0 L340 38 L275 44 L262 58 L306 281 L560 613 L576 628 L642 633 L642 671 L418 671 L418 633 L482 628 L492 613 L283 330 L193 613 L209 628 L274 633 L274 671 L31 671 Z M271 868 C243 868 221 845 221 817 C221 789 245 766 271 766 C299 766 323 789 323 817 C323 845 300 868 271 868 L271 868 Z M457 868 C429 868 407 845 407 817 C407 789 431 766 457 766 C485 766 509 789 509 817 C509 845 486 868 457 868 L457 868 Z " />
<glyph glyph-name="Zcaron" unicode="&#x17d;" horiz-adv-x="556" d="M128 671 L98 516 L150 516 L184 610 L206 623 L454 623 L-18 41 L-25 0 L445 0 L479 181 L430 181 L390 62 L376 49 L90 49 L563 629 L572 671 L128 671 Z M376 743 L525 896 L467 896 L354 798 L292 896 L235 896 L311 743 L376 743 Z " />
<glyph glyph-name="zcaron" unicode="&#x17e;" horiz-adv-x="440" d="M373 490 L354 441 C343 436 333 433 324 433 C302 433 281 444 256 457 C229 471 204 483 174 483 C105 483 39 413 39 343 C39 306 57 284 86 284 C107 284 122 297 133 316 L80 380 C95 401 117 412 143 412 C164 412 194 402 231 383 L330 405 L-14 19 L41 -11 L65 32 C76 38 86 41 95 41 C147 41 197 -2 253 -2 C327 -2 392 69 392 138 C392 174 371 198 343 198 C326 198 309 186 295 162 L350 101 C335 77 313 65 288 65 C269 65 235 77 186 98 L89 73 L434 458 L373 490 Z M166 736 L240 546 L305 546 L451 736 L397 736 L282 595 L222 736 L166 736 Z " />
<glyph glyph-name="florin" unicode="&#x192;" horiz-adv-x="556" d="M505 561 C543 579 563 603 563 633 C563 661 535 683 489 683 C443 683 384 661 337 622 C279 573 254 521 239 443 L225 368 L106 368 L106 319 L216 319 L173 100 C152 -7 127 -74 59 -109 L-32 -52 C-64 -70 -81 -96 -81 -121 C-81 -151 -61 -169 -25 -169 C43 -169 125 -126 181 -52 C242 29 269 151 297 319 L464 319 L464 368 L306 368 L321 448 C341 551 364 610 434 633 L505 561 Z " />
<glyph glyph-name="circumflex" unicode="&#x2c6;" horiz-adv-x="500" d="M294 736 L148 546 L203 546 L317 687 L378 546 L433 546 L359 736 L294 736 Z " />
<glyph glyph-name="caron" unicode="&#x2c7;" horiz-adv-x="500" d="M184 736 L258 546 L323 546 L469 736 L415 736 L300 595 L240 736 L184 736 Z " />
<glyph glyph-name="breve" unicode="&#x2d8;" horiz-adv-x="500" d="M180 709 C178 695 177 683 177 671 C177 600 215 567 296 567 C394 567 444 611 463 709 L424 709 C409 646 376 630 303 630 C244 630 219 649 219 693 C219 698 219 703 220 709 L180 709 Z " />
<glyph glyph-name="dotaccent" unicode="&#x2d9;" horiz-adv-x="500" d="M304 698 C273 698 248 672 248 641 C248 610 274 584 304 584 C336 584 362 610 362 641 C362 672 336 698 304 698 L304 698 Z " />
<glyph glyph-name="ring" unicode="&#x2da;" horiz-adv-x="500" d="M318 773 C258 773 210 726 210 666 C210 606 258 558 318 558 C379 558 426 606 426 666 C426 726 378 773 318 773 L318 773 Z M318 732 C356 732 385 702 385 665 C385 629 355 599 318 599 C281 599 252 628 252 665 C252 703 281 732 318 732 L318 732 Z " />
<glyph glyph-name="ogonek" unicode="&#x2db;" horiz-adv-x="500" d="M222 0 L179 0 C117 -43 84 -103 84 -154 C84 -193 112 -217 166 -217 C182 -217 200 -214 218 -209 L228 -159 C213 -161 201 -163 194 -163 C164 -163 147 -147 147 -122 C147 -84 172 -38 222 0 L222 0 Z " />
<glyph glyph-name="tilde" unicode="&#x2dc;" horiz-adv-x="500" d="M432 708 C425 663 408 641 381 641 C347 641 304 693 251 693 C193 693 155 652 143 573 L186 573 C189 614 210 638 233 638 C261 638 309 588 368 588 C419 588 466 633 474 708 L432 708 Z " />
<glyph glyph-name="hungarumlaut" unicode="&#x2dd;" horiz-adv-x="500" d="M311 736 L175 546 L218 546 L403 736 L311 736 Z M462 736 L281 546 L328 546 L569 736 L462 736 Z " />
<glyph glyph-name="endash" unicode="&#x2013;" horiz-adv-x="500" d="M-12 271 L-24 210 L476 210 L487 271 L-12 271 Z " />
<glyph glyph-name="emdash" unicode="&#x2014;" horiz-adv-x="1000" d="M991 271 L-7 271 L-19 210 L979 210 L991 271 Z " />
<glyph glyph-name="quoteleft" unicode="&#x2018;" horiz-adv-x="201" d="M203 713 C114 641 70 569 70 509 C70 467 95 442 134 442 C175 442 205 475 205 510 C205 519 203 527 198 536 L134 536 L134 538 C134 590 173 646 246 713 L203 713 Z " />
<glyph glyph-name="quoteright" unicode="&#x2019;" horiz-adv-x="201" d="M94 442 C183 514 227 586 227 646 C227 688 204 713 164 713 C123 713 92 679 92 645 C92 636 94 628 99 619 L163 619 L163 617 C163 565 124 509 51 442 L94 442 Z " />
<glyph glyph-name="quotesinglbase" unicode="&#x201a;" horiz-adv-x="201" d="M-22 -164 C67 -92 111 -21 111 39 C111 81 88 107 48 107 C7 107 -24 73 -24 39 C-24 30 -22 21 -17 12 L47 12 L47 10 C47 -42 8 -97 -65 -164 L-22 -164 Z " />
<glyph glyph-name="quotedblleft" unicode="&#x201c;" horiz-adv-x="403" d="M203 713 C114 641 70 569 70 509 C70 467 95 442 134 442 C175 442 205 475 205 510 C205 519 203 527 198 536 L134 536 L134 538 C134 590 173 646 246 713 L203 713 Z M405 713 C316 641 272 569 272 509 C272 467 296 442 335 442 C376 442 407 475 407 510 C407 519 405 527 400 536 L336 536 L336 540 C336 587 371 642 448 713 L405 713 Z " />
<glyph glyph-name="quotedblright" unicode="&#x201d;" horiz-adv-x="403" d="M94 442 C183 514 227 586 227 646 C227 688 204 713 164 713 C123 713 92 679 92 645 C92 636 94 628 99 619 L163 619 L163 617 C163 565 124 509 51 442 L94 442 Z M296 442 C385 514 428 586 428 646 C428 688 405 713 365 713 C324 713 293 679 293 645 C293 636 295 628 300 619 L365 619 L365 617 C365 565 326 509 253 442 L296 442 Z " />
<glyph glyph-name="quotedblbase" unicode="&#x201e;" horiz-adv-x="403" d="M-22 -164 C67 -92 111 -21 111 39 C111 81 88 107 48 107 C7 107 -24 73 -24 39 C-24 30 -22 21 -17 12 L47 12 L47 10 C47 -42 8 -97 -65 -164 L-22 -164 Z M180 -164 C269 -92 312 -21 312 39 C312 81 289 107 249 107 C208 107 177 73 177 39 C177 30 179 21 184 12 L249 12 L249 10 C249 -42 210 -97 137 -164 L180 -164 Z " />
<glyph glyph-name="dagger" unicode="&#x2020;" horiz-adv-x="500" d="M323 718 L263 642 L275 502 L289 502 L353 642 L323 718 Z M125 528 L46 483 L107 437 L258 472 L261 488 L125 528 Z M447 528 L298 488 L295 472 L429 437 L511 483 L447 528 Z M267 460 L194 294 L154 -129 L168 -129 L291 294 L281 460 L267 460 Z " />
<glyph glyph-name="daggerdbl" unicode="&#x2021;" horiz-adv-x="500" d="M323 718 L263 642 L275 502 L289 502 L353 642 L323 718 Z M125 528 L46 483 L107 437 L258 472 L261 488 L125 528 Z M447 528 L298 488 L295 472 L429 437 L511 483 L447 528 Z M267 460 L184 294 L203 127 L217 127 L297 294 L281 460 L267 460 Z M53 151 L-27 106 L35 60 L186 95 L189 111 L53 151 Z M374 151 L225 111 L222 95 L357 60 L439 106 L374 151 Z M195 84 L129 -56 L159 -132 L219 -56 L209 84 L195 84 Z " />
<glyph glyph-name="bullet" unicode="&#x2022;" horiz-adv-x="590" d="M150 372 C150 292 214 227 294 227 C374 227 439 293 439 372 C439 452 374 516 295 516 C215 516 150 452 150 372 L150 372 Z " />
<glyph glyph-name="ellipsis" unicode="&#x2026;" horiz-adv-x="1000" d="M447 118 C412 118 383 90 383 54 C383 19 412 -9 447 -9 C482 -9 510 19 510 54 C510 90 482 118 447 118 L447 118 Z M113 118 C78 116 50 89 50 54 C50 18 78 -9 113 -9 C148 -9 177 18 177 54 C177 89 148 118 113 118 L113 118 Z M780 118 C745 118 717 90 717 54 C717 19 745 -9 780 -9 C815 -9 844 19 844 54 C844 90 815 118 780 118 L780 118 Z " />
<glyph glyph-name="perthousand" unicode="&#x2030;" horiz-adv-x="1225" d="M247 683 C188 683 137 652 100 592 C69 541 50 471 50 404 C50 315 94 264 167 264 C226 264 277 295 314 355 C346 407 365 476 365 543 C365 631 320 683 247 683 L247 683 Z M673 671 L116 0 L177 0 L734 671 L673 671 Z M239 647 C276 647 294 617 294 558 C294 493 278 422 255 372 C233 323 206 300 172 300 C135 300 118 329 118 388 C118 452 133 521 157 574 C179 623 206 647 239 647 L239 647 Z M684 407 C625 407 574 376 537 316 C506 265 487 196 487 129 C487 39 531 -12 604 -12 C663 -12 714 20 751 80 C783 132 802 200 802 267 C802 355 757 407 684 407 L684 407 Z M1056 407 C997 407 947 376 910 316 C879 265 859 196 859 129 C859 40 903 -12 976 -12 C1035 -12 1086 20 1123 80 C1155 132 1174 200 1174 267 C1174 355 1129 407 1056 407 L1056 407 Z M676 372 C713 372 731 342 731 283 C731 218 715 147 692 97 C670 48 643 24 609 24 C572 24 555 54 555 113 C555 177 570 246 594 299 C616 348 643 372 676 372 L676 372 Z M1048 372 C1085 372 1104 342 1104 283 C1104 218 1088 147 1065 97 C1043 48 1015 24 981 24 C944 24 928 54 928 113 C928 177 943 246 967 299 C989 348 1015 372 1048 372 L1048 372 Z " />
<glyph glyph-name="guilsinglleft" unicode="&#x2039;" horiz-adv-x="245" d="M218 413 L28 280 L13 200 L151 67 L164 132 L67 240 L205 347 L218 413 Z " />
<glyph glyph-name="guilsinglright" unicode="&#x203a;" horiz-adv-x="245" d="M60 413 L48 347 L144 240 L6 132 L-6 67 L184 200 L199 280 L60 413 Z " />
<glyph glyph-name="fraction" unicode="&#x2044;" horiz-adv-x="185" d="M349 671 L-207 0 L-146 0 L410 671 L349 671 Z " />
<glyph glyph-name="trademark" unicode="&#x2122;" horiz-adv-x="822" d="M118 662 L118 593 L145 593 L151 633 L159 639 L211 639 L211 424 L172 420 L172 399 L294 399 L294 420 L256 425 L256 639 L308 639 L315 633 L321 593 L347 593 L347 662 L118 662 Z M377 662 L377 639 L409 634 L409 425 L378 420 L378 399 L468 399 L468 420 L437 425 L437 637 L525 399 L547 399 L639 637 L639 425 L609 420 L609 399 L716 399 L716 420 L684 425 L684 634 L716 639 L716 662 L616 662 L616 649 L547 470 L479 650 L479 662 L377 662 Z " />
<glyph glyph-name="minus" unicode="&#x2212;" horiz-adv-x="833" d="M124 327 L124 269 L709 269 L709 327 L124 327 Z " />
<glyph glyph-name="fi" unicode="&#xfb01;" horiz-adv-x="574" d="M493 704 C463 704 439 680 439 650 C439 619 463 597 493 597 C522 597 547 621 547 650 C547 679 522 704 493 704 L493 704 Z M354 621 C385 627 403 647 403 673 C403 704 368 732 320 732 C227 732 144 639 110 467 L34 436 L33 403 L100 410 L58 123 C39 -10 22 -101 -25 -150 L-129 -123 C-143 -133 -151 -147 -151 -163 C-151 -195 -129 -216 -97 -216 C-49 -216 6 -178 59 -103 C104 -40 121 34 134 126 L174 410 L406 409 L347 111 C343 91 341 74 341 60 C341 16 362 -7 405 -7 C443 -7 491 5 546 28 L546 59 C515 49 491 44 472 44 C441 44 424 57 424 83 C424 89 425 97 427 108 L499 482 L473 482 L348 455 L182 455 C204 586 234 663 272 688 L354 621 Z " />
<glyph glyph-name="fl" unicode="&#xfb02;" horiz-adv-x="579" d="M515 736 L383 710 C367 725 347 732 320 732 C227 732 144 639 110 467 L34 436 L33 403 L100 410 L58 123 C39 -10 22 -101 -25 -150 L-129 -123 C-143 -133 -151 -147 -151 -163 C-151 -195 -129 -216 -97 -216 C-49 -216 6 -178 59 -103 C104 -40 121 34 134 126 L174 409 L322 409 L322 455 L182 455 C204 586 234 663 272 688 L354 621 L403 675 L452 670 L356 180 C344 120 339 81 339 61 C339 15 363 -9 411 -9 C441 -9 486 1 544 25 L544 56 C513 46 489 40 473 40 C437 40 418 57 418 88 C418 103 421 130 429 168 L530 671 C533 683 537 705 542 736 L515 736 Z " />
</font>
</svg>
